LittleCharacterRegular-extended.ufo
<glyph name="exclam" format="2">
  <advance width="262"/>
  <unicode hex="0021"/>
  <outline>
    <contour>
      <point x="178" y="1" type="qcurve" smooth="yes"/>
      <point x="85" y="1" type="line" smooth="yes"/>
      <point x="74" y="1"/>
      <point x="66" y="9" type="qcurve" smooth="yes"/>
      <point x="57" y="16"/>
      <point x="57" y="28" type="qcurve" smooth="yes"/>
      <point x="57" y="120" type="line" smooth="yes"/>
      <point x="57" y="131"/>
      <point x="73" y="147"/>
      <point x="85" y="147" type="qcurve" smooth="yes"/>
      <point x="178" y="147" type="line" smooth="yes"/>
      <point x="189" y="147"/>
      <point x="205" y="131"/>
      <point x="205" y="120" type="qcurve" smooth="yes"/>
      <point x="205" y="28" type="line" smooth="yes"/>
      <point x="205" y="17"/>
      <point x="189" y="1"/>
    </contour>
    <contour>
      <point x="151" y="92" type="line"/>
      <point x="112" y="92" type="line"/>
      <point x="112" y="55" type="line"/>
      <point x="151" y="55" type="line"/>
    </contour>
    <contour>
      <point x="147" y="861"/>
      <point x="158" y="850" type="qcurve" smooth="yes"/>
      <point x="170" y="838"/>
      <point x="170" y="822" type="qcurve" smooth="yes"/>
      <point x="170" y="298" type="line" smooth="yes"/>
      <point x="170" y="282"/>
      <point x="158" y="270" type="qcurve" smooth="yes"/>
      <point x="147" y="259"/>
      <point x="115" y="259"/>
      <point x="104" y="270" type="qcurve" smooth="yes"/>
      <point x="92" y="282"/>
      <point x="92" y="298" type="qcurve" smooth="yes"/>
      <point x="92" y="822" type="line" smooth="yes"/>
      <point x="92" y="838"/>
      <point x="104" y="850" type="qcurve" smooth="yes"/>
      <point x="115" y="861"/>
    </contour>
  </outline>
</glyph>
<glyph name="quotedbl" format="2">
  <advance width="394"/>
  <unicode hex="0022"/>
  <outline>
    <contour>
      <point x="141" y="621" type="line" smooth="yes"/>
      <point x="135" y="608"/>
      <point x="120" y="608" type="qcurve" smooth="yes"/>
      <point x="106" y="606"/>
      <point x="100" y="620" type="qcurve" smooth="yes"/>
      <point x="60" y="694" type="line" smooth="yes"/>
      <point x="57" y="700"/>
      <point x="57" y="705" type="qcurve" smooth="yes"/>
      <point x="57" y="781" type="line" smooth="yes"/>
      <point x="57" y="790"/>
      <point x="64" y="796" type="qcurve" smooth="yes"/>
      <point x="71" y="803"/>
      <point x="80" y="803" type="qcurve" smooth="yes"/>
      <point x="157" y="803" type="line" smooth="yes"/>
      <point x="167" y="803"/>
      <point x="174" y="796" type="qcurve" smooth="yes"/>
      <point x="180" y="790"/>
      <point x="180" y="781" type="qcurve" smooth="yes"/>
      <point x="180" y="705" type="line" smooth="yes"/>
      <point x="180" y="698"/>
      <point x="174" y="690" type="qcurve" smooth="yes"/>
    </contour>
    <contour>
      <point x="135" y="758" type="line"/>
      <point x="103" y="758" type="line"/>
      <point x="103" y="710" type="line"/>
      <point x="119" y="680" type="line"/>
      <point x="135" y="711" type="line"/>
    </contour>
    <contour>
      <point x="298" y="621" type="line" smooth="yes"/>
      <point x="292" y="608"/>
      <point x="278" y="608" type="qcurve" smooth="yes"/>
      <point x="264" y="606"/>
      <point x="257" y="620" type="qcurve" smooth="yes"/>
      <point x="217" y="694" type="line" smooth="yes"/>
      <point x="214" y="702"/>
      <point x="215" y="705" type="qcurve" smooth="yes"/>
      <point x="215" y="781" type="line" smooth="yes"/>
      <point x="215" y="790"/>
      <point x="222" y="796" type="qcurve" smooth="yes"/>
      <point x="228" y="803"/>
      <point x="238" y="803" type="qcurve" smooth="yes"/>
      <point x="314" y="803" type="line" smooth="yes"/>
      <point x="324" y="803"/>
      <point x="330" y="796" type="qcurve" smooth="yes"/>
      <point x="337" y="790"/>
      <point x="337" y="781" type="qcurve" smooth="yes"/>
      <point x="337" y="705" type="line" smooth="yes"/>
      <point x="337" y="698"/>
      <point x="332" y="690" type="qcurve" smooth="yes"/>
    </contour>
    <contour>
      <point x="292" y="758" type="line"/>
      <point x="260" y="758" type="line"/>
      <point x="260" y="710" type="line"/>
      <point x="276" y="680" type="line"/>
      <point x="292" y="711" type="line"/>
    </contour>
  </outline>
</glyph>
<glyph name="numbersign" format="2">
  <advance width="656"/>
  <unicode hex="0023"/>
  <outline>
    <contour>
      <point x="93" y="515" type="line" smooth="yes"/>
      <point x="76" y="515"/>
      <point x="68" y="526" type="qcurve"/>
      <point x="57" y="534"/>
      <point x="57" y="550" type="qcurve" smooth="yes"/>
      <point x="57" y="565"/>
      <point x="68" y="576" type="qcurve" smooth="yes"/>
      <point x="78" y="586"/>
      <point x="93" y="586" type="qcurve" smooth="yes"/>
      <point x="177" y="586" type="line"/>
      <point x="177" y="789" type="line" smooth="yes"/>
      <point x="177" y="804"/>
      <point x="188" y="815" type="qcurve" smooth="yes"/>
      <point x="197" y="826"/>
      <point x="213" y="826" type="qcurve" smooth="yes"/>
      <point x="227" y="826"/>
      <point x="238" y="815" type="qcurve" smooth="yes"/>
      <point x="248" y="805"/>
      <point x="248" y="789" type="qcurve" smooth="yes"/>
      <point x="248" y="586" type="line"/>
      <point x="416" y="586" type="line"/>
      <point x="416" y="789" type="line" smooth="yes"/>
      <point x="416" y="804"/>
      <point x="426" y="815" type="qcurve" smooth="yes"/>
      <point x="440" y="826"/>
      <point x="464" y="826"/>
      <point x="478" y="815" type="qcurve" smooth="yes"/>
      <point x="488" y="804"/>
      <point x="488" y="789" type="qcurve" smooth="yes"/>
      <point x="488" y="586" type="line"/>
      <point x="563" y="586" type="line" smooth="yes"/>
      <point x="578" y="586"/>
      <point x="589" y="576" type="qcurve" smooth="yes"/>
      <point x="600" y="562"/>
      <point x="600" y="550" type="qcurve" smooth="yes"/>
      <point x="600" y="536"/>
      <point x="589" y="525" type="qcurve" smooth="yes"/>
      <point x="579" y="515"/>
      <point x="563" y="515" type="qcurve" smooth="yes"/>
      <point x="488" y="515" type="line"/>
      <point x="488" y="343" type="line"/>
      <point x="563" y="343" type="line" smooth="yes"/>
      <point x="578" y="343"/>
      <point x="589" y="332" type="qcurve" smooth="yes"/>
      <point x="600" y="323"/>
      <point x="600" y="291"/>
      <point x="589" y="282" type="qcurve" smooth="yes"/>
      <point x="578" y="271"/>
      <point x="563" y="271" type="qcurve" smooth="yes"/>
      <point x="488" y="271" type="line"/>
      <point x="488" y="69" type="line" smooth="yes"/>
      <point x="488" y="54"/>
      <point x="478" y="44" type="qcurve" smooth="yes"/>
      <point x="467" y="33"/>
      <point x="437" y="33"/>
      <point x="426" y="44" type="qcurve" smooth="yes"/>
      <point x="416" y="54"/>
      <point x="416" y="69" type="qcurve" smooth="yes"/>
      <point x="416" y="271" type="line"/>
      <point x="248" y="271" type="line"/>
      <point x="248" y="69" type="line" smooth="yes"/>
      <point x="248" y="53"/>
      <point x="238" y="44" type="qcurve" smooth="yes"/>
      <point x="227" y="33"/>
      <point x="213" y="33" type="qcurve" smooth="yes"/>
      <point x="196" y="33"/>
      <point x="188" y="44" type="qcurve"/>
      <point x="177" y="52"/>
      <point x="177" y="69" type="qcurve" smooth="yes"/>
      <point x="177" y="271" type="line"/>
      <point x="93" y="271" type="line" smooth="yes"/>
      <point x="76" y="271"/>
      <point x="68" y="282" type="qcurve"/>
      <point x="57" y="290"/>
      <point x="57" y="307" type="qcurve" smooth="yes"/>
      <point x="57" y="321"/>
      <point x="68" y="332" type="qcurve" smooth="yes"/>
      <point x="77" y="343"/>
      <point x="93" y="343" type="qcurve" smooth="yes"/>
      <point x="177" y="343" type="line"/>
      <point x="177" y="515" type="line"/>
    </contour>
    <contour>
      <point x="248" y="515" type="line"/>
      <point x="248" y="343" type="line"/>
      <point x="416" y="343" type="line"/>
      <point x="416" y="515" type="line"/>
    </contour>
  </outline>
</glyph>
<glyph name="dollar" format="2">
  <advance width="675"/>
  <unicode hex="0024"/>
  <outline>
    <contour>
      <point x="214" y="364" type="line" smooth="yes"/>
      <point x="199" y="364"/>
      <point x="189" y="374" type="qcurve" smooth="yes"/>
      <point x="68" y="495" type="line" smooth="yes"/>
      <point x="58" y="505"/>
      <point x="57" y="520" type="qcurve" smooth="yes"/>
      <point x="57" y="636" type="line" smooth="yes"/>
      <point x="57" y="652"/>
      <point x="68" y="661" type="qcurve" smooth="yes"/>
      <point x="189" y="782" type="line" smooth="yes"/>
      <point x="199" y="792"/>
      <point x="214" y="792" type="qcurve" smooth="yes"/>
      <point x="305" y="792" type="line"/>
      <point x="305" y="839" type="line" smooth="yes"/>
      <point x="305" y="856"/>
      <point x="316" y="864" type="qcurve"/>
      <point x="324" y="875"/>
      <point x="341" y="875" type="qcurve" smooth="yes"/>
      <point x="355" y="875"/>
      <point x="366" y="864" type="qcurve" smooth="yes"/>
      <point x="376" y="855"/>
      <point x="376" y="839" type="qcurve" smooth="yes"/>
      <point x="376" y="792" type="line"/>
      <point x="455" y="792" type="line" smooth="yes"/>
      <point x="462" y="792"/>
      <point x="465" y="791" type="qcurve" smooth="yes"/>
      <point x="475" y="790"/>
      <point x="485" y="781" type="qcurve" smooth="yes"/>
      <point x="608" y="659" type="line" smooth="yes"/>
      <point x="618" y="649"/>
      <point x="618" y="634" type="qcurve" smooth="yes"/>
      <point x="618" y="621"/>
      <point x="608" y="608" type="qcurve"/>
      <point x="595" y="598"/>
      <point x="582" y="598" type="qcurve" smooth="yes"/>
      <point x="568" y="598"/>
      <point x="557" y="609" type="qcurve" smooth="yes"/>
      <point x="445" y="721" type="line"/>
      <point x="376" y="721" type="line"/>
      <point x="376" y="435" type="line"/>
      <point x="459" y="435" type="line"/>
      <point x="460" y="435" type="line" smooth="yes"/>
      <point x="477" y="435"/>
      <point x="487" y="425" type="qcurve" smooth="yes"/>
      <point x="608" y="304" type="line" smooth="yes"/>
      <point x="619" y="293"/>
      <point x="618" y="278" type="qcurve" smooth="yes"/>
      <point x="618" y="152" type="line" smooth="yes"/>
      <point x="618" y="137"/>
      <point x="608" y="127" type="qcurve" smooth="yes"/>
      <point x="487" y="10" type="line" smooth="yes"/>
      <point x="477" y="0"/>
      <point x="462" y="-1" type="qcurve" smooth="yes"/>
      <point x="376" y="-1" type="line"/>
      <point x="376" y="-85" type="line" smooth="yes"/>
      <point x="376" y="-100"/>
      <point x="356" y="-120"/>
      <point x="341" y="-120" type="qcurve" smooth="yes"/>
      <point x="325" y="-120"/>
      <point x="316" y="-110" type="qcurve" smooth="yes"/>
      <point x="305" y="-99"/>
      <point x="305" y="-85" type="qcurve" smooth="yes"/>
      <point x="305" y="-1" type="line"/>
      <point x="220" y="-1" type="line" smooth="yes"/>
      <point x="210" y="-1"/>
      <point x="202" y="5" type="qcurve" smooth="yes"/>
      <point x="197" y="7"/>
      <point x="191" y="11" type="qcurve" smooth="yes"/>
      <point x="69" y="127" type="line" smooth="yes"/>
      <point x="58" y="138"/>
      <point x="58" y="152" type="qcurve" smooth="yes"/>
      <point x="56" y="166"/>
      <point x="67" y="177" type="qcurve" smooth="yes"/>
      <point x="77" y="187"/>
      <point x="107" y="189"/>
      <point x="118" y="178" type="qcurve" smooth="yes"/>
      <point x="232" y="71" type="line"/>
      <point x="305" y="71" type="line"/>
      <point x="305" y="364" type="line"/>
    </contour>
    <contour>
      <point x="229" y="721" type="line"/>
      <point x="129" y="621" type="line"/>
      <point x="129" y="535" type="line"/>
      <point x="229" y="435" type="line"/>
      <point x="305" y="435" type="line"/>
      <point x="305" y="721" type="line"/>
    </contour>
    <contour>
      <point x="376" y="364" type="line"/>
      <point x="376" y="71" type="line"/>
      <point x="447" y="71" type="line"/>
      <point x="547" y="167" type="line"/>
      <point x="547" y="263" type="line"/>
      <point x="447" y="364" type="line"/>
    </contour>
  </outline>
</glyph>
<glyph name="percent" format="2">
  <advance width="674"/>
  <unicode hex="0025"/>
  <outline>
    <contour>
      <point x="606" y="651" type="qcurve" smooth="yes"/>
      <point x="616" y="644"/>
      <point x="616" y="631" type="qcurve" smooth="yes"/>
      <point x="619" y="619"/>
      <point x="610" y="609" type="qcurve" smooth="yes"/>
      <point x="110" y="11" type="line" smooth="yes"/>
      <point x="102" y="1"/>
      <point x="90" y="0" type="qcurve" smooth="yes"/>
      <point x="80" y="-1"/>
      <point x="68" y="7" type="qcurve" smooth="yes"/>
      <point x="58" y="14"/>
      <point x="58" y="27" type="qcurve" smooth="yes"/>
      <point x="55" y="39"/>
      <point x="64" y="49" type="qcurve" smooth="yes"/>
      <point x="565" y="647" type="line" smooth="yes"/>
      <point x="571" y="655"/>
      <point x="585" y="658" type="qcurve" smooth="yes"/>
      <point x="599" y="658"/>
    </contour>
    <contour>
      <point x="189" y="660" type="line" smooth="yes"/>
      <point x="202" y="660"/>
      <point x="210" y="651" type="qcurve" smooth="yes"/>
      <point x="219" y="642"/>
      <point x="219" y="630" type="qcurve" smooth="yes"/>
      <point x="219" y="535" type="line" smooth="yes"/>
      <point x="219" y="523"/>
      <point x="210" y="514" type="qcurve" smooth="yes"/>
      <point x="199" y="506"/>
      <point x="189" y="506" type="qcurve" smooth="yes"/>
      <point x="89" y="506" type="line" smooth="yes"/>
      <point x="79" y="506"/>
      <point x="68" y="514" type="qcurve"/>
      <point x="60" y="525"/>
      <point x="60" y="535" type="qcurve" smooth="yes"/>
      <point x="60" y="630" type="line" smooth="yes"/>
      <point x="60" y="640"/>
      <point x="68" y="651" type="qcurve" smooth="yes"/>
      <point x="77" y="660"/>
      <point x="89" y="660" type="qcurve" smooth="yes"/>
    </contour>
    <contour>
      <point x="119" y="565" type="line"/>
      <point x="159" y="565" type="line"/>
      <point x="159" y="600" type="line"/>
      <point x="119" y="600" type="line"/>
    </contour>
    <contour>
      <point x="588" y="154" type="line" smooth="yes"/>
      <point x="601" y="154"/>
      <point x="609" y="146" type="qcurve" smooth="yes"/>
      <point x="617" y="135"/>
      <point x="617" y="124" type="qcurve" smooth="yes"/>
      <point x="617" y="30" type="line" smooth="yes"/>
      <point x="617" y="18"/>
      <point x="608" y="10" type="qcurve" smooth="yes"/>
      <point x="600" y="1"/>
      <point x="588" y="1" type="qcurve" smooth="yes"/>
      <point x="488" y="1" type="line" smooth="yes"/>
      <point x="476" y="1"/>
      <point x="467" y="10" type="qcurve" smooth="yes"/>
      <point x="458" y="18"/>
      <point x="458" y="30" type="qcurve" smooth="yes"/>
      <point x="458" y="124" type="line" smooth="yes"/>
      <point x="458" y="136"/>
      <point x="476" y="154"/>
      <point x="488" y="154" type="qcurve" smooth="yes"/>
    </contour>
    <contour>
      <point x="518" y="60" type="line"/>
      <point x="558" y="60" type="line"/>
      <point x="558" y="95" type="line"/>
      <point x="518" y="95" type="line"/>
    </contour>
  </outline>
</glyph>
<glyph name="ampersand" format="2">
  <advance width="656"/>
  <unicode hex="0026"/>
  <outline>
    <contour>
      <point x="449" y="208" type="line"/>
      <point x="539" y="299" type="line" smooth="yes"/>
      <point x="549" y="309"/>
      <point x="579" y="309"/>
      <point x="589" y="299" type="qcurve" smooth="yes"/>
      <point x="600" y="288"/>
      <point x="600" y="260"/>
      <point x="589" y="249" type="qcurve" smooth="yes"/>
      <point x="499" y="157" type="line"/>
      <point x="591" y="66" type="line" smooth="yes"/>
      <point x="601" y="56"/>
      <point x="601" y="41" type="qcurve" smooth="yes"/>
      <point x="601" y="25"/>
      <point x="581" y="5"/>
      <point x="566" y="5" type="qcurve" smooth="yes"/>
      <point x="550" y="5"/>
      <point x="540" y="15" type="qcurve" smooth="yes"/>
      <point x="449" y="107" type="line"/>
      <point x="359" y="16" type="line" smooth="yes"/>
      <point x="348" y="5"/>
      <point x="334" y="5" type="qcurve" smooth="yes"/>
      <point x="212" y="5" type="line" smooth="yes"/>
      <point x="196" y="5"/>
      <point x="186" y="15" type="qcurve" smooth="yes"/>
      <point x="68" y="134" type="line" smooth="yes"/>
      <point x="58" y="144"/>
      <point x="57" y="159" type="qcurve" smooth="yes"/>
      <point x="57" y="277" type="line" smooth="yes"/>
      <point x="57" y="292"/>
      <point x="67" y="302" type="qcurve" smooth="yes"/>
      <point x="159" y="396" type="line"/>
      <point x="68" y="487" type="line" smooth="yes"/>
      <point x="59" y="495"/>
      <point x="57" y="512" type="qcurve" smooth="yes"/>
      <point x="57" y="635" type="line" smooth="yes"/>
      <point x="57" y="650"/>
      <point x="67" y="660" type="qcurve" smooth="yes"/>
      <point x="185" y="785" type="line" smooth="yes"/>
      <point x="195" y="795"/>
      <point x="211" y="797" type="qcurve" smooth="yes"/>
      <point x="225" y="797"/>
      <point x="236" y="786" type="qcurve" smooth="yes"/>
      <point x="360" y="660" type="line" smooth="yes"/>
      <point x="370" y="650"/>
      <point x="370" y="635" type="qcurve" smooth="yes"/>
      <point x="370" y="525" type="line" smooth="yes"/>
      <point x="370" y="510"/>
      <point x="360" y="500" type="qcurve" smooth="yes"/>
      <point x="259" y="396" type="line"/>
    </contour>
    <contour>
      <point x="299" y="539" type="line"/>
      <point x="299" y="621" type="line"/>
      <point x="212" y="710" type="line"/>
      <point x="129" y="621" type="line"/>
      <point x="129" y="527" type="line"/>
      <point x="209" y="447" type="line"/>
    </contour>
    <contour>
      <point x="209" y="346" type="line"/>
      <point x="129" y="263" type="line"/>
      <point x="129" y="174" type="line"/>
      <point x="226" y="76" type="line"/>
      <point x="320" y="76" type="line"/>
      <point x="399" y="157" type="line"/>
    </contour>
  </outline>
</glyph>
<glyph name="asterisk" format="2">
  <advance width="649"/>
  <unicode hex="002A"/>
  <outline>
    <contour>
      <point x="115" y="188" type="line" smooth="yes"/>
      <point x="105" y="178"/>
      <point x="90" y="178" type="qcurve" smooth="yes"/>
      <point x="76" y="178"/>
      <point x="66" y="188" type="qcurve" smooth="yes"/>
      <point x="55" y="199"/>
      <point x="55" y="227"/>
      <point x="66" y="238" type="qcurve" smooth="yes"/>
      <point x="239" y="411" type="line"/>
      <point x="93" y="411" type="line" smooth="yes"/>
      <point x="76" y="411"/>
      <point x="68" y="422" type="qcurve"/>
      <point x="57" y="430"/>
      <point x="57" y="446" type="qcurve" smooth="yes"/>
      <point x="57" y="461"/>
      <point x="68" y="472" type="qcurve" smooth="yes"/>
      <point x="78" y="482"/>
      <point x="93" y="482" type="qcurve" smooth="yes"/>
      <point x="239" y="482" type="line"/>
      <point x="66" y="654" type="line" smooth="yes"/>
      <point x="56" y="664"/>
      <point x="56" y="694"/>
      <point x="76" y="714"/>
      <point x="92" y="714" type="qcurve" smooth="yes"/>
      <point x="106" y="714"/>
      <point x="116" y="704" type="qcurve" smooth="yes"/>
      <point x="289" y="531" type="line"/>
      <point x="289" y="680" type="line" smooth="yes"/>
      <point x="289" y="695"/>
      <point x="309" y="715"/>
      <point x="324" y="715" type="qcurve" smooth="yes"/>
      <point x="338" y="715"/>
      <point x="349" y="704" type="qcurve" smooth="yes"/>
      <point x="359" y="695"/>
      <point x="359" y="680" type="qcurve" smooth="yes"/>
      <point x="359" y="531" type="line"/>
      <point x="532" y="705" type="line" smooth="yes"/>
      <point x="542" y="715"/>
      <point x="557" y="715" type="qcurve" smooth="yes"/>
      <point x="574" y="715"/>
      <point x="582" y="704" type="qcurve"/>
      <point x="593" y="696"/>
      <point x="593" y="680" type="qcurve" smooth="yes"/>
      <point x="593" y="666"/>
      <point x="582" y="655" type="qcurve" smooth="yes"/>
      <point x="409" y="482" type="line"/>
      <point x="557" y="482" type="line" smooth="yes"/>
      <point x="571" y="482"/>
      <point x="582" y="472" type="qcurve" smooth="yes"/>
      <point x="593" y="458"/>
      <point x="593" y="446" type="qcurve" smooth="yes"/>
      <point x="593" y="430"/>
      <point x="582" y="422" type="qcurve"/>
      <point x="574" y="411"/>
      <point x="557" y="411" type="qcurve" smooth="yes"/>
      <point x="409" y="411" type="line"/>
      <point x="581" y="239" type="line" smooth="yes"/>
      <point x="591" y="229"/>
      <point x="592" y="214" type="qcurve" smooth="yes"/>
      <point x="592" y="201"/>
      <point x="582" y="188" type="qcurve"/>
      <point x="569" y="178"/>
      <point x="556" y="178" type="qcurve" smooth="yes"/>
      <point x="542" y="178"/>
      <point x="531" y="189" type="qcurve" smooth="yes"/>
      <point x="359" y="361" type="line"/>
      <point x="359" y="213" type="line" smooth="yes"/>
      <point x="359" y="198"/>
      <point x="349" y="188" type="qcurve" smooth="yes"/>
      <point x="338" y="177"/>
      <point x="324" y="177" type="qcurve" smooth="yes"/>
      <point x="308" y="177"/>
      <point x="300" y="188" type="qcurve"/>
      <point x="289" y="196"/>
      <point x="289" y="213" type="qcurve" smooth="yes"/>
      <point x="289" y="361" type="line"/>
    </contour>
  </outline>
</glyph>
<glyph name="slash" format="2">
  <advance width="670"/>
  <unicode hex="002F"/>
  <outline>
    <contour>
      <point x="598" y="788" type="qcurve" smooth="yes"/>
      <point x="610" y="780"/>
      <point x="613" y="766" type="qcurve" smooth="yes"/>
      <point x="616" y="753"/>
      <point x="608" y="739" type="qcurve" smooth="yes"/>
      <point x="123" y="17" type="line" smooth="yes"/>
      <point x="115" y="5"/>
      <point x="100" y="2" type="qcurve" smooth="yes"/>
      <point x="87" y="-1"/>
      <point x="73" y="7" type="qcurve" smooth="yes"/>
      <point x="61" y="15"/>
      <point x="58" y="30" type="qcurve" smooth="yes"/>
      <point x="55" y="44"/>
      <point x="64" y="56" type="qcurve" smooth="yes"/>
      <point x="548" y="779" type="line" smooth="yes"/>
      <point x="556" y="793"/>
      <point x="571" y="794" type="qcurve" smooth="yes"/>
      <point x="586" y="796"/>
    </contour>
  </outline>
</glyph>
<glyph name="zero" format="2">
  <advance width="674"/>
  <unicode hex="0030"/>
  <outline>
    <contour>
      <point x="57" y="162" type="qcurve" smooth="yes"/>
      <point x="57" y="642" type="line" smooth="yes"/>
      <point x="57" y="656"/>
      <point x="68" y="667" type="qcurve" smooth="yes"/>
      <point x="193" y="791" type="line" smooth="yes"/>
      <point x="203" y="801"/>
      <point x="218" y="802" type="qcurve" smooth="yes"/>
      <point x="460" y="802" type="line" smooth="yes"/>
      <point x="474" y="802"/>
      <point x="485" y="791" type="qcurve" smooth="yes"/>
      <point x="606" y="670" type="line"/>
      <point x="607" y="670" type="line"/>
      <point x="611" y="665"/>
      <point x="614" y="659" type="qcurve" smooth="yes"/>
      <point x="617" y="652"/>
      <point x="617" y="645" type="qcurve" smooth="yes"/>
      <point x="617" y="162" type="line" smooth="yes"/>
      <point x="617" y="155"/>
      <point x="614" y="149" type="qcurve" smooth="yes"/>
      <point x="612" y="147"/>
      <point x="612" y="144" type="qcurve"/>
      <point x="611" y="144"/>
      <point x="609" y="140"/>
      <point x="608" y="140" type="qcurve"/>
      <point x="608" y="139"/>
      <point x="606" y="137" type="qcurve" smooth="yes"/>
      <point x="485" y="18" type="line" smooth="yes"/>
      <point x="475" y="8"/>
      <point x="460" y="9" type="qcurve" smooth="yes"/>
      <point x="218" y="9" type="line" smooth="yes"/>
      <point x="204" y="9"/>
      <point x="193" y="18" type="qcurve" smooth="yes"/>
      <point x="68" y="137" type="line" smooth="yes"/>
      <point x="62" y="143"/>
      <point x="59" y="154" type="qcurve" smooth="yes"/>
      <point x="57" y="156"/>
    </contour>
    <contour>
      <point x="445" y="730" type="qcurve" smooth="yes"/>
      <point x="233" y="730" type="line"/>
      <point x="129" y="628" type="line"/>
      <point x="129" y="247" type="line"/>
      <point x="531" y="645" type="line"/>
      <point x="500" y="676" type="line" smooth="yes"/>
      <point x="491" y="685"/>
      <point x="469" y="706"/>
      <point x="467" y="708" type="qcurve" smooth="yes"/>
      <point x="460" y="715"/>
      <point x="458" y="718" type="qcurve" smooth="yes"/>
      <point x="456" y="719"/>
      <point x="453" y="722"/>
      <point x="451" y="725"/>
      <point x="450" y="726" type="qcurve" smooth="yes"/>
      <point x="447" y="728"/>
    </contour>
    <contour>
      <point x="546" y="560" type="line"/>
      <point x="144" y="163" type="line"/>
      <point x="232" y="79" type="line"/>
      <point x="445" y="79" type="line"/>
      <point x="546" y="177" type="line"/>
    </contour>
  </outline>
</glyph>
<glyph name="two" format="2">
  <advance width="674"/>
  <unicode hex="0032"/>
  <outline>
    <contour>
      <point x="70" y="618" type="qcurve" smooth="yes"/>
      <point x="60" y="628"/>
      <point x="60" y="656"/>
      <point x="71" y="667" type="qcurve" smooth="yes"/>
      <point x="188" y="785" type="line" smooth="yes"/>
      <point x="198" y="795"/>
      <point x="213" y="795" type="qcurve" smooth="yes"/>
      <point x="454" y="795" type="line" smooth="yes"/>
      <point x="468" y="795"/>
      <point x="479" y="786" type="qcurve" smooth="yes"/>
      <point x="606" y="668" type="line" smooth="yes"/>
      <point x="617" y="657"/>
      <point x="618" y="642" type="qcurve" smooth="yes"/>
      <point x="618" y="531" type="line" smooth="yes"/>
      <point x="618" y="515"/>
      <point x="608" y="505" type="qcurve" smooth="yes"/>
      <point x="178" y="73" type="line"/>
      <point x="582" y="73" type="line" smooth="yes"/>
      <point x="597" y="73"/>
      <point x="608" y="62" type="qcurve" smooth="yes"/>
      <point x="618" y="52"/>
      <point x="618" y="37" type="qcurve" smooth="yes"/>
      <point x="618" y="25"/>
      <point x="608" y="12" type="qcurve"/>
      <point x="595" y="2"/>
      <point x="582" y="2" type="qcurve" smooth="yes"/>
      <point x="93" y="2" type="line" smooth="yes"/>
      <point x="69" y="2"/>
      <point x="51" y="46"/>
      <point x="68" y="63" type="qcurve" smooth="yes"/>
      <point x="547" y="545" type="line"/>
      <point x="547" y="627" type="line"/>
      <point x="441" y="724" type="line"/>
      <point x="228" y="724" type="line"/>
      <point x="121" y="617" type="line" smooth="yes"/>
      <point x="111" y="607"/>
      <point x="81" y="607"/>
    </contour>
  </outline>
</glyph>
<glyph name="nine" format="2">
  <advance width="674"/>
  <unicode hex="0039"/>
  <outline>
    <contour>
      <point x="546" y="177" type="line"/>
      <point x="546" y="368" type="line"/>
      <point x="224" y="368" type="line" smooth="yes"/>
      <point x="208" y="368"/>
      <point x="199" y="378" type="qcurve" smooth="yes"/>
      <point x="68" y="505" type="line" smooth="yes"/>
      <point x="58" y="514"/>
      <point x="57" y="531" type="qcurve" smooth="yes"/>
      <point x="57" y="632" type="line" smooth="yes"/>
      <point x="57" y="648"/>
      <point x="69" y="658" type="qcurve" smooth="yes"/>
      <point x="209" y="789" type="line" smooth="yes"/>
      <point x="219" y="799"/>
      <point x="234" y="799" type="qcurve" smooth="yes"/>
      <point x="448" y="799" type="line" smooth="yes"/>
      <point x="463" y="799"/>
      <point x="473" y="789" type="qcurve" smooth="yes"/>
      <point x="606" y="657" type="line" smooth="yes"/>
      <point x="616" y="647"/>
      <point x="617" y="632" type="qcurve" smooth="yes"/>
      <point x="617" y="162" type="line" smooth="yes"/>
      <point x="617" y="148"/>
      <point x="606" y="137" type="qcurve" smooth="yes"/>
      <point x="482" y="17" type="line" smooth="yes"/>
      <point x="477" y="12"/>
      <point x="470" y="9" type="qcurve" smooth="yes"/>
      <point x="462" y="6"/>
      <point x="457" y="6" type="qcurve" smooth="yes"/>
      <point x="211" y="6" type="line" smooth="yes"/>
      <point x="196" y="6"/>
      <point x="185" y="17" type="qcurve" smooth="yes"/>
      <point x="67" y="139" type="line" smooth="yes"/>
      <point x="57" y="149"/>
      <point x="58" y="164" type="qcurve" smooth="yes"/>
      <point x="58" y="178"/>
      <point x="78" y="198"/>
      <point x="94" y="198" type="qcurve" smooth="yes"/>
      <point x="109" y="198"/>
      <point x="119" y="188" type="qcurve" smooth="yes"/>
      <point x="226" y="77" type="line"/>
      <point x="442" y="77" type="line"/>
    </contour>
    <contour>
      <point x="546" y="618" type="line"/>
      <point x="433" y="729" type="line"/>
      <point x="248" y="728" type="line"/>
      <point x="129" y="617" type="line"/>
      <point x="129" y="545" type="line"/>
      <point x="238" y="438" type="line"/>
      <point x="546" y="438" type="line"/>
    </contour>
  </outline>
</glyph>
<glyph name="semicolon" format="2">
  <advance width="331"/>
  <unicode hex="003B"/>
  <outline>
    <contour>
      <point x="162" y="178" type="line" smooth="yes"/>
      <point x="152" y="178"/>
      <point x="144" y="186" type="qcurve" smooth="yes"/>
      <point x="137" y="193"/>
      <point x="137" y="203" type="qcurve" smooth="yes"/>
      <point x="137" y="288" type="line" smooth="yes"/>
      <point x="137" y="296"/>
      <point x="144" y="306" type="qcurve"/>
      <point x="154" y="313"/>
      <point x="162" y="313" type="qcurve" smooth="yes"/>
      <point x="248" y="313" type="line" smooth="yes"/>
      <point x="258" y="313"/>
      <point x="266" y="306" type="qcurve" smooth="yes"/>
      <point x="274" y="295"/>
      <point x="274" y="288" type="qcurve" smooth="yes"/>
      <point x="274" y="203" type="line" smooth="yes"/>
      <point x="274" y="193"/>
      <point x="266" y="185" type="qcurve" smooth="yes"/>
      <point x="93" y="12" type="line" smooth="yes"/>
      <point x="86" y="5"/>
      <point x="76" y="5" type="qcurve" smooth="yes"/>
      <point x="65" y="5"/>
      <point x="58" y="12" type="qcurve" smooth="yes"/>
      <point x="50" y="20"/>
      <point x="50" y="30" type="qcurve" smooth="yes"/>
      <point x="50" y="41"/>
      <point x="57" y="48" type="qcurve" smooth="yes"/>
      <point x="188" y="178" type="line"/>
    </contour>
    <contour>
      <point x="223" y="263" type="line"/>
      <point x="188" y="263" type="line"/>
      <point x="188" y="228" type="line"/>
      <point x="223" y="228" type="line"/>
    </contour>
    <contour>
      <point x="248" y="416" type="qcurve" smooth="yes"/>
      <point x="162" y="416" type="line" smooth="yes"/>
      <point x="152" y="416"/>
      <point x="144" y="424" type="qcurve" smooth="yes"/>
      <point x="137" y="431"/>
      <point x="137" y="441" type="qcurve" smooth="yes"/>
      <point x="137" y="527" type="line" smooth="yes"/>
      <point x="137" y="537"/>
      <point x="144" y="544" type="qcurve" smooth="yes"/>
      <point x="152" y="552"/>
      <point x="162" y="552" type="qcurve" smooth="yes"/>
      <point x="248" y="552" type="line" smooth="yes"/>
      <point x="258" y="552"/>
      <point x="266" y="544" type="qcurve" smooth="yes"/>
      <point x="274" y="538"/>
      <point x="274" y="527" type="qcurve" smooth="yes"/>
      <point x="274" y="441" type="line" smooth="yes"/>
      <point x="274" y="430"/>
      <point x="266" y="424" type="qcurve" smooth="yes"/>
      <point x="258" y="416"/>
    </contour>
    <contour>
      <point x="223" y="501" type="line"/>
      <point x="188" y="501" type="line"/>
      <point x="188" y="466" type="line"/>
      <point x="223" y="466" type="line"/>
    </contour>
  </outline>
</glyph>
<glyph name="less" format="2">
  <advance width="650"/>
  <unicode hex="003C"/>
  <outline>
    <contour>
      <point x="586" y="780" type="qcurve" smooth="yes"/>
      <point x="594" y="769"/>
      <point x="594" y="754" type="qcurve" smooth="yes"/>
      <point x="591" y="738"/>
      <point x="580" y="730" type="qcurve" smooth="yes"/>
      <point x="152" y="398" type="line"/>
      <point x="580" y="67" type="line" smooth="yes"/>
      <point x="591" y="56"/>
      <point x="594" y="43" type="qcurve" smooth="yes"/>
      <point x="596" y="26"/>
      <point x="586" y="16" type="qcurve" smooth="yes"/>
      <point x="576" y="5"/>
      <point x="562" y="3" type="qcurve" smooth="yes"/>
      <point x="546" y="2"/>
      <point x="536" y="10" type="qcurve" smooth="yes"/>
      <point x="71" y="369" type="line" smooth="yes"/>
      <point x="57" y="380"/>
      <point x="57" y="416"/>
      <point x="71" y="427" type="qcurve" smooth="yes"/>
      <point x="536" y="787" type="line" smooth="yes"/>
      <point x="546" y="795"/>
      <point x="562" y="794" type="qcurve" smooth="yes"/>
      <point x="575" y="791"/>
    </contour>
  </outline>
</glyph>
<glyph name="question" format="2">
  <advance width="715"/>
  <unicode hex="003F"/>
  <outline>
    <contour>
      <point x="65" y="651" type="qcurve" smooth="yes"/>
      <point x="54" y="663"/>
      <point x="64" y="693"/>
      <point x="77" y="705" type="qcurve" smooth="yes"/>
      <point x="217" y="850" type="line" smooth="yes"/>
      <point x="228" y="861"/>
      <point x="244" y="861" type="qcurve" smooth="yes"/>
      <point x="479" y="861" type="line" smooth="yes"/>
      <point x="493" y="861"/>
      <point x="507" y="850" type="qcurve" smooth="yes"/>
      <point x="647" y="709" type="line" smooth="yes"/>
      <point x="658" y="698"/>
      <point x="658" y="682" type="qcurve" smooth="yes"/>
      <point x="658" y="556" type="line" smooth="yes"/>
      <point x="658" y="543"/>
      <point x="647" y="529" type="qcurve" smooth="yes"/>
      <point x="395" y="275" type="line"/>
      <point x="395" y="218" type="line" smooth="yes"/>
      <point x="395" y="202"/>
      <point x="373" y="180"/>
      <point x="341" y="180"/>
      <point x="330" y="191" type="qcurve" smooth="yes"/>
      <point x="318" y="202"/>
      <point x="318" y="218" type="qcurve" smooth="yes"/>
      <point x="318" y="291" type="line" smooth="yes"/>
      <point x="318" y="307"/>
      <point x="329" y="318" type="qcurve" smooth="yes"/>
      <point x="581" y="572" type="line"/>
      <point x="581" y="666" type="line"/>
      <point x="463" y="784" type="line"/>
      <point x="260" y="784" type="line"/>
      <point x="127" y="651" type="line" smooth="yes"/>
      <point x="116" y="640"/>
      <point x="76" y="640"/>
    </contour>
    <contour>
      <point x="399" y="1" type="qcurve" smooth="yes"/>
      <point x="306" y="1" type="line" smooth="yes"/>
      <point x="296" y="1"/>
      <point x="286" y="8" type="qcurve" smooth="yes"/>
      <point x="278" y="19"/>
      <point x="278" y="28" type="qcurve" smooth="yes"/>
      <point x="278" y="120" type="line" smooth="yes"/>
      <point x="278" y="131"/>
      <point x="294" y="147"/>
      <point x="306" y="147" type="qcurve" smooth="yes"/>
      <point x="399" y="147" type="line" smooth="yes"/>
      <point x="410" y="147"/>
      <point x="426" y="131"/>
      <point x="426" y="120" type="qcurve" smooth="yes"/>
      <point x="426" y="28" type="line" smooth="yes"/>
      <point x="426" y="17"/>
      <point x="410" y="1"/>
    </contour>
    <contour>
      <point x="372" y="93" type="line"/>
      <point x="333" y="93" type="line"/>
      <point x="333" y="55" type="line"/>
      <point x="372" y="55" type="line"/>
    </contour>
  </outline>
</glyph>
<glyph name="A" format="2">
  <advance width="674"/>
  <unicode hex="0041"/>
  <outline>
    <contour>
      <point x="129" y="40" type="line" smooth="yes"/>
      <point x="129" y="26"/>
      <point x="118" y="15" type="qcurve" smooth="yes"/>
      <point x="109" y="5"/>
      <point x="94" y="5" type="qcurve" smooth="yes"/>
      <point x="78" y="5"/>
      <point x="68" y="15" type="qcurve" smooth="yes"/>
      <point x="57" y="26"/>
      <point x="57" y="40" type="qcurve" smooth="yes"/>
      <point x="57" y="517" type="line" smooth="yes"/>
      <point x="57" y="531"/>
      <point x="68" y="542" type="qcurve" smooth="yes"/>
      <point x="312" y="787" type="line" smooth="yes"/>
      <point x="323" y="798"/>
      <point x="338" y="797" type="qcurve" smooth="yes"/>
      <point x="353" y="797"/>
      <point x="363" y="787" type="qcurve" smooth="yes"/>
      <point x="608" y="538" type="line" smooth="yes"/>
      <point x="618" y="528"/>
      <point x="618" y="513" type="qcurve" smooth="yes"/>
      <point x="618" y="40" type="line" smooth="yes"/>
      <point x="618" y="26"/>
      <point x="608" y="15" type="qcurve" smooth="yes"/>
      <point x="598" y="5"/>
      <point x="566" y="5"/>
      <point x="556" y="15" type="qcurve" smooth="yes"/>
      <point x="546" y="26"/>
      <point x="546" y="40" type="qcurve" smooth="yes"/>
      <point x="546" y="365" type="line"/>
      <point x="129" y="365" type="line"/>
    </contour>
    <contour>
      <point x="550" y="499" type="line"/>
      <point x="341" y="711" type="line"/>
      <point x="133" y="502" type="line"/>
      <point x="133" y="437" type="line"/>
      <point x="550" y="437" type="line"/>
    </contour>
  </outline>
</glyph>
<glyph name="B" format="2">
  <advance width="674"/>
  <unicode hex="0042"/>
  <outline>
    <contour>
      <point x="459" y="797" type="line" smooth="yes"/>
      <point x="474" y="797"/>
      <point x="484" y="787" type="qcurve" smooth="yes"/>
      <point x="607" y="664" type="line" smooth="yes"/>
      <point x="617" y="654"/>
      <point x="617" y="639" type="qcurve" smooth="yes"/>
      <point x="617" y="520" type="line" smooth="yes"/>
      <point x="617" y="506"/>
      <point x="606" y="495" type="qcurve" smooth="yes"/>
      <point x="509" y="400" type="line"/>
      <point x="607" y="304" type="line" smooth="yes"/>
      <point x="617" y="294"/>
      <point x="617" y="279" type="qcurve" smooth="yes"/>
      <point x="617" y="158" type="line" smooth="yes"/>
      <point x="617" y="144"/>
      <point x="606" y="133" type="qcurve" smooth="yes"/>
      <point x="484" y="14" type="line" smooth="yes"/>
      <point x="473" y="3"/>
      <point x="459" y="5" type="qcurve" smooth="yes"/>
      <point x="93" y="5" type="line" smooth="yes"/>
      <point x="77" y="5"/>
      <point x="68" y="15" type="qcurve" smooth="yes"/>
      <point x="57" y="26"/>
      <point x="57" y="40" type="qcurve" smooth="yes"/>
      <point x="57" y="762" type="line" smooth="yes"/>
      <point x="57" y="776"/>
      <point x="68" y="787" type="qcurve" smooth="yes"/>
      <point x="77" y="797"/>
      <point x="93" y="797" type="qcurve" smooth="yes"/>
    </contour>
    <contour>
      <point x="544" y="541" type="line"/>
      <point x="544" y="629" type="line"/>
      <point x="442" y="732" type="line"/>
      <point x="127" y="732" type="line"/>
      <point x="127" y="442" type="line"/>
      <point x="442" y="442" type="line"/>
    </contour>
    <contour>
      <point x="127" y="81" type="line"/>
      <point x="442" y="81" type="line"/>
      <point x="544" y="180" type="line"/>
      <point x="544" y="270" type="line"/>
      <point x="442" y="371" type="line"/>
      <point x="127" y="371" type="line"/>
    </contour>
  </outline>
</glyph>
<glyph name="D" format="2">
  <advance width="674"/>
  <unicode hex="0044"/>
  <outline>
    <contour>
      <point x="459" y="801" type="line" smooth="yes"/>
      <point x="474" y="801"/>
      <point x="484" y="791" type="qcurve" smooth="yes"/>
      <point x="607" y="667" type="line" smooth="yes"/>
      <point x="617" y="657"/>
      <point x="617" y="642" type="qcurve" smooth="yes"/>
      <point x="617" y="162" type="line" smooth="yes"/>
      <point x="617" y="147"/>
      <point x="607" y="137" type="qcurve" smooth="yes"/>
      <point x="484" y="18" type="line" smooth="yes"/>
      <point x="474" y="8"/>
      <point x="459" y="8" type="qcurve" smooth="yes"/>
      <point x="93" y="8" type="line" smooth="yes"/>
      <point x="78" y="8"/>
      <point x="68" y="18" type="qcurve" smooth="yes"/>
      <point x="57" y="29"/>
      <point x="57" y="44" type="qcurve" smooth="yes"/>
      <point x="57" y="765" type="line" smooth="yes"/>
      <point x="57" y="782"/>
      <point x="68" y="790" type="qcurve"/>
      <point x="76" y="801"/>
      <point x="93" y="801" type="qcurve" smooth="yes"/>
    </contour>
    <contour>
      <point x="129" y="79" type="line"/>
      <point x="445" y="79" type="line"/>
      <point x="546" y="177" type="line"/>
      <point x="546" y="628" type="line"/>
      <point x="444" y="730" type="line"/>
      <point x="129" y="730" type="line"/>
    </contour>
  </outline>
</glyph>
<glyph name="E" format="2">
  <advance width="674"/>
  <unicode hex="0045"/>
  <outline>
    <contour>
      <point x="128" y="73" type="line"/>
      <point x="582" y="73" type="line" smooth="yes"/>
      <point x="597" y="73"/>
      <point x="617" y="53"/>
      <point x="617" y="38" type="qcurve" smooth="yes"/>
      <point x="617" y="22"/>
      <point x="607" y="12" type="qcurve" smooth="yes"/>
      <point x="596" y="2"/>
      <point x="582" y="2" type="qcurve" smooth="yes"/>
      <point x="93" y="2" type="line" smooth="yes"/>
      <point x="78" y="2"/>
      <point x="68" y="12" type="qcurve" smooth="yes"/>
      <point x="57" y="23"/>
      <point x="57" y="38" type="qcurve" smooth="yes"/>
      <point x="57" y="760" type="line" smooth="yes"/>
      <point x="57" y="774"/>
      <point x="68" y="785" type="qcurve" smooth="yes"/>
      <point x="77" y="795"/>
      <point x="93" y="795" type="qcurve" smooth="yes"/>
      <point x="582" y="795" type="line" smooth="yes"/>
      <point x="597" y="795"/>
      <point x="617" y="775"/>
      <point x="617" y="760" type="qcurve" smooth="yes"/>
      <point x="617" y="744"/>
      <point x="607" y="734" type="qcurve" smooth="yes"/>
      <point x="596" y="724"/>
      <point x="582" y="724" type="qcurve" smooth="yes"/>
      <point x="128" y="724" type="line"/>
      <point x="128" y="434" type="line"/>
      <point x="340" y="434" type="line" smooth="yes"/>
      <point x="354" y="434"/>
      <point x="365" y="424" type="qcurve" smooth="yes"/>
      <point x="375" y="414"/>
      <point x="375" y="399" type="qcurve" smooth="yes"/>
      <point x="375" y="383"/>
      <point x="365" y="374" type="qcurve" smooth="yes"/>
      <point x="354" y="363"/>
      <point x="340" y="363" type="qcurve" smooth="yes"/>
      <point x="128" y="363" type="line"/>
    </contour>
  </outline>
</glyph>
<glyph name="G" format="2">
  <advance width="672"/>
  <unicode hex="0047"/>
  <outline>
    <contour>
      <point x="606" y="131" type="qcurve" smooth="yes"/>
      <point x="486" y="13" type="line" smooth="yes"/>
      <point x="475" y="3"/>
      <point x="460" y="2" type="qcurve" smooth="yes"/>
      <point x="216" y="2" type="line" smooth="yes"/>
      <point x="202" y="2"/>
      <point x="192" y="12" type="qcurve" smooth="yes"/>
      <point x="68" y="130" type="line" smooth="yes"/>
      <point x="57" y="141"/>
      <point x="57" y="156" type="qcurve" smooth="yes"/>
      <point x="57" y="636" type="line" smooth="yes"/>
      <point x="57" y="651"/>
      <point x="68" y="662" type="qcurve" smooth="yes"/>
      <point x="191" y="785" type="line" smooth="yes"/>
      <point x="201" y="795"/>
      <point x="216" y="795" type="qcurve" smooth="yes"/>
      <point x="460" y="795" type="line" smooth="yes"/>
      <point x="476" y="795"/>
      <point x="485" y="785" type="qcurve" smooth="yes"/>
      <point x="528" y="742"/>
      <point x="555" y="714" type="qcurve" smooth="yes"/>
      <point x="567" y="702"/>
      <point x="588" y="681"/>
      <point x="604" y="665"/>
      <point x="605" y="664" type="qcurve" smooth="yes"/>
      <point x="615" y="654"/>
      <point x="616" y="639" type="qcurve" smooth="yes"/>
      <point x="616" y="624"/>
      <point x="594" y="602"/>
      <point x="580" y="604" type="qcurve" smooth="yes"/>
      <point x="565" y="604"/>
      <point x="555" y="614" type="qcurve" smooth="yes"/>
      <point x="445" y="724" type="line"/>
      <point x="231" y="724" type="line"/>
      <point x="129" y="621" type="line"/>
      <point x="129" y="172" type="line"/>
      <point x="231" y="73" type="line"/>
      <point x="445" y="73" type="line"/>
      <point x="545" y="171" type="line"/>
      <point x="545" y="363" type="line"/>
      <point x="340" y="363" type="line" smooth="yes"/>
      <point x="325" y="363"/>
      <point x="314" y="374" type="qcurve" smooth="yes"/>
      <point x="304" y="384"/>
      <point x="304" y="399" type="qcurve" smooth="yes"/>
      <point x="304" y="413"/>
      <point x="314" y="424" type="qcurve" smooth="yes"/>
      <point x="324" y="434"/>
      <point x="340" y="434" type="qcurve" smooth="yes"/>
      <point x="581" y="434" type="line" smooth="yes"/>
      <point x="595" y="434"/>
      <point x="606" y="424" type="qcurve" smooth="yes"/>
      <point x="616" y="414"/>
      <point x="616" y="399" type="qcurve" smooth="yes"/>
      <point x="616" y="156" type="line" smooth="yes"/>
      <point x="616" y="150"/>
      <point x="613" y="143" type="qcurve" smooth="yes"/>
      <point x="611" y="136"/>
    </contour>
  </outline>
</glyph>
<glyph name="H" format="2">
  <advance width="674"/>
  <unicode hex="0048"/>
  <outline>
    <contour>
      <point x="57" y="757" type="line" smooth="yes"/>
      <point x="57" y="774"/>
      <point x="68" y="782" type="qcurve"/>
      <point x="76" y="793"/>
      <point x="110" y="793"/>
      <point x="118" y="782" type="qcurve"/>
      <point x="129" y="774"/>
      <point x="129" y="757" type="qcurve" smooth="yes"/>
      <point x="129" y="433" type="line"/>
      <point x="546" y="433" type="line"/>
      <point x="546" y="757" type="line" smooth="yes"/>
      <point x="546" y="772"/>
      <point x="556" y="782" type="qcurve" smooth="yes"/>
      <point x="567" y="793"/>
      <point x="582" y="793" type="qcurve" smooth="yes"/>
      <point x="596" y="793"/>
      <point x="607" y="782" type="qcurve" smooth="yes"/>
      <point x="617" y="773"/>
      <point x="617" y="757" type="qcurve" smooth="yes"/>
      <point x="617" y="37" type="line" smooth="yes"/>
      <point x="617" y="21"/>
      <point x="607" y="12" type="qcurve" smooth="yes"/>
      <point x="596" y="1"/>
      <point x="582" y="1" type="qcurve" smooth="yes"/>
      <point x="567" y="1"/>
      <point x="556" y="12" type="qcurve" smooth="yes"/>
      <point x="546" y="22"/>
      <point x="546" y="37" type="qcurve" smooth="yes"/>
      <point x="546" y="361" type="line"/>
      <point x="129" y="361" type="line"/>
      <point x="129" y="37" type="line" smooth="yes"/>
      <point x="129" y="20"/>
      <point x="118" y="12" type="qcurve"/>
      <point x="110" y="1"/>
      <point x="76" y="1"/>
      <point x="68" y="12" type="qcurve"/>
      <point x="57" y="20"/>
      <point x="57" y="37" type="qcurve" smooth="yes"/>
    </contour>
  </outline>
</glyph>
<glyph name="I" format="2">
  <advance width="424"/>
  <unicode hex="0049"/>
  <outline>
    <contour>
      <point x="93" y="724" type="line" smooth="yes"/>
      <point x="78" y="724"/>
      <point x="68" y="734" type="qcurve" smooth="yes"/>
      <point x="57" y="745"/>
      <point x="57" y="760" type="qcurve" smooth="yes"/>
      <point x="57" y="774"/>
      <point x="68" y="785" type="qcurve" smooth="yes"/>
      <point x="77" y="795"/>
      <point x="93" y="795" type="qcurve" smooth="yes"/>
      <point x="212" y="795" type="line"/>
      <point x="215" y="795" type="line"/>
      <point x="217" y="795" type="line"/>
      <point x="332" y="795" type="line" smooth="yes"/>
      <point x="347" y="795"/>
      <point x="367" y="775"/>
      <point x="367" y="760" type="qcurve" smooth="yes"/>
      <point x="367" y="744"/>
      <point x="357" y="734" type="qcurve" smooth="yes"/>
      <point x="346" y="724"/>
      <point x="332" y="724" type="qcurve" smooth="yes"/>
      <point x="250" y="724" type="line"/>
      <point x="250" y="73" type="line"/>
      <point x="332" y="73" type="line" smooth="yes"/>
      <point x="347" y="73"/>
      <point x="367" y="53"/>
      <point x="367" y="38" type="qcurve" smooth="yes"/>
      <point x="367" y="22"/>
      <point x="357" y="12" type="qcurve" smooth="yes"/>
      <point x="346" y="2"/>
      <point x="332" y="2" type="qcurve" smooth="yes"/>
      <point x="93" y="2" type="line" smooth="yes"/>
      <point x="78" y="2"/>
      <point x="68" y="12" type="qcurve" smooth="yes"/>
      <point x="57" y="23"/>
      <point x="57" y="38" type="qcurve" smooth="yes"/>
      <point x="57" y="52"/>
      <point x="68" y="63" type="qcurve" smooth="yes"/>
      <point x="77" y="73"/>
      <point x="93" y="73" type="qcurve" smooth="yes"/>
      <point x="179" y="73" type="line"/>
      <point x="179" y="724" type="line"/>
    </contour>
  </outline>
</glyph>
<glyph name="L" format="2">
  <advance width="674"/>
  <unicode hex="004C"/>
  <outline>
    <contour>
      <point x="57" y="760" type="line" smooth="yes"/>
      <point x="57" y="774"/>
      <point x="68" y="785" type="qcurve" smooth="yes"/>
      <point x="77" y="795"/>
      <point x="109" y="795"/>
      <point x="118" y="785" type="qcurve" smooth="yes"/>
      <point x="129" y="774"/>
      <point x="129" y="760" type="qcurve" smooth="yes"/>
      <point x="129" y="73" type="line"/>
      <point x="582" y="73" type="line" smooth="yes"/>
      <point x="597" y="73"/>
      <point x="617" y="53"/>
      <point x="617" y="38" type="qcurve" smooth="yes"/>
      <point x="617" y="22"/>
      <point x="607" y="12" type="qcurve" smooth="yes"/>
      <point x="596" y="2"/>
      <point x="582" y="2" type="qcurve" smooth="yes"/>
      <point x="93" y="2" type="line" smooth="yes"/>
      <point x="78" y="2"/>
      <point x="68" y="12" type="qcurve" smooth="yes"/>
      <point x="57" y="23"/>
      <point x="57" y="38" type="qcurve" smooth="yes"/>
    </contour>
  </outline>
</glyph>
<glyph name="M" format="2">
  <advance width="674"/>
  <unicode hex="004D"/>
  <outline>
    <contour>
      <point x="78" y="2"/>
      <point x="68" y="12" type="qcurve" smooth="yes"/>
      <point x="57" y="23"/>
      <point x="57" y="38" type="qcurve" smooth="yes"/>
      <point x="57" y="760" type="line" smooth="yes"/>
      <point x="57" y="784"/>
      <point x="101" y="802"/>
      <point x="118" y="785" type="qcurve" smooth="yes"/>
      <point x="337" y="569" type="line"/>
      <point x="557" y="785" type="line" smooth="yes"/>
      <point x="574" y="802"/>
      <point x="618" y="784"/>
      <point x="618" y="760" type="qcurve" smooth="yes"/>
      <point x="618" y="38" type="line" smooth="yes"/>
      <point x="618" y="25"/>
      <point x="608" y="12" type="qcurve"/>
      <point x="595" y="2"/>
      <point x="569" y="2"/>
      <point x="556" y="12" type="qcurve"/>
      <point x="546" y="25"/>
      <point x="546" y="38" type="qcurve" smooth="yes"/>
      <point x="546" y="675" type="line"/>
      <point x="363" y="493" type="line" smooth="yes"/>
      <point x="353" y="483"/>
      <point x="323" y="483"/>
      <point x="313" y="493" type="qcurve" smooth="yes"/>
      <point x="129" y="675" type="line"/>
      <point x="129" y="38" type="line" smooth="yes"/>
      <point x="129" y="23"/>
      <point x="118" y="12" type="qcurve" smooth="yes"/>
      <point x="108" y="2"/>
    </contour>
  </outline>
</glyph>
<glyph name="N" format="2">
  <advance width="674"/>
  <unicode hex="004E"/>
  <outline>
    <contour>
      <point x="78" y="2"/>
      <point x="68" y="12" type="qcurve" smooth="yes"/>
      <point x="57" y="23"/>
      <point x="57" y="38" type="qcurve" smooth="yes"/>
      <point x="57" y="759" type="line" smooth="yes"/>
      <point x="57" y="770"/>
      <point x="64" y="780" type="qcurve" smooth="yes"/>
      <point x="73" y="789"/>
      <point x="82" y="793" type="qcurve" smooth="yes"/>
      <point x="109" y="801"/>
      <point x="122" y="779" type="qcurve" smooth="yes"/>
      <point x="546" y="154" type="line"/>
      <point x="546" y="759" type="line" smooth="yes"/>
      <point x="546" y="773"/>
      <point x="556" y="784" type="qcurve" smooth="yes"/>
      <point x="570" y="795"/>
      <point x="582" y="795" type="qcurve" smooth="yes"/>
      <point x="596" y="795"/>
      <point x="607" y="784" type="qcurve" smooth="yes"/>
      <point x="617" y="774"/>
      <point x="617" y="759" type="qcurve" smooth="yes"/>
      <point x="617" y="38" type="line" smooth="yes"/>
      <point x="617" y="27"/>
      <point x="610" y="17" type="qcurve" smooth="yes"/>
      <point x="604" y="7"/>
      <point x="592" y="4" type="qcurve" smooth="yes"/>
      <point x="567" y="-3"/>
      <point x="553" y="18" type="qcurve" smooth="yes"/>
      <point x="129" y="643" type="line"/>
      <point x="129" y="38" type="line" smooth="yes"/>
      <point x="129" y="23"/>
      <point x="118" y="12" type="qcurve" smooth="yes"/>
      <point x="108" y="2"/>
    </contour>
  </outline>
</glyph>
<glyph name="P" format="2">
  <advance width="674"/>
  <unicode hex="0050"/>
  <outline>
    <contour>
      <point x="129" y="44" type="line" smooth="yes"/>
      <point x="129" y="29"/>
      <point x="118" y="18" type="qcurve" smooth="yes"/>
      <point x="108" y="8"/>
      <point x="78" y="8"/>
      <point x="68" y="18" type="qcurve" smooth="yes"/>
      <point x="57" y="29"/>
      <point x="57" y="44" type="qcurve" smooth="yes"/>
      <point x="57" y="765" type="line" smooth="yes"/>
      <point x="57" y="782"/>
      <point x="68" y="790" type="qcurve"/>
      <point x="76" y="801"/>
      <point x="93" y="801" type="qcurve" smooth="yes"/>
      <point x="99" y="801" type="line"/>
      <point x="461" y="800" type="line" smooth="yes"/>
      <point x="477" y="800"/>
      <point x="487" y="790" type="qcurve" smooth="yes"/>
      <point x="607" y="669" type="line" smooth="yes"/>
      <point x="617" y="660"/>
      <point x="617" y="644" type="qcurve" smooth="yes"/>
      <point x="617" y="403" type="line" smooth="yes"/>
      <point x="617" y="388"/>
      <point x="607" y="378" type="qcurve" smooth="yes"/>
      <point x="486" y="257" type="line" smooth="yes"/>
      <point x="476" y="247"/>
      <point x="461" y="247" type="qcurve" smooth="yes"/>
      <point x="129" y="247" type="line"/>
    </contour>
    <contour>
      <point x="129" y="318" type="line"/>
      <point x="446" y="318" type="line"/>
      <point x="546" y="418" type="line"/>
      <point x="546" y="629" type="line"/>
      <point x="446" y="729" type="line"/>
      <point x="129" y="729" type="line"/>
    </contour>
  </outline>
</glyph>
<glyph name="Q" format="2">
  <advance width="674"/>
  <unicode hex="0051"/>
  <outline>
    <contour>
      <point x="487" y="17" type="line" smooth="yes"/>
      <point x="479" y="8"/>
      <point x="462" y="6" type="qcurve" smooth="yes"/>
      <point x="218" y="6" type="line" smooth="yes"/>
      <point x="203" y="6"/>
      <point x="193" y="16" type="qcurve" smooth="yes"/>
      <point x="68" y="135" type="line" smooth="yes"/>
      <point x="57" y="146"/>
      <point x="57" y="160" type="qcurve" smooth="yes"/>
      <point x="57" y="640" type="line" smooth="yes"/>
      <point x="57" y="655"/>
      <point x="68" y="666" type="qcurve" smooth="yes"/>
      <point x="193" y="789" type="line" smooth="yes"/>
      <point x="203" y="799"/>
      <point x="218" y="799" type="qcurve" smooth="yes"/>
      <point x="455" y="799" type="line" smooth="yes"/>
      <point x="470" y="799"/>
      <point x="480" y="789" type="qcurve" smooth="yes"/>
      <point x="607" y="662" type="line" smooth="yes"/>
      <point x="612" y="657"/>
      <point x="614" y="650" type="qcurve" smooth="yes"/>
      <point x="617" y="642"/>
      <point x="617" y="637" type="qcurve" smooth="yes"/>
      <point x="617" y="160" type="line" smooth="yes"/>
      <point x="617" y="154"/>
      <point x="611" y="140"/>
      <point x="606" y="135" type="qcurve" smooth="yes"/>
      <point x="573" y="101" type="line"/>
      <point x="607" y="67" type="line" smooth="yes"/>
      <point x="617" y="57"/>
      <point x="617" y="27"/>
      <point x="597" y="7"/>
      <point x="582" y="6" type="qcurve" smooth="yes"/>
      <point x="568" y="6"/>
      <point x="557" y="17" type="qcurve" smooth="yes"/>
      <point x="522" y="51" type="line"/>
    </contour>
    <contour>
      <point x="440" y="728" type="line"/>
      <point x="233" y="728" type="line"/>
      <point x="129" y="622" type="line"/>
      <point x="129" y="176" type="line"/>
      <point x="232" y="77" type="line"/>
      <point x="448" y="77" type="line"/>
      <point x="471" y="102" type="line"/>
      <point x="316" y="255" type="line" smooth="yes"/>
      <point x="306" y="265"/>
      <point x="306" y="280" type="qcurve" smooth="yes"/>
      <point x="305" y="295"/>
      <point x="316" y="306" type="qcurve" smooth="yes"/>
      <point x="326" y="316"/>
      <point x="340" y="316" type="qcurve" smooth="yes"/>
      <point x="356" y="316"/>
      <point x="366" y="306" type="qcurve" smooth="yes"/>
      <point x="522" y="151" type="line"/>
      <point x="546" y="175" type="line"/>
      <point x="546" y="622" type="line"/>
      <point x="511" y="657" type="line"/>
      <point x="468" y="700" type="line"/>
    </contour>
  </outline>
</glyph>
<glyph name="T" format="2">
  <advance width="674"/>
  <unicode hex="0054"/>
  <outline>
    <contour>
      <point x="93" y="722" type="line" smooth="yes"/>
      <point x="77" y="722"/>
      <point x="68" y="733" type="qcurve" smooth="yes"/>
      <point x="57" y="744"/>
      <point x="57" y="758" type="qcurve" smooth="yes"/>
      <point x="57" y="774"/>
      <point x="68" y="782" type="qcurve"/>
      <point x="76" y="793"/>
      <point x="93" y="793" type="qcurve" smooth="yes"/>
      <point x="582" y="793" type="line" smooth="yes"/>
      <point x="596" y="793"/>
      <point x="607" y="782" type="qcurve" smooth="yes"/>
      <point x="617" y="773"/>
      <point x="617" y="743"/>
      <point x="607" y="733" type="qcurve" smooth="yes"/>
      <point x="596" y="722"/>
      <point x="582" y="722" type="qcurve" smooth="yes"/>
      <point x="370" y="722" type="line"/>
      <point x="370" y="36" type="line" smooth="yes"/>
      <point x="370" y="22"/>
      <point x="360" y="12" type="qcurve" smooth="yes"/>
      <point x="349" y="1"/>
      <point x="334" y="1" type="qcurve" smooth="yes"/>
      <point x="318" y="1"/>
      <point x="310" y="12" type="qcurve"/>
      <point x="299" y="20"/>
      <point x="299" y="36" type="qcurve" smooth="yes"/>
      <point x="299" y="722" type="line"/>
    </contour>
  </outline>
</glyph>
<glyph name="V" format="2">
  <advance width="674"/>
  <unicode hex="0056"/>
  <outline>
    <contour>
      <point x="110" y="793"/>
      <point x="118" y="782" type="qcurve"/>
      <point x="129" y="774"/>
      <point x="129" y="758" type="qcurve" smooth="yes"/>
      <point x="129" y="291" type="line"/>
      <point x="337" y="87" type="line"/>
      <point x="546" y="295" type="line"/>
      <point x="546" y="758" type="line" smooth="yes"/>
      <point x="546" y="772"/>
      <point x="556" y="782" type="qcurve" smooth="yes"/>
      <point x="567" y="793"/>
      <point x="581" y="793" type="qcurve" smooth="yes"/>
      <point x="597" y="793"/>
      <point x="606" y="783" type="qcurve" smooth="yes"/>
      <point x="617" y="772"/>
      <point x="617" y="758" type="qcurve" smooth="yes"/>
      <point x="617" y="280" type="line" smooth="yes"/>
      <point x="617" y="265"/>
      <point x="607" y="255" type="qcurve" smooth="yes"/>
      <point x="363" y="11" type="line" smooth="yes"/>
      <point x="352" y="0"/>
      <point x="338" y="0" type="qcurve" smooth="yes"/>
      <point x="322" y="2"/>
      <point x="312" y="11" type="qcurve" smooth="yes"/>
      <point x="68" y="251" type="line" smooth="yes"/>
      <point x="58" y="261"/>
      <point x="57" y="276" type="qcurve" smooth="yes"/>
      <point x="57" y="758" type="line" smooth="yes"/>
      <point x="57" y="772"/>
      <point x="68" y="783" type="qcurve" smooth="yes"/>
      <point x="78" y="793"/>
    </contour>
  </outline>
</glyph>
<glyph name="W" format="2">
  <advance width="674"/>
  <unicode hex="0057"/>
  <outline>
    <contour>
      <point x="582" y="795" type="qcurve" smooth="yes"/>
      <point x="597" y="795"/>
      <point x="608" y="784" type="qcurve" smooth="yes"/>
      <point x="618" y="774"/>
      <point x="618" y="759" type="qcurve" smooth="yes"/>
      <point x="618" y="38" type="line" smooth="yes"/>
      <point x="618" y="14"/>
      <point x="574" y="-4"/>
      <point x="557" y="13" type="qcurve" smooth="yes"/>
      <point x="337" y="226" type="line"/>
      <point x="118" y="13" type="line" smooth="yes"/>
      <point x="100" y="-4"/>
      <point x="79" y="5" type="qcurve" smooth="yes"/>
      <point x="57" y="15"/>
      <point x="57" y="38" type="qcurve" smooth="yes"/>
      <point x="57" y="759" type="line" smooth="yes"/>
      <point x="57" y="773"/>
      <point x="68" y="784" type="qcurve" smooth="yes"/>
      <point x="77" y="795"/>
      <point x="109" y="795"/>
      <point x="118" y="784" type="qcurve" smooth="yes"/>
      <point x="129" y="773"/>
      <point x="129" y="759" type="qcurve" smooth="yes"/>
      <point x="129" y="123" type="line"/>
      <point x="313" y="301" type="line" smooth="yes"/>
      <point x="323" y="311"/>
      <point x="338" y="312" type="qcurve" smooth="yes"/>
      <point x="352" y="312"/>
      <point x="363" y="301" type="qcurve" smooth="yes"/>
      <point x="546" y="123" type="line"/>
      <point x="546" y="759" type="line" smooth="yes"/>
      <point x="546" y="773"/>
      <point x="556" y="784" type="qcurve" smooth="yes"/>
      <point x="570" y="795"/>
    </contour>
  </outline>
</glyph>
<glyph name="X" format="2">
  <advance width="674"/>
  <unicode hex="0058"/>
  <outline>
    <contour>
      <point x="64" y="740" type="line" smooth="yes"/>
      <point x="55" y="752"/>
      <point x="58" y="766" type="qcurve" smooth="yes"/>
      <point x="61" y="781"/>
      <point x="73" y="789" type="qcurve" smooth="yes"/>
      <point x="87" y="797"/>
      <point x="100" y="794" type="qcurve" smooth="yes"/>
      <point x="114" y="793"/>
      <point x="122" y="779" type="qcurve" smooth="yes"/>
      <point x="337" y="462" type="line"/>
      <point x="553" y="779" type="line" smooth="yes"/>
      <point x="561" y="791"/>
      <point x="575" y="794" type="qcurve" smooth="yes"/>
      <point x="588" y="796"/>
      <point x="602" y="788" type="qcurve" smooth="yes"/>
      <point x="614" y="780"/>
      <point x="616" y="766" type="qcurve" smooth="yes"/>
      <point x="619" y="753"/>
      <point x="611" y="739" type="qcurve" smooth="yes"/>
      <point x="380" y="399" type="line"/>
      <point x="611" y="58" type="line" smooth="yes"/>
      <point x="619" y="44"/>
      <point x="616" y="31" type="qcurve" smooth="yes"/>
      <point x="614" y="17"/>
      <point x="602" y="9" type="qcurve" smooth="yes"/>
      <point x="588" y="1"/>
      <point x="575" y="4" type="qcurve" smooth="yes"/>
      <point x="561" y="6"/>
      <point x="553" y="18" type="qcurve" smooth="yes"/>
      <point x="337" y="335" type="line"/>
      <point x="122" y="18" type="line" smooth="yes"/>
      <point x="114" y="6"/>
      <point x="100" y="4" type="qcurve" smooth="yes"/>
      <point x="87" y="1"/>
      <point x="73" y="9" type="qcurve" smooth="yes"/>
      <point x="61" y="17"/>
      <point x="58" y="32" type="qcurve" smooth="yes"/>
      <point x="55" y="46"/>
      <point x="64" y="58" type="qcurve" smooth="yes"/>
      <point x="294" y="399" type="line"/>
    </contour>
  </outline>
</glyph>
<glyph name="Y" format="2">
  <advance width="674"/>
  <unicode hex="0059"/>
  <outline>
    <contour>
      <point x="68" y="614" type="line" smooth="yes"/>
      <point x="57" y="625"/>
      <point x="57" y="639" type="qcurve" smooth="yes"/>
      <point x="57" y="758" type="line" smooth="yes"/>
      <point x="57" y="772"/>
      <point x="68" y="783" type="qcurve" smooth="yes"/>
      <point x="78" y="793"/>
      <point x="110" y="793"/>
      <point x="118" y="782" type="qcurve"/>
      <point x="129" y="774"/>
      <point x="129" y="758" type="qcurve" smooth="yes"/>
      <point x="129" y="654" type="line"/>
      <point x="337" y="449" type="line"/>
      <point x="545" y="657" type="line"/>
      <point x="545" y="758" type="line" smooth="yes"/>
      <point x="545" y="774"/>
      <point x="556" y="782" type="qcurve"/>
      <point x="564" y="793"/>
      <point x="581" y="793" type="qcurve" smooth="yes"/>
      <point x="597" y="793"/>
      <point x="606" y="783" type="qcurve" smooth="yes"/>
      <point x="617" y="772"/>
      <point x="617" y="758" type="qcurve" smooth="yes"/>
      <point x="617" y="643" type="line" smooth="yes"/>
      <point x="617" y="628"/>
      <point x="607" y="618" type="qcurve" smooth="yes"/>
      <point x="373" y="384" type="line"/>
      <point x="373" y="37" type="line" smooth="yes"/>
      <point x="373" y="20"/>
      <point x="362" y="12" type="qcurve"/>
      <point x="354" y="1"/>
      <point x="320" y="1"/>
      <point x="312" y="12" type="qcurve"/>
      <point x="301" y="20"/>
      <point x="301" y="37" type="qcurve" smooth="yes"/>
      <point x="301" y="384" type="line"/>
    </contour>
  </outline>
</glyph>
<glyph name="backslash" format="2">
  <advance width="670"/>
  <unicode hex="005C"/>
  <outline>
    <contour>
      <point x="73" y="789" type="qcurve" smooth="yes"/>
      <point x="59" y="781"/>
      <point x="58" y="767" type="qcurve" smooth="yes"/>
      <point x="55" y="754"/>
      <point x="63" y="740" type="qcurve" smooth="yes"/>
      <point x="548" y="18" type="line" smooth="yes"/>
      <point x="557" y="6"/>
      <point x="571" y="3" type="qcurve" smooth="yes"/>
      <point x="584" y="0"/>
      <point x="598" y="8" type="qcurve" smooth="yes"/>
      <point x="610" y="16"/>
      <point x="616" y="44"/>
      <point x="608" y="58" type="qcurve" smooth="yes"/>
      <point x="123" y="780" type="line" smooth="yes"/>
      <point x="114" y="793"/>
      <point x="100" y="796" type="qcurve" smooth="yes"/>
      <point x="83" y="798"/>
    </contour>
  </outline>
</glyph>
<glyph name="bracketright" format="2">
  <advance width="427"/>
  <unicode hex="005D"/>
  <outline>
    <contour>
      <point x="57" y="797"/>
      <point x="68" y="808" type="qcurve" smooth="yes"/>
      <point x="80" y="820"/>
      <point x="96" y="820" type="qcurve" smooth="yes"/>
      <point x="359" y="820" type="line" smooth="yes"/>
      <point x="376" y="820"/>
      <point x="386" y="808" type="qcurve" smooth="yes"/>
      <point x="398" y="798"/>
      <point x="398" y="781" type="qcurve" smooth="yes"/>
      <point x="398" y="-2" type="line" smooth="yes"/>
      <point x="398" y="-18"/>
      <point x="386" y="-30" type="qcurve" smooth="yes"/>
      <point x="375" y="-41"/>
      <point x="359" y="-41" type="qcurve" smooth="yes"/>
      <point x="96" y="-41" type="line" smooth="yes"/>
      <point x="82" y="-41"/>
      <point x="68" y="-30" type="qcurve"/>
      <point x="57" y="-16"/>
      <point x="57" y="12"/>
      <point x="68" y="26" type="qcurve"/>
      <point x="82" y="37"/>
      <point x="96" y="37" type="qcurve" smooth="yes"/>
      <point x="320" y="37" type="line"/>
      <point x="320" y="742" type="line"/>
      <point x="96" y="742" type="line" smooth="yes"/>
      <point x="80" y="742"/>
      <point x="68" y="754" type="qcurve" smooth="yes"/>
      <point x="57" y="765"/>
    </contour>
  </outline>
</glyph>
<glyph name="underscore" format="2">
  <advance width="658"/>
  <unicode hex="005F"/>
  <outline>
    <contour>
      <point x="68" y="-68" type="qcurve" smooth="yes"/>
      <point x="57" y="-57"/>
      <point x="57" y="-43" type="qcurve" smooth="yes"/>
      <point x="57" y="-26"/>
      <point x="68" y="-18" type="qcurve"/>
      <point x="76" y="-7"/>
      <point x="92" y="-7" type="qcurve" smooth="yes"/>
      <point x="566" y="-7" type="line" smooth="yes"/>
      <point x="582" y="-7"/>
      <point x="590" y="-18" type="qcurve"/>
      <point x="601" y="-26"/>
      <point x="601" y="-43" type="qcurve" smooth="yes"/>
      <point x="601" y="-57"/>
      <point x="590" y="-68" type="qcurve" smooth="yes"/>
      <point x="581" y="-79"/>
      <point x="566" y="-79" type="qcurve" smooth="yes"/>
      <point x="92" y="-79" type="line" smooth="yes"/>
      <point x="77" y="-79"/>
    </contour>
  </outline>
</glyph>
<glyph name="grave" format="2">
  <advance width="1175"/>
  <unicode hex="0060"/>
  <outline>
    <contour>
      <point x="635" y="771" type="qcurve" smooth="yes"/>
      <point x="544" y="830" type="line" smooth="yes"/>
      <point x="532" y="839"/>
      <point x="528" y="852" type="qcurve" smooth="yes"/>
      <point x="525" y="866"/>
      <point x="533" y="880" type="qcurve" smooth="yes"/>
      <point x="541" y="892"/>
      <point x="556" y="895" type="qcurve" smooth="yes"/>
      <point x="569" y="898"/>
      <point x="583" y="890" type="qcurve" smooth="yes"/>
      <point x="674" y="831" type="line" smooth="yes"/>
      <point x="686" y="822"/>
      <point x="690" y="808" type="qcurve" smooth="yes"/>
      <point x="693" y="796"/>
      <point x="685" y="782" type="qcurve" smooth="yes"/>
      <point x="678" y="769"/>
      <point x="662" y="766" type="qcurve" smooth="yes"/>
      <point x="649" y="763"/>
    </contour>
  </outline>
</glyph>
<glyph name="a" format="2">
  <advance width="674"/>
  <unicode hex="0061"/>
  <outline>
    <contour>
      <point x="546" y="379" type="line"/>
      <point x="443" y="482" type="line"/>
      <point x="208" y="482" type="line" smooth="yes"/>
      <point x="195" y="482"/>
      <point x="182" y="492" type="qcurve"/>
      <point x="172" y="505"/>
      <point x="172" y="518" type="qcurve" smooth="yes"/>
      <point x="172" y="532"/>
      <point x="182" y="542" type="qcurve" smooth="yes"/>
      <point x="193" y="553"/>
      <point x="208" y="553" type="qcurve" smooth="yes"/>
      <point x="457" y="553" type="line" smooth="yes"/>
      <point x="473" y="553"/>
      <point x="483" y="543" type="qcurve" smooth="yes"/>
      <point x="606" y="419" type="line" smooth="yes"/>
      <point x="616" y="409"/>
      <point x="617" y="394" type="qcurve" smooth="yes"/>
      <point x="617" y="36" type="line" smooth="yes"/>
      <point x="617" y="20"/>
      <point x="606" y="12" type="qcurve"/>
      <point x="598" y="1"/>
      <point x="581" y="1" type="qcurve" smooth="yes"/>
      <point x="203" y="1" type="line" smooth="yes"/>
      <point x="188" y="1"/>
      <point x="176" y="13" type="qcurve" smooth="yes"/>
      <point x="67" y="129" type="line" smooth="yes"/>
      <point x="58" y="140"/>
      <point x="58" y="168"/>
      <point x="68" y="178" type="qcurve" smooth="yes"/>
      <point x="189" y="299" type="line" smooth="yes"/>
      <point x="197" y="308"/>
      <point x="214" y="310" type="qcurve" smooth="yes"/>
      <point x="546" y="310" type="line"/>
    </contour>
    <contour>
      <point x="229" y="243" type="line"/>
      <point x="142" y="156" type="line"/>
      <point x="218" y="76" type="line"/>
      <point x="546" y="76" type="line"/>
      <point x="546" y="243" type="line"/>
    </contour>
  </outline>
</glyph>
<glyph name="d" format="2">
  <advance width="672"/>
  <unicode hex="0064"/>
  <outline>
    <contour>
      <point x="218" y="553" type="line" smooth="yes"/>
      <point x="204" y="553"/>
      <point x="193" y="542" type="qcurve" smooth="yes"/>
      <point x="68" y="420" type="line" smooth="yes"/>
      <point x="61" y="414"/>
      <point x="59" y="403" type="qcurve" smooth="yes"/>
      <point x="58" y="402"/>
      <point x="58" y="399" type="qcurve" smooth="yes"/>
      <point x="57" y="397"/>
      <point x="57" y="394" type="qcurve" smooth="yes"/>
      <point x="57" y="150" type="line" smooth="yes"/>
      <point x="57" y="136"/>
      <point x="68" y="125" type="qcurve" smooth="yes"/>
      <point x="182" y="11" type="line" smooth="yes"/>
      <point x="192" y="1"/>
      <point x="207" y="1" type="qcurve" smooth="yes"/>
      <point x="581" y="1" type="line" smooth="yes"/>
      <point x="595" y="1"/>
      <point x="606" y="12" type="qcurve" smooth="yes"/>
      <point x="616" y="21"/>
      <point x="616" y="37" type="qcurve" smooth="yes"/>
      <point x="616" y="758" type="line" smooth="yes"/>
      <point x="616" y="773"/>
      <point x="606" y="782" type="qcurve" smooth="yes"/>
      <point x="595" y="793"/>
      <point x="581" y="793" type="qcurve" smooth="yes"/>
      <point x="565" y="793"/>
      <point x="556" y="783" type="qcurve" smooth="yes"/>
      <point x="545" y="772"/>
      <point x="545" y="758" type="qcurve" smooth="yes"/>
      <point x="545" y="553" type="line"/>
    </contour>
    <contour>
      <point x="232" y="485" type="line"/>
      <point x="545" y="485" type="line"/>
      <point x="545" y="75" type="line"/>
      <point x="221" y="75" type="line"/>
      <point x="129" y="169" type="line"/>
      <point x="129" y="383" type="line"/>
    </contour>
  </outline>
</glyph>
<glyph name="f" format="2">
  <advance width="511"/>
  <unicode hex="0066"/>
  <outline>
    <contour>
      <point x="92" y="484" type="line" smooth="yes"/>
      <point x="77" y="484"/>
      <point x="68" y="494" type="qcurve" smooth="yes"/>
      <point x="57" y="505"/>
      <point x="57" y="533"/>
      <point x="68" y="544" type="qcurve" smooth="yes"/>
      <point x="77" y="554"/>
      <point x="92" y="554" type="qcurve" smooth="yes"/>
      <point x="174" y="554" type="line"/>
      <point x="174" y="640" type="line" smooth="yes"/>
      <point x="174" y="654"/>
      <point x="185" y="665" type="qcurve" smooth="yes"/>
      <point x="303" y="784" type="line" smooth="yes"/>
      <point x="308" y="788"/>
      <point x="314" y="791" type="qcurve" smooth="yes"/>
      <point x="322" y="794"/>
      <point x="328" y="794" type="qcurve" smooth="yes"/>
      <point x="419" y="794" type="line" smooth="yes"/>
      <point x="431" y="794"/>
      <point x="444" y="784" type="qcurve"/>
      <point x="454" y="771"/>
      <point x="454" y="758" type="qcurve" smooth="yes"/>
      <point x="454" y="743"/>
      <point x="444" y="734" type="qcurve" smooth="yes"/>
      <point x="433" y="723"/>
      <point x="419" y="723" type="qcurve" smooth="yes"/>
      <point x="343" y="723" type="line"/>
      <point x="245" y="626" type="line"/>
      <point x="245" y="554" type="line"/>
      <point x="417" y="554" type="line" smooth="yes"/>
      <point x="429" y="554"/>
      <point x="442" y="544" type="qcurve"/>
      <point x="452" y="531"/>
      <point x="452" y="505"/>
      <point x="442" y="494" type="qcurve" smooth="yes"/>
      <point x="432" y="484"/>
      <point x="417" y="484" type="qcurve" smooth="yes"/>
      <point x="245" y="484" type="line"/>
      <point x="245" y="36" type="line" smooth="yes"/>
      <point x="245" y="20"/>
      <point x="234" y="12" type="qcurve"/>
      <point x="226" y="1"/>
      <point x="194" y="1"/>
      <point x="184" y="11" type="qcurve" smooth="yes"/>
      <point x="174" y="22"/>
      <point x="174" y="36" type="qcurve" smooth="yes"/>
      <point x="174" y="484" type="line"/>
    </contour>
  </outline>
</glyph>
<glyph name="h" format="2">
  <advance width="674"/>
  <unicode hex="0068"/>
  <outline>
    <contour>
      <point x="187" y="543" type="line" smooth="yes"/>
      <point x="198" y="554"/>
      <point x="212" y="554" type="qcurve" smooth="yes"/>
      <point x="459" y="554" type="line" smooth="yes"/>
      <point x="473" y="554"/>
      <point x="484" y="543" type="qcurve" smooth="yes"/>
      <point x="606" y="421" type="line" smooth="yes"/>
      <point x="617" y="410"/>
      <point x="617" y="396" type="qcurve" smooth="yes"/>
      <point x="617" y="37" type="line" smooth="yes"/>
      <point x="617" y="23"/>
      <point x="606" y="12" type="qcurve" smooth="yes"/>
      <point x="597" y="1"/>
      <point x="581" y="1" type="qcurve" smooth="yes"/>
      <point x="567" y="1"/>
      <point x="556" y="12" type="qcurve" smooth="yes"/>
      <point x="546" y="22"/>
      <point x="546" y="37" type="qcurve" smooth="yes"/>
      <point x="546" y="381" type="line"/>
      <point x="444" y="483" type="line"/>
      <point x="227" y="483" type="line"/>
      <point x="129" y="384" type="line"/>
      <point x="129" y="37" type="line" smooth="yes"/>
      <point x="129" y="20"/>
      <point x="118" y="12" type="qcurve"/>
      <point x="110" y="1"/>
      <point x="76" y="1"/>
      <point x="68" y="12" type="qcurve"/>
      <point x="57" y="20"/>
      <point x="57" y="37" type="qcurve" smooth="yes"/>
      <point x="57" y="757" type="line" smooth="yes"/>
      <point x="57" y="774"/>
      <point x="68" y="782" type="qcurve"/>
      <point x="76" y="793"/>
      <point x="110" y="793"/>
      <point x="118" y="782" type="qcurve"/>
      <point x="129" y="774"/>
      <point x="129" y="757" type="qcurve" smooth="yes"/>
      <point x="129" y="485" type="line"/>
    </contour>
  </outline>
</glyph>
<glyph name="i" format="2">
  <advance width="421"/>
  <unicode hex="0069"/>
  <outline>
    <contour>
      <point x="182" y="484" type="line"/>
      <point x="93" y="484" type="line" smooth="yes"/>
      <point x="77" y="484"/>
      <point x="68" y="494" type="qcurve" smooth="yes"/>
      <point x="57" y="505"/>
      <point x="57" y="519" type="qcurve" smooth="yes"/>
      <point x="57" y="536"/>
      <point x="68" y="544" type="qcurve"/>
      <point x="76" y="555"/>
      <point x="93" y="555" type="qcurve" smooth="yes"/>
      <point x="217" y="555" type="line" smooth="yes"/>
      <point x="231" y="555"/>
      <point x="242" y="544" type="qcurve" smooth="yes"/>
      <point x="253" y="535"/>
      <point x="253" y="519" type="qcurve" smooth="yes"/>
      <point x="253" y="73" type="line"/>
      <point x="328" y="73" type="line" smooth="yes"/>
      <point x="343" y="73"/>
      <point x="354" y="62" type="qcurve" smooth="yes"/>
      <point x="364" y="52"/>
      <point x="364" y="38" type="qcurve" smooth="yes"/>
      <point x="364" y="25"/>
      <point x="354" y="12" type="qcurve"/>
      <point x="341" y="2"/>
      <point x="328" y="2" type="qcurve" smooth="yes"/>
      <point x="93" y="2" type="line" smooth="yes"/>
      <point x="77" y="2"/>
      <point x="68" y="12" type="qcurve" smooth="yes"/>
      <point x="57" y="23"/>
      <point x="57" y="37" type="qcurve" smooth="yes"/>
      <point x="57" y="54"/>
      <point x="68" y="62" type="qcurve"/>
      <point x="76" y="73"/>
      <point x="93" y="73" type="qcurve" smooth="yes"/>
      <point x="182" y="73" type="line"/>
    </contour>
    <contour>
      <point x="244" y="671" type="qcurve" smooth="yes"/>
      <point x="230" y="660"/>
      <point x="218" y="660" type="qcurve" smooth="yes"/>
      <point x="203" y="660"/>
      <point x="194" y="671" type="qcurve" smooth="yes"/>
      <point x="183" y="682"/>
      <point x="183" y="696" type="qcurve" smooth="yes"/>
      <point x="183" y="756" type="line" smooth="yes"/>
      <point x="183" y="771"/>
      <point x="194" y="782" type="qcurve" smooth="yes"/>
      <point x="204" y="792"/>
      <point x="219" y="792" type="qcurve" smooth="yes"/>
      <point x="233" y="792"/>
      <point x="244" y="782" type="qcurve" smooth="yes"/>
      <point x="254" y="772"/>
      <point x="254" y="756" type="qcurve" smooth="yes"/>
      <point x="254" y="696" type="line" smooth="yes"/>
      <point x="254" y="682"/>
    </contour>
  </outline>
</glyph>
<glyph name="k" format="2">
  <advance width="617"/>
  <unicode hex="006B"/>
  <outline>
    <contour>
      <point x="129" y="36" type="line" smooth="yes"/>
      <point x="129" y="22"/>
      <point x="118" y="11" type="qcurve" smooth="yes"/>
      <point x="109" y="1"/>
      <point x="93" y="1" type="qcurve" smooth="yes"/>
      <point x="76" y="1"/>
      <point x="68" y="12" type="qcurve"/>
      <point x="57" y="20"/>
      <point x="57" y="36" type="qcurve" smooth="yes"/>
      <point x="57" y="760" type="line" smooth="yes"/>
      <point x="57" y="775"/>
      <point x="68" y="786" type="qcurve" smooth="yes"/>
      <point x="78" y="796"/>
      <point x="108" y="796"/>
      <point x="118" y="786" type="qcurve" smooth="yes"/>
      <point x="129" y="775"/>
      <point x="129" y="760" type="qcurve" smooth="yes"/>
      <point x="129" y="331" type="line"/>
      <point x="260" y="331" type="line"/>
      <point x="473" y="544" type="line" smooth="yes"/>
      <point x="484" y="555"/>
      <point x="498" y="555" type="qcurve" smooth="yes"/>
      <point x="513" y="555"/>
      <point x="524" y="544" type="qcurve" smooth="yes"/>
      <point x="534" y="534"/>
      <point x="534" y="519" type="qcurve" smooth="yes"/>
      <point x="535" y="504"/>
      <point x="524" y="493" type="qcurve" smooth="yes"/>
      <point x="326" y="295" type="line"/>
      <point x="561" y="61" type="line" smooth="yes"/>
      <point x="571" y="51"/>
      <point x="571" y="21"/>
      <point x="561" y="11" type="qcurve" smooth="yes"/>
      <point x="550" y="0"/>
      <point x="520" y="0"/>
      <point x="509" y="11" type="qcurve" smooth="yes"/>
      <point x="261" y="259" type="line"/>
      <point x="129" y="259" type="line"/>
    </contour>
  </outline>
</glyph>
<glyph name="m" format="2">
  <advance width="674"/>
  <unicode hex="006D"/>
  <outline>
    <contour>
      <point x="205" y="482" type="line"/>
      <point x="129" y="482" type="line"/>
      <point x="129" y="36" type="line" smooth="yes"/>
      <point x="129" y="22"/>
      <point x="118" y="11" type="qcurve" smooth="yes"/>
      <point x="109" y="1"/>
      <point x="93" y="1" type="qcurve" smooth="yes"/>
      <point x="76" y="1"/>
      <point x="68" y="12" type="qcurve"/>
      <point x="57" y="20"/>
      <point x="57" y="36" type="qcurve" smooth="yes"/>
      <point x="57" y="518" type="line" smooth="yes"/>
      <point x="57" y="532"/>
      <point x="68" y="543" type="qcurve" smooth="yes"/>
      <point x="77" y="553"/>
      <point x="93" y="553" type="qcurve" smooth="yes"/>
      <point x="220" y="553" type="line" smooth="yes"/>
      <point x="234" y="553"/>
      <point x="245" y="542" type="qcurve" smooth="yes"/>
      <point x="337" y="450" type="line"/>
      <point x="427" y="540" type="line" smooth="yes"/>
      <point x="437" y="550"/>
      <point x="452" y="550" type="qcurve" smooth="yes"/>
      <point x="468" y="550"/>
      <point x="477" y="540" type="qcurve" smooth="yes"/>
      <point x="607" y="410" type="line" smooth="yes"/>
      <point x="617" y="400"/>
      <point x="617" y="385" type="qcurve" smooth="yes"/>
      <point x="617" y="36" type="line" smooth="yes"/>
      <point x="617" y="21"/>
      <point x="607" y="12" type="qcurve" smooth="yes"/>
      <point x="596" y="1"/>
      <point x="582" y="1" type="qcurve" smooth="yes"/>
      <point x="567" y="1"/>
      <point x="556" y="12" type="qcurve" smooth="yes"/>
      <point x="546" y="22"/>
      <point x="546" y="36" type="qcurve" smooth="yes"/>
      <point x="546" y="370" type="line"/>
      <point x="452" y="464" type="line"/>
      <point x="373" y="385" type="line"/>
      <point x="373" y="36" type="line" smooth="yes"/>
      <point x="373" y="20"/>
      <point x="362" y="12" type="qcurve"/>
      <point x="354" y="1"/>
      <point x="337" y="1" type="qcurve" smooth="yes"/>
      <point x="323" y="1"/>
      <point x="312" y="12" type="qcurve" smooth="yes"/>
      <point x="302" y="21"/>
      <point x="302" y="36" type="qcurve" smooth="yes"/>
      <point x="302" y="385" type="line"/>
    </contour>
  </outline>
</glyph>
<glyph name="n" format="2">
  <advance width="674"/>
  <unicode hex="006E"/>
  <outline>
    <contour>
      <point x="78" y="0"/>
      <point x="68" y="10" type="qcurve" smooth="yes"/>
      <point x="57" y="21"/>
      <point x="57" y="36" type="qcurve" smooth="yes"/>
      <point x="57" y="517" type="line" smooth="yes"/>
      <point x="57" y="531"/>
      <point x="68" y="542" type="qcurve" smooth="yes"/>
      <point x="78" y="552"/>
      <point x="93" y="553" type="qcurve" smooth="yes"/>
      <point x="452" y="552" type="line" smooth="yes"/>
      <point x="467" y="552"/>
      <point x="477" y="542" type="qcurve" smooth="yes"/>
      <point x="606" y="412" type="line" smooth="yes"/>
      <point x="616" y="402"/>
      <point x="617" y="387" type="qcurve" smooth="yes"/>
      <point x="617" y="36" type="line" smooth="yes"/>
      <point x="617" y="21"/>
      <point x="606" y="10" type="qcurve" smooth="yes"/>
      <point x="596" y="0"/>
      <point x="581" y="0" type="qcurve" smooth="yes"/>
      <point x="569" y="0"/>
      <point x="556" y="10" type="qcurve"/>
      <point x="546" y="23"/>
      <point x="546" y="36" type="qcurve" smooth="yes"/>
      <point x="546" y="372" type="line"/>
      <point x="437" y="481" type="line"/>
      <point x="129" y="481" type="line"/>
      <point x="129" y="36" type="line" smooth="yes"/>
      <point x="129" y="21"/>
      <point x="118" y="10" type="qcurve" smooth="yes"/>
      <point x="108" y="0"/>
    </contour>
  </outline>
</glyph>
<glyph name="o" format="2">
  <advance width="674"/>
  <unicode hex="006F"/>
  <outline>
    <contour>
      <point x="57" y="392" type="line" smooth="yes"/>
      <point x="57" y="404"/>
      <point x="68" y="418" type="qcurve" smooth="yes"/>
      <point x="197" y="548" type="line" smooth="yes"/>
      <point x="207" y="558"/>
      <point x="223" y="558" type="qcurve" smooth="yes"/>
      <point x="452" y="558" type="line" smooth="yes"/>
      <point x="467" y="558"/>
      <point x="477" y="548" type="qcurve" smooth="yes"/>
      <point x="608" y="418" type="line" smooth="yes"/>
      <point x="618" y="408"/>
      <point x="618" y="392" type="qcurve" smooth="yes"/>
      <point x="618" y="171" type="line" smooth="yes"/>
      <point x="618" y="156"/>
      <point x="608" y="146" type="qcurve" smooth="yes"/>
      <point x="477" y="15" type="line" smooth="yes"/>
      <point x="467" y="5"/>
      <point x="452" y="5" type="qcurve" smooth="yes"/>
      <point x="223" y="5" type="line" smooth="yes"/>
      <point x="207" y="5"/>
      <point x="197" y="15" type="qcurve" smooth="yes"/>
      <point x="68" y="146" type="line" smooth="yes"/>
      <point x="58" y="156"/>
      <point x="57" y="171" type="qcurve" smooth="yes"/>
    </contour>
    <contour>
      <point x="238" y="487" type="line"/>
      <point x="129" y="378" type="line"/>
      <point x="129" y="185" type="line"/>
      <point x="238" y="76" type="line"/>
      <point x="373" y="76" type="line"/>
      <point x="437" y="76" type="line"/>
      <point x="546" y="185" type="line"/>
      <point x="546" y="378" type="line"/>
      <point x="437" y="487" type="line"/>
      <point x="301" y="487" type="line"/>
    </contour>
  </outline>
</glyph>
<glyph name="p" format="2">
  <advance width="674"/>
  <unicode hex="0070"/>
  <outline>
    <contour>
      <point x="456" y="3" type="line" smooth="yes"/>
      <point x="471" y="3"/>
      <point x="481" y="13" type="qcurve" smooth="yes"/>
      <point x="606" y="135" type="line" smooth="yes"/>
      <point x="612" y="142"/>
      <point x="616" y="152" type="qcurve" smooth="yes"/>
      <point x="618" y="159"/>
      <point x="617" y="161" type="qcurve" smooth="yes"/>
      <point x="617" y="406" type="line" smooth="yes"/>
      <point x="617" y="420"/>
      <point x="606" y="431" type="qcurve" smooth="yes"/>
      <point x="493" y="545" type="line" smooth="yes"/>
      <point x="483" y="555"/>
      <point x="468" y="555" type="qcurve" smooth="yes"/>
      <point x="93" y="555" type="line" smooth="yes"/>
      <point x="77" y="555"/>
      <point x="68" y="545" type="qcurve" smooth="yes"/>
      <point x="57" y="534"/>
      <point x="57" y="520" type="qcurve" smooth="yes"/>
      <point x="57" y="-204" type="line" smooth="yes"/>
      <point x="57" y="-220"/>
      <point x="68" y="-228" type="qcurve"/>
      <point x="76" y="-239"/>
      <point x="110" y="-239"/>
      <point x="118" y="-228" type="qcurve"/>
      <point x="129" y="-220"/>
      <point x="129" y="-204" type="qcurve" smooth="yes"/>
      <point x="129" y="3" type="line"/>
    </contour>
    <contour>
      <point x="442" y="74" type="line"/>
      <point x="129" y="74" type="line"/>
      <point x="129" y="484" type="line"/>
      <point x="453" y="484" type="line"/>
      <point x="546" y="391" type="line"/>
      <point x="546" y="176" type="line"/>
    </contour>
  </outline>
</glyph>
<glyph name="q" format="2">
  <advance width="674"/>
  <unicode hex="0071"/>
  <outline>
    <contour>
      <point x="219" y="1" type="line" smooth="yes"/>
      <point x="203" y="1"/>
      <point x="193" y="11" type="qcurve" smooth="yes"/>
      <point x="68" y="134" type="line" smooth="yes"/>
      <point x="60" y="140"/>
      <point x="59" y="150" type="qcurve" smooth="yes"/>
      <point x="59" y="152"/>
      <point x="58" y="154" type="qcurve" smooth="yes"/>
      <point x="58" y="158"/>
      <point x="57" y="159" type="qcurve" smooth="yes"/>
      <point x="57" y="403" type="line" smooth="yes"/>
      <point x="57" y="418"/>
      <point x="68" y="429" type="qcurve" smooth="yes"/>
      <point x="182" y="543" type="line" smooth="yes"/>
      <point x="193" y="554"/>
      <point x="207" y="554" type="qcurve" smooth="yes"/>
      <point x="582" y="554" type="line" smooth="yes"/>
      <point x="596" y="554"/>
      <point x="607" y="543" type="qcurve" smooth="yes"/>
      <point x="617" y="533"/>
      <point x="617" y="518" type="qcurve" smooth="yes"/>
      <point x="617" y="-205" type="line" smooth="yes"/>
      <point x="617" y="-221"/>
      <point x="607" y="-230" type="qcurve" smooth="yes"/>
      <point x="596" y="-241"/>
      <point x="582" y="-241" type="qcurve" smooth="yes"/>
      <point x="567" y="-241"/>
      <point x="556" y="-230" type="qcurve" smooth="yes"/>
      <point x="546" y="-220"/>
      <point x="546" y="-205" type="qcurve" smooth="yes"/>
      <point x="546" y="1" type="line"/>
    </contour>
    <contour>
      <point x="233" y="72" type="line"/>
      <point x="546" y="72" type="line"/>
      <point x="546" y="482" type="line"/>
      <point x="222" y="482" type="line"/>
      <point x="129" y="389" type="line"/>
      <point x="129" y="174" type="line"/>
    </contour>
  </outline>
</glyph>
<glyph name="t" format="2">
  <advance width="484"/>
  <unicode hex="0074"/>
  <outline>
    <contour>
      <point x="64" y="483" type="line" smooth="yes"/>
      <point x="50" y="483"/>
      <point x="39" y="494" type="qcurve" smooth="yes"/>
      <point x="29" y="503"/>
      <point x="29" y="518" type="qcurve" smooth="yes"/>
      <point x="29" y="534"/>
      <point x="39" y="544" type="qcurve" smooth="yes"/>
      <point x="50" y="554"/>
      <point x="64" y="554" type="qcurve" smooth="yes"/>
      <point x="165" y="554" type="line"/>
      <point x="165" y="651" type="line" smooth="yes"/>
      <point x="165" y="665"/>
      <point x="176" y="676" type="qcurve" smooth="yes"/>
      <point x="185" y="687"/>
      <point x="215" y="687"/>
      <point x="226" y="676" type="qcurve" smooth="yes"/>
      <point x="236" y="666"/>
      <point x="236" y="651" type="qcurve" smooth="yes"/>
      <point x="236" y="554" type="line"/>
      <point x="392" y="554" type="line" smooth="yes"/>
      <point x="405" y="554"/>
      <point x="418" y="544" type="qcurve"/>
      <point x="428" y="531"/>
      <point x="428" y="518" type="qcurve" smooth="yes"/>
      <point x="428" y="504"/>
      <point x="418" y="493" type="qcurve" smooth="yes"/>
      <point x="408" y="483"/>
      <point x="392" y="483" type="qcurve" smooth="yes"/>
      <point x="236" y="483" type="line"/>
      <point x="236" y="169" type="line"/>
      <point x="333" y="72" type="line"/>
      <point x="392" y="72" type="line" smooth="yes"/>
      <point x="408" y="72"/>
      <point x="418" y="62" type="qcurve" smooth="yes"/>
      <point x="428" y="51"/>
      <point x="428" y="37" type="qcurve" smooth="yes"/>
      <point x="428" y="22"/>
      <point x="418" y="12" type="qcurve" smooth="yes"/>
      <point x="407" y="1"/>
      <point x="392" y="1" type="qcurve" smooth="yes"/>
      <point x="318" y="1" type="line" smooth="yes"/>
      <point x="303" y="1"/>
      <point x="293" y="11" type="qcurve" smooth="yes"/>
      <point x="175" y="129" type="line" smooth="yes"/>
      <point x="165" y="139"/>
      <point x="165" y="154" type="qcurve" smooth="yes"/>
      <point x="165" y="483" type="line"/>
    </contour>
  </outline>
</glyph>
<glyph name="u" format="2">
  <advance width="674"/>
  <unicode hex="0075"/>
  <outline>
    <contour>
      <point x="581" y="553" type="qcurve" smooth="yes"/>
      <point x="598" y="553"/>
      <point x="606" y="542" type="qcurve"/>
      <point x="617" y="534"/>
      <point x="617" y="518" type="qcurve" smooth="yes"/>
      <point x="617" y="36" type="line" smooth="yes"/>
      <point x="617" y="22"/>
      <point x="606" y="11" type="qcurve" smooth="yes"/>
      <point x="596" y="1"/>
      <point x="581" y="1" type="qcurve" smooth="yes"/>
      <point x="222" y="1" type="line" smooth="yes"/>
      <point x="207" y="1"/>
      <point x="197" y="11" type="qcurve" smooth="yes"/>
      <point x="68" y="141" type="line" smooth="yes"/>
      <point x="58" y="151"/>
      <point x="57" y="166" type="qcurve" smooth="yes"/>
      <point x="57" y="518" type="line" smooth="yes"/>
      <point x="57" y="532"/>
      <point x="68" y="543" type="qcurve" smooth="yes"/>
      <point x="77" y="553"/>
      <point x="93" y="553" type="qcurve" smooth="yes"/>
      <point x="110" y="553"/>
      <point x="118" y="542" type="qcurve"/>
      <point x="129" y="534"/>
      <point x="129" y="518" type="qcurve" smooth="yes"/>
      <point x="129" y="181" type="line"/>
      <point x="238" y="72" type="line"/>
      <point x="546" y="72" type="line"/>
      <point x="546" y="518" type="line" smooth="yes"/>
      <point x="546" y="532"/>
      <point x="556" y="543" type="qcurve" smooth="yes"/>
      <point x="566" y="553"/>
    </contour>
  </outline>
</glyph>
<glyph name="v" format="2">
  <advance width="674"/>
  <unicode hex="0076"/>
  <outline>
    <contour>
      <point x="77" y="550" type="qcurve" smooth="yes"/>
      <point x="88" y="557"/>
      <point x="104" y="552" type="qcurve" smooth="yes"/>
      <point x="119" y="548"/>
      <point x="125" y="534" type="qcurve" smooth="yes"/>
      <point x="335" y="117" type="line"/>
      <point x="549" y="535" type="line" smooth="yes"/>
      <point x="557" y="549"/>
      <point x="570" y="552" type="qcurve" smooth="yes"/>
      <point x="584" y="558"/>
      <point x="598" y="550" type="qcurve" smooth="yes"/>
      <point x="610" y="544"/>
      <point x="616" y="529" type="qcurve" smooth="yes"/>
      <point x="620" y="513"/>
      <point x="613" y="501" type="qcurve" smooth="yes"/>
      <point x="366" y="21" type="line" smooth="yes"/>
      <point x="357" y="1"/>
      <point x="334" y="1" type="qcurve" smooth="yes"/>
      <point x="312" y="2"/>
      <point x="302" y="21" type="qcurve" smooth="yes"/>
      <point x="61" y="502" type="line" smooth="yes"/>
      <point x="54" y="513"/>
      <point x="59" y="529" type="qcurve" smooth="yes"/>
      <point x="64" y="542"/>
    </contour>
  </outline>
</glyph>
<glyph name="x" format="2">
  <advance width="652"/>
  <unicode hex="0078"/>
  <outline>
    <contour>
      <point x="57" y="490" type="line" smooth="yes"/>
      <point x="47" y="500"/>
      <point x="47" y="530"/>
      <point x="67" y="550"/>
      <point x="83" y="550" type="qcurve" smooth="yes"/>
      <point x="96" y="552"/>
      <point x="108" y="540" type="qcurve" smooth="yes"/>
      <point x="327" y="325" type="line"/>
      <point x="545" y="540" type="line" smooth="yes"/>
      <point x="555" y="550"/>
      <point x="570" y="550" type="qcurve" smooth="yes"/>
      <point x="585" y="551"/>
      <point x="596" y="540" type="qcurve" smooth="yes"/>
      <point x="606" y="530"/>
      <point x="606" y="514" type="qcurve" smooth="yes"/>
      <point x="606" y="500"/>
      <point x="596" y="490" type="qcurve" smooth="yes"/>
      <point x="378" y="274" type="line"/>
      <point x="596" y="59" type="line" smooth="yes"/>
      <point x="606" y="49"/>
      <point x="606" y="19"/>
      <point x="596" y="9" type="qcurve" smooth="yes"/>
      <point x="586" y="0"/>
      <point x="570" y="-2" type="qcurve" smooth="yes"/>
      <point x="556" y="-2"/>
      <point x="545" y="9" type="qcurve" smooth="yes"/>
      <point x="327" y="224" type="line"/>
      <point x="108" y="9" type="line" smooth="yes"/>
      <point x="98" y="0"/>
      <point x="82" y="-2" type="qcurve" smooth="yes"/>
      <point x="68" y="-2"/>
      <point x="57" y="9" type="qcurve" smooth="yes"/>
      <point x="47" y="19"/>
      <point x="47" y="49"/>
      <point x="57" y="59" type="qcurve" smooth="yes"/>
      <point x="276" y="274" type="line"/>
    </contour>
  </outline>
</glyph>
<glyph name="y" format="2">
  <advance width="673"/>
  <unicode hex="0079"/>
  <outline>
    <contour>
      <point x="544" y="517" type="line" smooth="yes"/>
      <point x="544" y="533"/>
      <point x="555" y="542" type="qcurve" smooth="yes"/>
      <point x="566" y="553"/>
      <point x="581" y="553" type="qcurve" smooth="yes"/>
      <point x="597" y="553"/>
      <point x="606" y="542" type="qcurve" smooth="yes"/>
      <point x="617" y="531"/>
      <point x="617" y="517" type="qcurve" smooth="yes"/>
      <point x="617" y="-79" type="line" smooth="yes"/>
      <point x="617" y="-93"/>
      <point x="606" y="-104" type="qcurve" smooth="yes"/>
      <point x="469" y="-240" type="line" smooth="yes"/>
      <point x="459" y="-250"/>
      <point x="443" y="-250" type="qcurve" smooth="yes"/>
      <point x="228" y="-250" type="line" smooth="yes"/>
      <point x="214" y="-250"/>
      <point x="203" y="-240" type="qcurve" smooth="yes"/>
      <point x="192" y="-226"/>
      <point x="192" y="-214" type="qcurve" smooth="yes"/>
      <point x="192" y="-200"/>
      <point x="202" y="-189" type="qcurve" smooth="yes"/>
      <point x="216" y="-178"/>
      <point x="228" y="-178" type="qcurve" smooth="yes"/>
      <point x="429" y="-178" type="line"/>
      <point x="544" y="-64" type="line"/>
      <point x="544" y="0" type="line"/>
      <point x="218" y="0" type="line" smooth="yes"/>
      <point x="203" y="0"/>
      <point x="193" y="10" type="qcurve" smooth="yes"/>
      <point x="68" y="135" type="line" smooth="yes"/>
      <point x="58" y="145"/>
      <point x="57" y="161" type="qcurve" smooth="yes"/>
      <point x="57" y="517" type="line" smooth="yes"/>
      <point x="57" y="531"/>
      <point x="68" y="542" type="qcurve" smooth="yes"/>
      <point x="77" y="553"/>
      <point x="93" y="553" type="qcurve" smooth="yes"/>
      <point x="110" y="553"/>
      <point x="118" y="542" type="qcurve"/>
      <point x="129" y="534"/>
      <point x="129" y="517" type="qcurve" smooth="yes"/>
      <point x="129" y="176" type="line"/>
      <point x="233" y="72" type="line"/>
      <point x="544" y="72" type="line"/>
    </contour>
  </outline>
</glyph>
<glyph name="bar" format="2">
  <advance width="185"/>
  <unicode hex="007C"/>
  <outline>
    <contour>
      <point x="93" y="886" type="qcurve" smooth="yes"/>
      <point x="109" y="886"/>
      <point x="118" y="876" type="qcurve" smooth="yes"/>
      <point x="129" y="865"/>
      <point x="129" y="851" type="qcurve" smooth="yes"/>
      <point x="129" y="-28" type="line" smooth="yes"/>
      <point x="129" y="-43"/>
      <point x="118" y="-54" type="qcurve" smooth="yes"/>
      <point x="108" y="-64"/>
      <point x="78" y="-64"/>
      <point x="68" y="-54" type="qcurve" smooth="yes"/>
      <point x="57" y="-43"/>
      <point x="57" y="-28" type="qcurve" smooth="yes"/>
      <point x="57" y="851" type="line" smooth="yes"/>
      <point x="57" y="865"/>
      <point x="68" y="876" type="qcurve" smooth="yes"/>
      <point x="78" y="886"/>
    </contour>
  </outline>
</glyph>
<glyph name="braceright" format="2">
  <advance width="356"/>
  <unicode hex="007D"/>
  <outline>
    <contour>
      <point x="68" y="808" type="qcurve" smooth="yes"/>
      <point x="80" y="820"/>
      <point x="112" y="820"/>
      <point x="124" y="808" type="qcurve" smooth="yes"/>
      <point x="184" y="747" type="line" smooth="yes"/>
      <point x="195" y="736"/>
      <point x="196" y="719" type="qcurve" smooth="yes"/>
      <point x="196" y="493" type="line"/>
      <point x="285" y="421" type="line" smooth="yes"/>
      <point x="299" y="410"/>
      <point x="299" y="391" type="qcurve" smooth="yes"/>
      <point x="299" y="373"/>
      <point x="285" y="361" type="qcurve" smooth="yes"/>
      <point x="196" y="289" type="line"/>
      <point x="196" y="67" type="line" smooth="yes"/>
      <point x="196" y="54"/>
      <point x="186" y="41" type="qcurve" smooth="yes"/>
      <point x="125" y="-28" type="line" smooth="yes"/>
      <point x="115" y="-40"/>
      <point x="99" y="-40" type="qcurve" smooth="yes"/>
      <point x="81" y="-42"/>
      <point x="71" y="-30" type="qcurve" smooth="yes"/>
      <point x="58" y="-20"/>
      <point x="58" y="-4" type="qcurve" smooth="yes"/>
      <point x="55" y="12"/>
      <point x="67" y="24" type="qcurve" smooth="yes"/>
      <point x="118" y="82" type="line"/>
      <point x="118" y="308" type="line" smooth="yes"/>
      <point x="118" y="326"/>
      <point x="133" y="337" type="qcurve" smooth="yes"/>
      <point x="199" y="391" type="line"/>
      <point x="133" y="445" type="line" smooth="yes"/>
      <point x="120" y="456"/>
      <point x="118" y="475" type="qcurve" smooth="yes"/>
      <point x="118" y="705" type="line"/>
      <point x="69" y="754" type="line" smooth="yes"/>
      <point x="58" y="765"/>
      <point x="58" y="781" type="qcurve" smooth="yes"/>
      <point x="57" y="797"/>
    </contour>
  </outline>
</glyph>
<glyph name="cent" format="2">
  <advance width="674"/>
  <unicode hex="00A2"/>
  <outline>
    <contour>
      <point x="262" y="55" type="line"/>
      <point x="232" y="55" type="line" smooth="yes"/>
      <point x="217" y="55"/>
      <point x="206" y="66" type="qcurve" smooth="yes"/>
      <point x="82" y="188" type="line" smooth="yes"/>
      <point x="71" y="199"/>
      <point x="71" y="214" type="qcurve" smooth="yes"/>
      <point x="71" y="463" type="line" smooth="yes"/>
      <point x="71" y="479"/>
      <point x="82" y="490" type="qcurve" smooth="yes"/>
      <point x="195" y="605" type="line" smooth="yes"/>
      <point x="206" y="616"/>
      <point x="222" y="616" type="qcurve" smooth="yes"/>
      <point x="262" y="616" type="line"/>
      <point x="262" y="635" type="line" smooth="yes"/>
      <point x="262" y="650"/>
      <point x="272" y="660" type="qcurve" smooth="yes"/>
      <point x="283" y="671"/>
      <point x="313" y="671"/>
      <point x="324" y="660" type="qcurve" smooth="yes"/>
      <point x="335" y="651"/>
      <point x="335" y="635" type="qcurve" smooth="yes"/>
      <point x="335" y="616" type="line"/>
      <point x="367" y="616" type="line"/>
      <point x="367" y="635" type="line" smooth="yes"/>
      <point x="367" y="652"/>
      <point x="378" y="660" type="qcurve"/>
      <point x="386" y="671"/>
      <point x="420" y="671"/>
      <point x="428" y="660" type="qcurve"/>
      <point x="439" y="652"/>
      <point x="439" y="635" type="qcurve" smooth="yes"/>
      <point x="439" y="616" type="line"/>
      <point x="593" y="616" type="line" smooth="yes"/>
      <point x="606" y="616"/>
      <point x="620" y="605" type="qcurve" smooth="yes"/>
      <point x="630" y="594"/>
      <point x="630" y="562"/>
      <point x="608" y="540"/>
      <point x="593" y="540" type="qcurve" smooth="yes"/>
      <point x="439" y="540" type="line"/>
      <point x="439" y="131" type="line"/>
      <point x="593" y="131" type="line" smooth="yes"/>
      <point x="606" y="131"/>
      <point x="620" y="120" type="qcurve"/>
      <point x="630" y="107"/>
      <point x="630" y="77"/>
      <point x="608" y="55"/>
      <point x="593" y="55" type="qcurve" smooth="yes"/>
      <point x="439" y="55" type="line"/>
      <point x="439" y="36" type="line" smooth="yes"/>
      <point x="439" y="21"/>
      <point x="428" y="10" type="qcurve" smooth="yes"/>
      <point x="418" y="0"/>
      <point x="388" y="0"/>
      <point x="378" y="10" type="qcurve" smooth="yes"/>
      <point x="367" y="21"/>
      <point x="367" y="36" type="qcurve" smooth="yes"/>
      <point x="367" y="55" type="line"/>
      <point x="335" y="55" type="line"/>
      <point x="335" y="36" type="line" smooth="yes"/>
      <point x="335" y="24"/>
      <point x="324" y="10" type="qcurve" smooth="yes"/>
      <point x="313" y="0"/>
      <point x="298" y="0" type="qcurve" smooth="yes"/>
      <point x="285" y="0"/>
      <point x="272" y="10" type="qcurve"/>
      <point x="262" y="23"/>
      <point x="262" y="36" type="qcurve" smooth="yes"/>
    </contour>
    <contour>
      <point x="262" y="540" type="line"/>
      <point x="238" y="540" type="line"/>
      <point x="147" y="448" type="line"/>
      <point x="147" y="230" type="line"/>
      <point x="248" y="131" type="line"/>
      <point x="262" y="131" type="line"/>
    </contour>
    <contour>
      <point x="367" y="540" type="line"/>
      <point x="335" y="540" type="line"/>
      <point x="335" y="131" type="line"/>
      <point x="367" y="131" type="line"/>
    </contour>
  </outline>
</glyph>
<glyph name="sterling" format="2">
  <advance width="644"/>
  <unicode hex="00A3"/>
  <outline>
    <contour>
      <point x="135" y="361" type="line"/>
      <point x="81" y="361" type="line" smooth="yes"/>
      <point x="67" y="361"/>
      <point x="56" y="372" type="qcurve" smooth="yes"/>
      <point x="46" y="381"/>
      <point x="46" y="411"/>
      <point x="57" y="422" type="qcurve" smooth="yes"/>
      <point x="67" y="432"/>
      <point x="81" y="432" type="qcurve" smooth="yes"/>
      <point x="135" y="432" type="line"/>
      <point x="135" y="633" type="line" smooth="yes"/>
      <point x="135" y="648"/>
      <point x="146" y="659" type="qcurve" smooth="yes"/>
      <point x="269" y="782" type="line" smooth="yes"/>
      <point x="279" y="792"/>
      <point x="294" y="793" type="qcurve" smooth="yes"/>
      <point x="451" y="793" type="line" smooth="yes"/>
      <point x="465" y="793"/>
      <point x="476" y="782" type="qcurve" smooth="yes"/>
      <point x="482" y="776"/>
      <point x="509" y="748"/>
      <point x="534" y="724"/>
      <point x="546" y="712" type="qcurve" smooth="yes"/>
      <point x="573" y="684"/>
      <point x="596" y="661" type="qcurve" smooth="yes"/>
      <point x="606" y="651"/>
      <point x="606" y="621"/>
      <point x="595" y="610" type="qcurve" smooth="yes"/>
      <point x="585" y="600"/>
      <point x="571" y="600" type="qcurve" smooth="yes"/>
      <point x="554" y="602"/>
      <point x="545" y="611" type="qcurve" smooth="yes"/>
      <point x="516" y="641"/>
      <point x="436" y="721" type="qcurve"/>
      <point x="309" y="721" type="line"/>
      <point x="207" y="619" type="line"/>
      <point x="207" y="432" type="line"/>
      <point x="443" y="432" type="line" smooth="yes"/>
      <point x="456" y="432"/>
      <point x="469" y="422" type="qcurve"/>
      <point x="479" y="409"/>
      <point x="479" y="396" type="qcurve" smooth="yes"/>
      <point x="479" y="382"/>
      <point x="469" y="371" type="qcurve" smooth="yes"/>
      <point x="459" y="361"/>
      <point x="443" y="361" type="qcurve" smooth="yes"/>
      <point x="207" y="361" type="line"/>
      <point x="207" y="310" type="line"/>
      <point x="443" y="310" type="line" smooth="yes"/>
      <point x="456" y="310"/>
      <point x="469" y="300" type="qcurve"/>
      <point x="479" y="287"/>
      <point x="479" y="274" type="qcurve" smooth="yes"/>
      <point x="479" y="260"/>
      <point x="469" y="250" type="qcurve" smooth="yes"/>
      <point x="458" y="239"/>
      <point x="443" y="239" type="qcurve" smooth="yes"/>
      <point x="207" y="239" type="line"/>
      <point x="207" y="71" type="line"/>
      <point x="294" y="71" type="line"/>
      <point x="436" y="71" type="line"/>
      <point x="545" y="179" type="line" smooth="yes"/>
      <point x="555" y="189"/>
      <point x="587" y="189"/>
      <point x="595" y="178" type="qcurve"/>
      <point x="606" y="170"/>
      <point x="606" y="154" type="qcurve" smooth="yes"/>
      <point x="606" y="140"/>
      <point x="595" y="129" type="qcurve" smooth="yes"/>
      <point x="476" y="10" type="line" smooth="yes"/>
      <point x="466" y="0"/>
      <point x="451" y="0" type="qcurve" smooth="yes"/>
      <point x="171" y="0" type="line" smooth="yes"/>
      <point x="158" y="0"/>
      <point x="145" y="10" type="qcurve"/>
      <point x="135" y="23"/>
      <point x="135" y="36" type="qcurve" smooth="yes"/>
      <point x="135" y="239" type="line"/>
      <point x="81" y="239" type="line" smooth="yes"/>
      <point x="67" y="239"/>
      <point x="56" y="250" type="qcurve" smooth="yes"/>
      <point x="46" y="259"/>
      <point x="46" y="289"/>
      <point x="57" y="300" type="qcurve" smooth="yes"/>
      <point x="67" y="310"/>
      <point x="81" y="310" type="qcurve" smooth="yes"/>
      <point x="135" y="310" type="line"/>
    </contour>
  </outline>
</glyph>
<glyph name="yen" format="2">
  <advance width="674"/>
  <unicode hex="00A5"/>
  <outline>
    <contour>
      <point x="249" y="431" type="line"/>
      <point x="69" y="611" type="line" smooth="yes"/>
      <point x="58" y="622"/>
      <point x="58" y="637" type="qcurve" smooth="yes"/>
      <point x="58" y="756" type="line" smooth="yes"/>
      <point x="58" y="772"/>
      <point x="69" y="781" type="qcurve" smooth="yes"/>
      <point x="80" y="792"/>
      <point x="94" y="792" type="qcurve" smooth="yes"/>
      <point x="109" y="792"/>
      <point x="131" y="770"/>
      <point x="131" y="756" type="qcurve" smooth="yes"/>
      <point x="131" y="652" type="line"/>
      <point x="336" y="449" type="line"/>
      <point x="541" y="656" type="line"/>
      <point x="541" y="756" type="line" smooth="yes"/>
      <point x="541" y="773"/>
      <point x="552" y="781" type="qcurve"/>
      <point x="560" y="792"/>
      <point x="577" y="792" type="qcurve" smooth="yes"/>
      <point x="593" y="792"/>
      <point x="602" y="781" type="qcurve" smooth="yes"/>
      <point x="613" y="770"/>
      <point x="613" y="756" type="qcurve" smooth="yes"/>
      <point x="613" y="641" type="line" smooth="yes"/>
      <point x="613" y="625"/>
      <point x="603" y="615" type="qcurve" smooth="yes"/>
      <point x="421" y="431" type="line"/>
      <point x="516" y="431" type="line" smooth="yes"/>
      <point x="532" y="431"/>
      <point x="542" y="421" type="qcurve" smooth="yes"/>
      <point x="552" y="410"/>
      <point x="552" y="396" type="qcurve" smooth="yes"/>
      <point x="552" y="381"/>
      <point x="542" y="371" type="qcurve" smooth="yes"/>
      <point x="531" y="360"/>
      <point x="516" y="360" type="qcurve" smooth="yes"/>
      <point x="372" y="360" type="line"/>
      <point x="372" y="309" type="line"/>
      <point x="516" y="309" type="line" smooth="yes"/>
      <point x="529" y="309"/>
      <point x="542" y="299" type="qcurve"/>
      <point x="552" y="286"/>
      <point x="552" y="260"/>
      <point x="542" y="247" type="qcurve"/>
      <point x="529" y="237"/>
      <point x="516" y="237" type="qcurve" smooth="yes"/>
      <point x="372" y="237" type="line"/>
      <point x="372" y="36" type="line" smooth="yes"/>
      <point x="372" y="21"/>
      <point x="362" y="11" type="qcurve" smooth="yes"/>
      <point x="351" y="0"/>
      <point x="321" y="0"/>
      <point x="310" y="11" type="qcurve" smooth="yes"/>
      <point x="300" y="21"/>
      <point x="300" y="36" type="qcurve" smooth="yes"/>
      <point x="300" y="237" type="line"/>
      <point x="156" y="237" type="line" smooth="yes"/>
      <point x="143" y="237"/>
      <point x="130" y="247" type="qcurve"/>
      <point x="120" y="260"/>
      <point x="120" y="286"/>
      <point x="130" y="299" type="qcurve"/>
      <point x="143" y="309"/>
      <point x="156" y="309" type="qcurve" smooth="yes"/>
      <point x="300" y="309" type="line"/>
      <point x="300" y="360" type="line"/>
      <point x="156" y="360" type="line" smooth="yes"/>
      <point x="141" y="360"/>
      <point x="130" y="371" type="qcurve" smooth="yes"/>
      <point x="120" y="381"/>
      <point x="120" y="396" type="qcurve" smooth="yes"/>
      <point x="120" y="410"/>
      <point x="130" y="421" type="qcurve" smooth="yes"/>
      <point x="140" y="431"/>
      <point x="156" y="431" type="qcurve" smooth="yes"/>
    </contour>
  </outline>
</glyph>
<glyph name="acute" format="2">
  <advance width="359"/>
  <unicode hex="00B4"/>
  <outline>
    <contour>
      <point x="160.188" y="713.814" type="line" smooth="yes"/>
      <point x="151.629" y="701.688"/>
      <point x="122.343" y="696.636"/>
      <point x="98.0879" y="713.752"/>
      <point x="93.0352" y="743.039"/>
      <point x="101.594" y="755.166" type="qcurve" smooth="yes"/>
      <point x="223.293" y="924.821" type="line" smooth="yes"/>
      <point x="231.854" y="936.949"/>
      <point x="261.138" y="942.001"/>
      <point x="285.392" y="924.883"/>
      <point x="290.445" y="895.597"/>
      <point x="281.889" y="883.471" type="qcurve" smooth="yes"/>
    </contour>
  </outline>
</glyph>
<glyph name="paragraph" format="2">
  <advance width="561"/>
  <unicode hex="00B6"/>
  <outline>
    <contour>
      <point x="302" y="238" type="line"/>
      <point x="209" y="238" type="line" smooth="yes"/>
      <point x="194" y="238"/>
      <point x="184" y="248" type="qcurve" smooth="yes"/>
      <point x="62" y="370" type="line" smooth="yes"/>
      <point x="51" y="381"/>
      <point x="51" y="395" type="qcurve" smooth="yes"/>
      <point x="51" y="642" type="line" smooth="yes"/>
      <point x="51" y="658"/>
      <point x="61" y="668" type="qcurve" smooth="yes"/>
      <point x="173" y="782" type="line" smooth="yes"/>
      <point x="184" y="793"/>
      <point x="199" y="793" type="qcurve" smooth="yes"/>
      <point x="447" y="793" type="line" smooth="yes"/>
      <point x="464" y="793"/>
      <point x="472" y="782" type="qcurve"/>
      <point x="483" y="774"/>
      <point x="483" y="757" type="qcurve" smooth="yes"/>
      <point x="483" y="756" type="line"/>
      <point x="483" y="37" type="line" smooth="yes"/>
      <point x="483" y="22"/>
      <point x="461" y="0"/>
      <point x="446" y="0" type="qcurve" smooth="yes"/>
      <point x="433" y="0"/>
      <point x="420" y="10" type="qcurve"/>
      <point x="410" y="23"/>
      <point x="410" y="37" type="qcurve" smooth="yes"/>
      <point x="410" y="721" type="line"/>
      <point x="375" y="721" type="line"/>
      <point x="375" y="37" type="line" smooth="yes"/>
      <point x="375" y="22"/>
      <point x="364" y="11" type="qcurve" smooth="yes"/>
      <point x="355" y="0"/>
      <point x="339" y="0" type="qcurve" smooth="yes"/>
      <point x="324" y="0"/>
      <point x="313" y="10" type="qcurve" smooth="yes"/>
      <point x="302" y="24"/>
      <point x="302" y="37" type="qcurve" smooth="yes"/>
    </contour>
    <contour>
      <point x="302" y="721" type="line"/>
      <point x="214" y="721" type="line"/>
      <point x="123" y="628" type="line"/>
      <point x="123" y="410" type="line"/>
      <point x="224" y="310" type="line"/>
      <point x="302" y="310" type="line"/>
    </contour>
  </outline>
</glyph>
<glyph name="cedilla" format="2">
  <advance width="275"/>
  <unicode hex="00B8"/>
  <outline>
    <contour>
      <point x="143.692" y="42.3428" type="qcurve" smooth="yes"/>
      <point x="143.692" y="-8.73047" type="line"/>
      <point x="210.87" y="-55.0361" type="line" smooth="yes"/>
      <point x="226.378" y="-65.7217"/>
      <point x="226.378" y="-84.5605" type="qcurve" smooth="yes"/>
      <point x="226.378" y="-141.549" type="line" smooth="yes"/>
      <point x="226.378" y="-160.388"/>
      <point x="210.87" y="-171.073" type="qcurve" smooth="yes"/>
      <point x="128.184" y="-228.067" type="line" smooth="yes"/>
      <point x="115.963" y="-236.492"/>
      <point x="86.7354" y="-231.114"/>
      <point x="69.8848" y="-206.673"/>
      <point x="75.2627" y="-177.445"/>
      <point x="87.4834" y="-169.02" type="qcurve" smooth="yes"/>
      <point x="154.662" y="-122.714" type="line"/>
      <point x="154.662" y="-103.396" type="line"/>
      <point x="87.4834" y="-57.0898" type="line" smooth="yes"/>
      <point x="71.9756" y="-46.3936"/>
      <point x="71.9756" y="-27.5664" type="qcurve" smooth="yes"/>
      <point x="71.9756" y="42.3428" type="line" smooth="yes"/>
      <point x="71.9756" y="57.1875"/>
      <point x="92.9922" y="78.2012"/>
      <point x="122.68" y="78.2012"/>
      <point x="143.692" y="57.1885"/>
    </contour>
  </outline>
</glyph>
<glyph name="questiondown" format="2">
  <advance width="674"/>
  <unicode hex="00BF"/>
  <outline>
    <contour>
      <point x="557" y="-10" type="line" smooth="yes"/>
      <point x="567" y="0"/>
      <point x="597" y="0"/>
      <point x="607" y="-10" type="qcurve" smooth="yes"/>
      <point x="618" y="-21"/>
      <point x="618" y="-36" type="qcurve" smooth="yes"/>
      <point x="618" y="-50"/>
      <point x="607" y="-61" type="qcurve" smooth="yes"/>
      <point x="475" y="-194" type="line" smooth="yes"/>
      <point x="465" y="-204"/>
      <point x="449" y="-204" type="qcurve" smooth="yes"/>
      <point x="233" y="-204" type="line" smooth="yes"/>
      <point x="218" y="-204"/>
      <point x="208" y="-194" type="qcurve" smooth="yes"/>
      <point x="78" y="-64" type="line" smooth="yes"/>
      <point x="68" y="-54"/>
      <point x="68" y="-39" type="qcurve" smooth="yes"/>
      <point x="68" y="77" type="line" smooth="yes"/>
      <point x="68" y="92"/>
      <point x="78" y="102" type="qcurve" smooth="yes"/>
      <point x="310" y="336" type="line"/>
      <point x="310" y="388" type="line" smooth="yes"/>
      <point x="310" y="403"/>
      <point x="321" y="414" type="qcurve" smooth="yes"/>
      <point x="331" y="424"/>
      <point x="345" y="424" type="qcurve" smooth="yes"/>
      <point x="358" y="424"/>
      <point x="371" y="414" type="qcurve"/>
      <point x="381" y="401"/>
      <point x="381" y="388" type="qcurve" smooth="yes"/>
      <point x="381" y="321" type="line" smooth="yes"/>
      <point x="381" y="306"/>
      <point x="371" y="296" type="qcurve" smooth="yes"/>
      <point x="139" y="62" type="line"/>
      <point x="139" y="-25" type="line"/>
      <point x="248" y="-133" type="line"/>
      <point x="435" y="-133" type="line"/>
    </contour>
    <contour>
      <point x="274" y="563" type="line" smooth="yes"/>
      <point x="274" y="573"/>
      <point x="281" y="581" type="qcurve" smooth="yes"/>
      <point x="292" y="589"/>
      <point x="300" y="589" type="qcurve" smooth="yes"/>
      <point x="386" y="589" type="line" smooth="yes"/>
      <point x="396" y="589"/>
      <point x="403" y="582" type="qcurve" smooth="yes"/>
      <point x="411" y="574"/>
      <point x="411" y="563" type="qcurve" smooth="yes"/>
      <point x="411" y="478" type="line" smooth="yes"/>
      <point x="411" y="468"/>
      <point x="403" y="460" type="qcurve" smooth="yes"/>
      <point x="396" y="453"/>
      <point x="386" y="453" type="qcurve" smooth="yes"/>
      <point x="300" y="453" type="line" smooth="yes"/>
      <point x="290" y="453"/>
      <point x="282" y="460" type="qcurve" smooth="yes"/>
      <point x="274" y="471"/>
      <point x="274" y="478" type="qcurve" smooth="yes"/>
    </contour>
    <contour>
      <point x="325" y="538" type="line"/>
      <point x="325" y="504" type="line"/>
      <point x="360" y="504" type="line"/>
      <point x="360" y="538" type="line"/>
    </contour>
  </outline>
</glyph>
<glyph name="AE" format="2">
  <advance width="975"/>
  <unicode hex="00C6"/>
  <outline>
    <contour>
      <point x="113" y="360" type="line"/>
      <point x="113" y="36" type="line" smooth="yes"/>
      <point x="113" y="19"/>
      <point x="102" y="11" type="qcurve"/>
      <point x="94" y="0"/>
      <point x="60" y="0"/>
      <point x="52" y="11" type="qcurve"/>
      <point x="41" y="19"/>
      <point x="41" y="36" type="qcurve" smooth="yes"/>
      <point x="41" y="513" type="line" smooth="yes"/>
      <point x="41" y="527"/>
      <point x="51" y="537" type="qcurve" smooth="yes"/>
      <point x="276" y="782" type="line" smooth="yes"/>
      <point x="287" y="795"/>
      <point x="302" y="793" type="qcurve" smooth="yes"/>
      <point x="317" y="793"/>
      <point x="328" y="782" type="qcurve" smooth="yes"/>
      <point x="491" y="601" type="line"/>
      <point x="491" y="757" type="line" smooth="yes"/>
      <point x="491" y="772"/>
      <point x="502" y="783" type="qcurve" smooth="yes"/>
      <point x="512" y="793"/>
      <point x="527" y="793" type="qcurve" smooth="yes"/>
      <point x="906" y="793" type="line" smooth="yes"/>
      <point x="919" y="793"/>
      <point x="932" y="783" type="qcurve"/>
      <point x="942" y="770"/>
      <point x="942" y="757" type="qcurve" smooth="yes"/>
      <point x="942" y="743"/>
      <point x="932" y="733" type="qcurve" smooth="yes"/>
      <point x="921" y="722"/>
      <point x="906" y="722" type="qcurve" smooth="yes"/>
      <point x="563" y="722" type="line"/>
      <point x="563" y="431" type="line"/>
      <point x="747" y="431" type="line" smooth="yes"/>
      <point x="761" y="431"/>
      <point x="772" y="421" type="qcurve" smooth="yes"/>
      <point x="782" y="411"/>
      <point x="782" y="395" type="qcurve" smooth="yes"/>
      <point x="782" y="381"/>
      <point x="772" y="371" type="qcurve" smooth="yes"/>
      <point x="761" y="360"/>
      <point x="747" y="360" type="qcurve" smooth="yes"/>
      <point x="563" y="360" type="line"/>
      <point x="563" y="71" type="line"/>
      <point x="906" y="71" type="line" smooth="yes"/>
      <point x="922" y="71"/>
      <point x="932" y="61" type="qcurve" smooth="yes"/>
      <point x="942" y="50"/>
      <point x="942" y="36" type="qcurve" smooth="yes"/>
      <point x="942" y="21"/>
      <point x="932" y="11" type="qcurve" smooth="yes"/>
      <point x="921" y="0"/>
      <point x="906" y="0" type="qcurve" smooth="yes"/>
      <point x="527" y="0" type="line" smooth="yes"/>
      <point x="510" y="0"/>
      <point x="502" y="11" type="qcurve"/>
      <point x="491" y="19"/>
      <point x="491" y="36" type="qcurve" smooth="yes"/>
      <point x="491" y="360" type="line"/>
    </contour>
    <contour>
      <point x="491" y="495" type="line"/>
      <point x="302" y="705" type="line"/>
      <point x="113" y="499" type="line"/>
      <point x="113" y="431" type="line"/>
      <point x="491" y="431" type="line"/>
    </contour>
  </outline>
</glyph>
<glyph name="Eth" format="2">
  <advance width="725"/>
  <unicode hex="00D0"/>
  <outline>
    <contour>
      <point x="154" y="797" type="qcurve" smooth="yes"/>
      <point x="520" y="797" type="line" smooth="yes"/>
      <point x="534" y="797"/>
      <point x="545" y="786" type="qcurve" smooth="yes"/>
      <point x="668" y="663" type="line" smooth="yes"/>
      <point x="678" y="653"/>
      <point x="678" y="637" type="qcurve" smooth="yes"/>
      <point x="678" y="158" type="line" smooth="yes"/>
      <point x="678" y="142"/>
      <point x="668" y="132" type="qcurve" smooth="yes"/>
      <point x="544" y="13" type="line" smooth="yes"/>
      <point x="534" y="3"/>
      <point x="520" y="3" type="qcurve" smooth="yes"/>
      <point x="154" y="3" type="line" smooth="yes"/>
      <point x="139" y="3"/>
      <point x="128" y="14" type="qcurve" smooth="yes"/>
      <point x="118" y="24"/>
      <point x="118" y="39" type="qcurve" smooth="yes"/>
      <point x="118" y="761" type="line" smooth="yes"/>
      <point x="118" y="776"/>
      <point x="128" y="786" type="qcurve" smooth="yes"/>
      <point x="139" y="797"/>
    </contour>
    <contour>
      <point x="189" y="725" type="line"/>
      <point x="189" y="75" type="line"/>
      <point x="505" y="75" type="line"/>
      <point x="607" y="173" type="line"/>
      <point x="607" y="623" type="line"/>
      <point x="505" y="725" type="line"/>
    </contour>
    <contour>
      <point x="59" y="377" type="line" smooth="yes"/>
      <point x="46" y="377"/>
      <point x="28" y="395"/>
      <point x="28" y="421"/>
      <point x="46" y="439"/>
      <point x="59" y="439" type="qcurve" smooth="yes"/>
      <point x="341" y="439" type="line" smooth="yes"/>
      <point x="354" y="439"/>
      <point x="372" y="421"/>
      <point x="372" y="395"/>
      <point x="354" y="377"/>
      <point x="341" y="377" type="qcurve" smooth="yes"/>
    </contour>
  </outline>
</glyph>
<glyph name="ae" format="2">
  <advance width="1067"/>
  <unicode hex="00E6"/>
  <outline>
    <contour>
      <point x="577" y="78" type="line"/>
      <point x="577" y="38" type="line" smooth="yes"/>
      <point x="577" y="22"/>
      <point x="565" y="11" type="qcurve" smooth="yes"/>
      <point x="554" y="0"/>
      <point x="539" y="0" type="qcurve" smooth="yes"/>
      <point x="192" y="0" type="line" smooth="yes"/>
      <point x="175" y="0"/>
      <point x="163" y="12" type="qcurve" smooth="yes"/>
      <point x="45" y="142" type="line" smooth="yes"/>
      <point x="34" y="153"/>
      <point x="35" y="168" type="qcurve" smooth="yes"/>
      <point x="35" y="184"/>
      <point x="46" y="195" type="qcurve" smooth="yes"/>
      <point x="177" y="326" type="line" smooth="yes"/>
      <point x="188" y="337"/>
      <point x="204" y="337" type="qcurve" smooth="yes"/>
      <point x="500" y="337" type="line"/>
      <point x="500" y="411" type="line"/>
      <point x="389" y="522" type="line"/>
      <point x="191" y="522" type="line" smooth="yes"/>
      <point x="175" y="522"/>
      <point x="163" y="534" type="qcurve" smooth="yes"/>
      <point x="152" y="545"/>
      <point x="152" y="560" type="qcurve" smooth="yes"/>
      <point x="152" y="574"/>
      <point x="163" y="588" type="qcurve"/>
      <point x="177" y="599"/>
      <point x="191" y="599" type="qcurve" smooth="yes"/>
      <point x="404" y="599" type="line" smooth="yes"/>
      <point x="418" y="599"/>
      <point x="432" y="588" type="qcurve" smooth="yes"/>
      <point x="536" y="483" type="line"/>
      <point x="639" y="586" type="line" smooth="yes"/>
      <point x="650" y="597"/>
      <point x="666" y="597" type="qcurve" smooth="yes"/>
      <point x="877" y="597" type="line" smooth="yes"/>
      <point x="893" y="597"/>
      <point x="904" y="586" type="qcurve" smooth="yes"/>
      <point x="1031" y="459" type="line" smooth="yes"/>
      <point x="1042" y="448"/>
      <point x="1042" y="432" type="qcurve" smooth="yes"/>
      <point x="1042" y="301" type="line" smooth="yes"/>
      <point x="1042" y="285"/>
      <point x="1031" y="274" type="qcurve" smooth="yes"/>
      <point x="1020" y="262"/>
      <point x="1004" y="262" type="qcurve" smooth="yes"/>
      <point x="578" y="262" type="line"/>
      <point x="578" y="186" type="line"/>
      <point x="687" y="77" type="line"/>
      <point x="873" y="77" type="line" smooth="yes"/>
      <point x="887" y="77"/>
      <point x="901" y="66" type="qcurve"/>
      <point x="912" y="52"/>
      <point x="912" y="38" type="qcurve" smooth="yes"/>
      <point x="912" y="22"/>
      <point x="901" y="11" type="qcurve" smooth="yes"/>
      <point x="887" y="0"/>
      <point x="873" y="0" type="qcurve" smooth="yes"/>
      <point x="671" y="0" type="line" smooth="yes"/>
      <point x="655" y="0"/>
      <point x="644" y="11" type="qcurve" smooth="yes"/>
    </contour>
    <contour>
      <point x="500" y="260" type="line"/>
      <point x="220" y="260" type="line"/>
      <point x="126" y="167" type="line"/>
      <point x="208" y="77" type="line"/>
      <point x="500" y="77" type="line"/>
    </contour>
    <contour>
      <point x="578" y="339" type="line"/>
      <point x="966" y="339" type="line"/>
      <point x="966" y="416" type="line"/>
      <point x="861" y="521" type="line"/>
      <point x="682" y="521" type="line"/>
      <point x="578" y="417" type="line"/>
    </contour>
  </outline>
</glyph>
<glyph name="thorn" format="2">
  <advance width="674"/>
  <unicode hex="00FE"/>
  <outline>
    <contour>
      <point x="65" y="-164" type="qcurve" smooth="yes"/>
      <point x="65" y="761" type="line" smooth="yes"/>
      <point x="65" y="778"/>
      <point x="76" y="786" type="qcurve"/>
      <point x="84" y="797"/>
      <point x="100" y="797" type="qcurve" smooth="yes"/>
      <point x="115" y="797"/>
      <point x="126" y="786" type="qcurve" smooth="yes"/>
      <point x="136" y="776"/>
      <point x="136" y="761" type="qcurve" smooth="yes"/>
      <point x="136" y="555" type="line"/>
      <point x="459" y="555" type="line" smooth="yes"/>
      <point x="473" y="555"/>
      <point x="484" y="544" type="qcurve" smooth="yes"/>
      <point x="610" y="421" type="line" smooth="yes"/>
      <point x="617" y="414"/>
      <point x="619" y="405" type="qcurve" smooth="yes"/>
      <point x="620" y="403"/>
      <point x="620" y="396" type="qcurve" smooth="yes"/>
      <point x="620" y="151" type="line" smooth="yes"/>
      <point x="620" y="135"/>
      <point x="610" y="125" type="qcurve" smooth="yes"/>
      <point x="495" y="11" type="line" smooth="yes"/>
      <point x="485" y="1"/>
      <point x="470" y="0" type="qcurve" smooth="yes"/>
      <point x="136" y="0" type="line"/>
      <point x="136" y="-164" type="line" smooth="yes"/>
      <point x="136" y="-178"/>
      <point x="126" y="-189" type="qcurve" smooth="yes"/>
      <point x="116" y="-199"/>
      <point x="100" y="-199" type="qcurve" smooth="yes"/>
      <point x="85" y="-199"/>
      <point x="65" y="-179"/>
    </contour>
    <contour>
      <point x="549" y="381" type="line"/>
      <point x="444" y="483" type="line"/>
      <point x="136" y="483" type="line"/>
      <point x="136" y="72" type="line"/>
      <point x="455" y="72" type="line"/>
      <point x="549" y="165" type="line"/>
    </contour>
  </outline>
</glyph>
<glyph name="Dcroat" format="2">
  <advance width="695"/>
  <unicode hex="0110"/>
  <outline>
    <contour>
      <point x="142" y="794" type="qcurve" smooth="yes"/>
      <point x="508" y="794" type="line" smooth="yes"/>
      <point x="522" y="794"/>
      <point x="533" y="783" type="qcurve" smooth="yes"/>
      <point x="656" y="660" type="line" smooth="yes"/>
      <point x="666" y="650"/>
      <point x="666" y="634" type="qcurve" smooth="yes"/>
      <point x="666" y="155" type="line" smooth="yes"/>
      <point x="666" y="139"/>
      <point x="656" y="129" type="qcurve" smooth="yes"/>
      <point x="532" y="10" type="line" smooth="yes"/>
      <point x="522" y="0"/>
      <point x="508" y="0" type="qcurve" smooth="yes"/>
      <point x="142" y="0" type="line" smooth="yes"/>
      <point x="127" y="0"/>
      <point x="116" y="11" type="qcurve" smooth="yes"/>
      <point x="106" y="21"/>
      <point x="106" y="36" type="qcurve" smooth="yes"/>
      <point x="106" y="758" type="line" smooth="yes"/>
      <point x="106" y="773"/>
      <point x="116" y="783" type="qcurve" smooth="yes"/>
      <point x="127" y="794"/>
    </contour>
    <contour>
      <point x="177" y="722" type="line"/>
      <point x="177" y="72" type="line"/>
      <point x="493" y="72" type="line"/>
      <point x="595" y="170" type="line"/>
      <point x="595" y="620" type="line"/>
      <point x="493" y="722" type="line"/>
    </contour>
    <contour>
      <point x="47" y="374" type="line" smooth="yes"/>
      <point x="34" y="374"/>
      <point x="16" y="392"/>
      <point x="16" y="418"/>
      <point x="34" y="436"/>
      <point x="47" y="436" type="qcurve" smooth="yes"/>
      <point x="329" y="436" type="line" smooth="yes"/>
      <point x="342" y="436"/>
      <point x="360" y="418"/>
      <point x="360" y="392"/>
      <point x="342" y="374"/>
      <point x="329" y="374" type="qcurve" smooth="yes"/>
    </contour>
  </outline>
</glyph>
<glyph name="Hbar" format="2">
  <advance width="1175"/>
  <unicode hex="0126"/>
  <outline>
    <contour>
      <point x="270" y="527" type="line" smooth="yes"/>
      <point x="257" y="527"/>
      <point x="239" y="545"/>
      <point x="239" y="571"/>
      <point x="257" y="589"/>
      <point x="270" y="589" type="qcurve" smooth="yes"/>
      <point x="908" y="589" type="line" smooth="yes"/>
      <point x="921" y="589"/>
      <point x="939" y="571"/>
      <point x="939" y="545"/>
      <point x="921" y="527"/>
      <point x="908" y="527" type="qcurve" smooth="yes"/>
    </contour>
    <contour>
      <point x="306" y="36" type="qcurve" smooth="yes"/>
      <point x="306" y="756" type="line" smooth="yes"/>
      <point x="306" y="771"/>
      <point x="316" y="781" type="qcurve" smooth="yes"/>
      <point x="327" y="792"/>
      <point x="342" y="792" type="qcurve" smooth="yes"/>
      <point x="356" y="792"/>
      <point x="367" y="781" type="qcurve" smooth="yes"/>
      <point x="377" y="772"/>
      <point x="377" y="756" type="qcurve" smooth="yes"/>
      <point x="377" y="432" type="line"/>
      <point x="795" y="432" type="line"/>
      <point x="795" y="756" type="line" smooth="yes"/>
      <point x="795" y="773"/>
      <point x="806" y="781" type="qcurve"/>
      <point x="814" y="792"/>
      <point x="831" y="792" type="qcurve" smooth="yes"/>
      <point x="845" y="792"/>
      <point x="856" y="781" type="qcurve" smooth="yes"/>
      <point x="866" y="772"/>
      <point x="866" y="756" type="qcurve" smooth="yes"/>
      <point x="866" y="36" type="line" smooth="yes"/>
      <point x="866" y="20"/>
      <point x="856" y="11" type="qcurve" smooth="yes"/>
      <point x="845" y="0"/>
      <point x="831" y="0" type="qcurve" smooth="yes"/>
      <point x="814" y="0"/>
      <point x="806" y="11" type="qcurve"/>
      <point x="795" y="19"/>
      <point x="795" y="36" type="qcurve" smooth="yes"/>
      <point x="795" y="361" type="line"/>
      <point x="377" y="361" type="line"/>
      <point x="377" y="36" type="line" smooth="yes"/>
      <point x="377" y="20"/>
      <point x="367" y="11" type="qcurve" smooth="yes"/>
      <point x="356" y="0"/>
      <point x="342" y="0" type="qcurve" smooth="yes"/>
      <point x="327" y="0"/>
      <point x="316" y="11" type="qcurve" smooth="yes"/>
      <point x="306" y="21"/>
    </contour>
  </outline>
</glyph>
<glyph name="Idotaccent" format="2">
  <advance width="424"/>
  <unicode hex="0130"/>
  <outline>
    <contour>
      <point x="247" y="874" type="line" smooth="yes"/>
      <point x="247" y="869"/>
      <point x="242" y="864" type="qcurve" smooth="yes"/>
      <point x="239" y="861"/>
      <point x="233" y="861" type="qcurve" smooth="yes"/>
      <point x="186" y="861" type="line" smooth="yes"/>
      <point x="180" y="861"/>
      <point x="172" y="869"/>
      <point x="172" y="874" type="qcurve" smooth="yes"/>
      <point x="172" y="921" type="line" smooth="yes"/>
      <point x="172" y="927"/>
      <point x="180" y="935"/>
      <point x="186" y="935" type="qcurve" smooth="yes"/>
      <point x="233" y="935" type="line" smooth="yes"/>
      <point x="239" y="935"/>
      <point x="247" y="927"/>
      <point x="247" y="921" type="qcurve" smooth="yes"/>
    </contour>
    <contour>
      <point x="93" y="722" type="line" smooth="yes"/>
      <point x="78" y="722"/>
      <point x="68" y="732" type="qcurve" smooth="yes"/>
      <point x="57" y="743"/>
      <point x="57" y="758" type="qcurve" smooth="yes"/>
      <point x="57" y="772"/>
      <point x="68" y="783" type="qcurve" smooth="yes"/>
      <point x="77" y="793"/>
      <point x="93" y="793" type="qcurve" smooth="yes"/>
      <point x="212" y="793" type="line"/>
      <point x="215" y="793" type="line"/>
      <point x="217" y="793" type="line"/>
      <point x="332" y="793" type="line" smooth="yes"/>
      <point x="347" y="793"/>
      <point x="367" y="773"/>
      <point x="367" y="758" type="qcurve" smooth="yes"/>
      <point x="367" y="742"/>
      <point x="357" y="732" type="qcurve" smooth="yes"/>
      <point x="346" y="722"/>
      <point x="332" y="722" type="qcurve" smooth="yes"/>
      <point x="250" y="722" type="line"/>
      <point x="250" y="71" type="line"/>
      <point x="332" y="71" type="line" smooth="yes"/>
      <point x="347" y="71"/>
      <point x="367" y="51"/>
      <point x="367" y="36" type="qcurve" smooth="yes"/>
      <point x="367" y="20"/>
      <point x="357" y="10" type="qcurve" smooth="yes"/>
      <point x="346" y="0"/>
      <point x="332" y="0" type="qcurve" smooth="yes"/>
      <point x="93" y="0" type="line" smooth="yes"/>
      <point x="78" y="0"/>
      <point x="68" y="10" type="qcurve" smooth="yes"/>
      <point x="57" y="21"/>
      <point x="57" y="36" type="qcurve" smooth="yes"/>
      <point x="57" y="50"/>
      <point x="68" y="61" type="qcurve" smooth="yes"/>
      <point x="77" y="71"/>
      <point x="93" y="71" type="qcurve" smooth="yes"/>
      <point x="179" y="71" type="line"/>
      <point x="179" y="722" type="line"/>
    </contour>
  </outline>
</glyph>
<glyph name="dotlessi" format="2">
  <advance width="421"/>
  <unicode hex="0131"/>
  <outline>
    <contour>
      <point x="188" y="71" type="line"/>
      <point x="188" y="482" type="line"/>
      <point x="99" y="482" type="line" smooth="yes"/>
      <point x="84" y="482"/>
      <point x="64" y="502"/>
      <point x="64" y="517" type="qcurve" smooth="yes"/>
      <point x="64" y="533"/>
      <point x="74" y="543" type="qcurve" smooth="yes"/>
      <point x="85" y="553"/>
      <point x="99" y="553" type="qcurve" smooth="yes"/>
      <point x="224" y="553" type="line" smooth="yes"/>
      <point x="238" y="553"/>
      <point x="249" y="543" type="qcurve" smooth="yes"/>
      <point x="259" y="533"/>
      <point x="259" y="517" type="qcurve" smooth="yes"/>
      <point x="259" y="71" type="line"/>
      <point x="334" y="71" type="line" smooth="yes"/>
      <point x="349" y="71"/>
      <point x="359" y="61" type="qcurve" smooth="yes"/>
      <point x="370" y="50"/>
      <point x="370" y="35" type="qcurve" smooth="yes"/>
      <point x="370" y="19"/>
      <point x="359" y="11" type="qcurve"/>
      <point x="351" y="0"/>
      <point x="334" y="0" type="qcurve" smooth="yes"/>
      <point x="99" y="0" type="line" smooth="yes"/>
      <point x="85" y="0"/>
      <point x="74" y="11" type="qcurve" smooth="yes"/>
      <point x="64" y="20"/>
      <point x="64" y="35" type="qcurve" smooth="yes"/>
      <point x="64" y="51"/>
      <point x="74" y="61" type="qcurve" smooth="yes"/>
      <point x="85" y="71"/>
      <point x="99" y="71" type="qcurve" smooth="yes"/>
    </contour>
  </outline>
</glyph>
<glyph name="IJ" format="2">
  <advance width="941"/>
  <unicode hex="0132"/>
  <outline>
    <contour>
      <point x="791" y="154" type="line" smooth="yes"/>
      <point x="791" y="138"/>
      <point x="780" y="129" type="qcurve" smooth="yes"/>
      <point x="657" y="11" type="line" smooth="yes"/>
      <point x="649" y="1"/>
      <point x="633" y="0" type="qcurve" smooth="yes"/>
      <point x="511" y="0" type="line" smooth="yes"/>
      <point x="498" y="0"/>
      <point x="487" y="11" type="qcurve" smooth="yes"/>
      <point x="367" y="129" type="line" smooth="yes"/>
      <point x="357" y="139"/>
      <point x="356" y="154" type="qcurve" smooth="yes"/>
      <point x="356" y="167"/>
      <point x="366" y="180" type="qcurve"/>
      <point x="379" y="190"/>
      <point x="392" y="190" type="qcurve" smooth="yes"/>
      <point x="406" y="190"/>
      <point x="417" y="179" type="qcurve" smooth="yes"/>
      <point x="526" y="71" type="line"/>
      <point x="619" y="71" type="line"/>
      <point x="720" y="170" type="line"/>
      <point x="720" y="722" type="line"/>
      <point x="637" y="722" type="line" smooth="yes"/>
      <point x="623" y="722"/>
      <point x="612" y="732" type="qcurve" smooth="yes"/>
      <point x="601" y="746"/>
      <point x="601" y="758" type="qcurve" smooth="yes"/>
      <point x="601" y="772"/>
      <point x="612" y="783" type="qcurve" smooth="yes"/>
      <point x="622" y="793"/>
      <point x="637" y="793" type="qcurve" smooth="yes"/>
      <point x="875" y="793" type="line" smooth="yes"/>
      <point x="891" y="793"/>
      <point x="900" y="783" type="qcurve" smooth="yes"/>
      <point x="911" y="772"/>
      <point x="911" y="758" type="qcurve" smooth="yes"/>
      <point x="911" y="743"/>
      <point x="900" y="732" type="qcurve" smooth="yes"/>
      <point x="890" y="722"/>
      <point x="875" y="722" type="qcurve" smooth="yes"/>
      <point x="791" y="722" type="line"/>
    </contour>
    <contour>
      <point x="65" y="722" type="line" smooth="yes"/>
      <point x="50" y="722"/>
      <point x="40" y="732" type="qcurve" smooth="yes"/>
      <point x="29" y="743"/>
      <point x="29" y="758" type="qcurve" smooth="yes"/>
      <point x="29" y="772"/>
      <point x="40" y="783" type="qcurve" smooth="yes"/>
      <point x="49" y="793"/>
      <point x="65" y="793" type="qcurve" smooth="yes"/>
      <point x="184" y="793" type="line"/>
      <point x="187" y="793" type="line"/>
      <point x="189" y="793" type="line"/>
      <point x="304" y="793" type="line" smooth="yes"/>
      <point x="319" y="793"/>
      <point x="339" y="773"/>
      <point x="339" y="758" type="qcurve" smooth="yes"/>
      <point x="339" y="742"/>
      <point x="329" y="732" type="qcurve" smooth="yes"/>
      <point x="318" y="722"/>
      <point x="304" y="722" type="qcurve" smooth="yes"/>
      <point x="222" y="722" type="line"/>
      <point x="222" y="71" type="line"/>
      <point x="304" y="71" type="line" smooth="yes"/>
      <point x="319" y="71"/>
      <point x="339" y="51"/>
      <point x="339" y="36" type="qcurve" smooth="yes"/>
      <point x="339" y="20"/>
      <point x="329" y="10" type="qcurve" smooth="yes"/>
      <point x="318" y="0"/>
      <point x="304" y="0" type="qcurve" smooth="yes"/>
      <point x="65" y="0" type="line" smooth="yes"/>
      <point x="50" y="0"/>
      <point x="40" y="10" type="qcurve" smooth="yes"/>
      <point x="29" y="21"/>
      <point x="29" y="36" type="qcurve" smooth="yes"/>
      <point x="29" y="50"/>
      <point x="40" y="61" type="qcurve" smooth="yes"/>
      <point x="49" y="71"/>
      <point x="65" y="71" type="qcurve" smooth="yes"/>
      <point x="151" y="71" type="line"/>
      <point x="151" y="722" type="line"/>
    </contour>
  </outline>
</glyph>
<glyph name="ij" format="2">
  <advance width="644"/>
  <unicode hex="0133"/>
  <outline>
    <contour>
      <point x="502" y="656"/>
      <point x="491" y="667" type="qcurve" smooth="yes"/>
      <point x="480" y="676"/>
      <point x="480" y="692" type="qcurve" smooth="yes"/>
      <point x="480" y="752" type="line" smooth="yes"/>
      <point x="480" y="766"/>
      <point x="491" y="777" type="qcurve" smooth="yes"/>
      <point x="501" y="787"/>
      <point x="531" y="787"/>
      <point x="541" y="777" type="qcurve" smooth="yes"/>
      <point x="552" y="766"/>
      <point x="552" y="752" type="qcurve" smooth="yes"/>
      <point x="552" y="692" type="line" smooth="yes"/>
      <point x="552" y="678"/>
      <point x="530" y="656"/>
    </contour>
    <contour>
      <point x="530" y="559"/>
      <point x="552" y="537"/>
      <point x="552" y="522" type="qcurve" smooth="yes"/>
      <point x="552" y="-87" type="line" smooth="yes"/>
      <point x="552" y="-102"/>
      <point x="541" y="-113" type="qcurve" smooth="yes"/>
      <point x="386" y="-268" type="line" smooth="yes"/>
      <point x="375" y="-279"/>
      <point x="360" y="-279" type="qcurve" smooth="yes"/>
      <point x="226" y="-279" type="line" smooth="yes"/>
      <point x="211" y="-279"/>
      <point x="200" y="-268" type="qcurve" smooth="yes"/>
      <point x="188" y="-258"/>
      <point x="188" y="-242" type="qcurve" smooth="yes"/>
      <point x="188" y="-227"/>
      <point x="210" y="-205"/>
      <point x="226" y="-205" type="qcurve" smooth="yes"/>
      <point x="345" y="-205" type="line"/>
      <point x="478" y="-72" type="line"/>
      <point x="478" y="522" type="line" smooth="yes"/>
      <point x="478" y="537"/>
      <point x="500" y="559"/>
    </contour>
    <contour>
      <point x="175" y="482" type="line"/>
      <point x="86" y="482" type="line" smooth="yes"/>
      <point x="70" y="482"/>
      <point x="60" y="492" type="qcurve" smooth="yes"/>
      <point x="50" y="503"/>
      <point x="50" y="517" type="qcurve" smooth="yes"/>
      <point x="50" y="530"/>
      <point x="60" y="543" type="qcurve"/>
      <point x="73" y="553"/>
      <point x="86" y="553" type="qcurve" smooth="yes"/>
      <point x="210" y="553" type="line" smooth="yes"/>
      <point x="224" y="553"/>
      <point x="235" y="543" type="qcurve" smooth="yes"/>
      <point x="246" y="529"/>
      <point x="246" y="517" type="qcurve" smooth="yes"/>
      <point x="246" y="71" type="line"/>
      <point x="321" y="71" type="line" smooth="yes"/>
      <point x="336" y="71"/>
      <point x="346" y="61" type="qcurve" smooth="yes"/>
      <point x="357" y="50"/>
      <point x="357" y="35" type="qcurve" smooth="yes"/>
      <point x="357" y="19"/>
      <point x="346" y="11" type="qcurve"/>
      <point x="338" y="0"/>
      <point x="321" y="0" type="qcurve" smooth="yes"/>
      <point x="86" y="0" type="line" smooth="yes"/>
      <point x="70" y="0"/>
      <point x="60" y="10" type="qcurve" smooth="yes"/>
      <point x="50" y="21"/>
      <point x="50" y="35" type="qcurve" smooth="yes"/>
      <point x="50" y="48"/>
      <point x="60" y="61" type="qcurve"/>
      <point x="73" y="71"/>
      <point x="86" y="71" type="qcurve" smooth="yes"/>
      <point x="175" y="71" type="line"/>
    </contour>
    <contour>
      <point x="236" y="669" type="qcurve" smooth="yes"/>
      <point x="227" y="658"/>
      <point x="212" y="658" type="qcurve" smooth="yes"/>
      <point x="200" y="658"/>
      <point x="186" y="669" type="qcurve" smooth="yes"/>
      <point x="176" y="680"/>
      <point x="176" y="694" type="qcurve" smooth="yes"/>
      <point x="176" y="754" type="line" smooth="yes"/>
      <point x="176" y="769"/>
      <point x="186" y="779" type="qcurve" smooth="yes"/>
      <point x="197" y="790"/>
      <point x="212" y="790" type="qcurve" smooth="yes"/>
      <point x="226" y="790"/>
      <point x="237" y="779" type="qcurve" smooth="yes"/>
      <point x="247" y="770"/>
      <point x="247" y="754" type="qcurve" smooth="yes"/>
      <point x="247" y="694" type="line" smooth="yes"/>
      <point x="247" y="680"/>
    </contour>
  </outline>
</glyph>
<glyph name="lcaron" format="2">
  <advance width="454"/>
  <unicode hex="013E"/>
  <outline>
    <contour>
      <point x="355" y="761" type="qcurve" smooth="yes"/>
      <point x="411" y="699" type="line" smooth="yes"/>
      <point x="419" y="688"/>
      <point x="419" y="678" type="qcurve" smooth="yes"/>
      <point x="419" y="666"/>
      <point x="411" y="658" type="qcurve" smooth="yes"/>
      <point x="355" y="595" type="line" smooth="yes"/>
      <point x="347" y="586"/>
      <point x="333" y="584" type="qcurve" smooth="yes"/>
      <point x="320" y="584"/>
      <point x="311" y="593" type="qcurve" smooth="yes"/>
      <point x="301" y="602"/>
      <point x="301" y="614" type="qcurve" smooth="yes"/>
      <point x="300" y="624"/>
      <point x="308" y="637" type="qcurve" smooth="yes"/>
      <point x="346" y="678" type="line"/>
      <point x="308" y="720" type="line" smooth="yes"/>
      <point x="298" y="731"/>
      <point x="300" y="742" type="qcurve" smooth="yes"/>
      <point x="302" y="756"/>
      <point x="311" y="764" type="qcurve" smooth="yes"/>
      <point x="322" y="772"/>
      <point x="333" y="772" type="qcurve" smooth="yes"/>
      <point x="347" y="770"/>
    </contour>
    <contour>
      <point x="185" y="72" type="line"/>
      <point x="185" y="722" type="line"/>
      <point x="93" y="722" type="line" smooth="yes"/>
      <point x="80" y="722"/>
      <point x="67" y="732" type="qcurve"/>
      <point x="57" y="745"/>
      <point x="57" y="758" type="qcurve" smooth="yes"/>
      <point x="57" y="772"/>
      <point x="67" y="782" type="qcurve" smooth="yes"/>
      <point x="78" y="793"/>
      <point x="93" y="793" type="qcurve" smooth="yes"/>
      <point x="220" y="793" type="line" smooth="yes"/>
      <point x="237" y="793"/>
      <point x="245" y="782" type="qcurve"/>
      <point x="256" y="774"/>
      <point x="256" y="758" type="qcurve" smooth="yes"/>
      <point x="256" y="72" type="line"/>
      <point x="334" y="72" type="line" smooth="yes"/>
      <point x="349" y="72"/>
      <point x="359" y="62" type="qcurve" smooth="yes"/>
      <point x="370" y="51"/>
      <point x="370" y="21"/>
      <point x="359" y="10" type="qcurve" smooth="yes"/>
      <point x="349" y="0"/>
      <point x="334" y="0" type="qcurve" smooth="yes"/>
      <point x="93" y="0" type="line" smooth="yes"/>
      <point x="80" y="0"/>
      <point x="67" y="10" type="qcurve"/>
      <point x="57" y="23"/>
      <point x="57" y="49"/>
      <point x="67" y="62" type="qcurve"/>
      <point x="80" y="72"/>
      <point x="93" y="72" type="qcurve" smooth="yes"/>
    </contour>
  </outline>
</glyph>
<glyph name="ldot" format="2">
  <advance width="442"/>
  <unicode hex="0140"/>
  <outline>
    <contour>
      <point x="389" y="287" type="line" smooth="yes"/>
      <point x="389" y="281"/>
      <point x="385" y="278" type="qcurve" smooth="yes"/>
      <point x="381" y="274"/>
      <point x="375" y="274" type="qcurve" smooth="yes"/>
      <point x="328" y="274" type="line" smooth="yes"/>
      <point x="322" y="274"/>
      <point x="314" y="282"/>
      <point x="314" y="287" type="qcurve" smooth="yes"/>
      <point x="314" y="334" type="line" smooth="yes"/>
      <point x="314" y="340"/>
      <point x="322" y="348"/>
      <point x="328" y="348" type="qcurve" smooth="yes"/>
      <point x="375" y="348" type="line" smooth="yes"/>
      <point x="381" y="348"/>
      <point x="389" y="340"/>
      <point x="389" y="334" type="qcurve" smooth="yes"/>
    </contour>
    <contour>
      <point x="177" y="71" type="line"/>
      <point x="177" y="721" type="line"/>
      <point x="86" y="721" type="line" smooth="yes"/>
      <point x="69" y="721"/>
      <point x="61" y="732" type="qcurve"/>
      <point x="50" y="740"/>
      <point x="50" y="774"/>
      <point x="61" y="782" type="qcurve"/>
      <point x="69" y="793"/>
      <point x="86" y="793" type="qcurve" smooth="yes"/>
      <point x="213" y="793" type="line" smooth="yes"/>
      <point x="228" y="793"/>
      <point x="239" y="782" type="qcurve" smooth="yes"/>
      <point x="249" y="772"/>
      <point x="249" y="757" type="qcurve" smooth="yes"/>
      <point x="249" y="71" type="line"/>
      <point x="327" y="71" type="line" smooth="yes"/>
      <point x="342" y="71"/>
      <point x="353" y="60" type="qcurve" smooth="yes"/>
      <point x="363" y="50"/>
      <point x="363" y="36" type="qcurve" smooth="yes"/>
      <point x="363" y="23"/>
      <point x="353" y="10" type="qcurve"/>
      <point x="340" y="0"/>
      <point x="327" y="0" type="qcurve" smooth="yes"/>
      <point x="86" y="0" type="line" smooth="yes"/>
      <point x="71" y="0"/>
      <point x="61" y="10" type="qcurve" smooth="yes"/>
      <point x="50" y="21"/>
      <point x="50" y="36" type="qcurve" smooth="yes"/>
      <point x="50" y="52"/>
      <point x="61" y="60" type="qcurve"/>
      <point x="69" y="71"/>
      <point x="86" y="71" type="qcurve" smooth="yes"/>
    </contour>
  </outline>
</glyph>
<glyph name="lslash" format="2">
  <advance width="439"/>
  <unicode hex="0142"/>
  <outline>
    <contour>
      <point x="187" y="370" type="line"/>
      <point x="87" y="312" type="line" smooth="yes"/>
      <point x="75" y="305"/>
      <point x="61" y="308" type="qcurve" smooth="yes"/>
      <point x="46" y="312"/>
      <point x="39" y="324" type="qcurve" smooth="yes"/>
      <point x="32" y="338"/>
      <point x="36" y="351" type="qcurve" smooth="yes"/>
      <point x="40" y="364"/>
      <point x="52" y="372" type="qcurve" smooth="yes"/>
      <point x="187" y="450" type="line"/>
      <point x="187" y="722" type="line"/>
      <point x="96" y="722" type="line" smooth="yes"/>
      <point x="81" y="722"/>
      <point x="71" y="732" type="qcurve" smooth="yes"/>
      <point x="60" y="743"/>
      <point x="60" y="758" type="qcurve" smooth="yes"/>
      <point x="60" y="774"/>
      <point x="71" y="782" type="qcurve"/>
      <point x="79" y="793"/>
      <point x="96" y="793" type="qcurve" smooth="yes"/>
      <point x="223" y="793" type="line" smooth="yes"/>
      <point x="238" y="793"/>
      <point x="249" y="782" type="qcurve" smooth="yes"/>
      <point x="259" y="772"/>
      <point x="259" y="757" type="qcurve" smooth="yes"/>
      <point x="259" y="491" type="line"/>
      <point x="356" y="547" type="line" smooth="yes"/>
      <point x="368" y="555"/>
      <point x="382" y="550" type="qcurve" smooth="yes"/>
      <point x="396" y="547"/>
      <point x="403" y="534" type="qcurve" smooth="yes"/>
      <point x="410" y="522"/>
      <point x="407" y="508" type="qcurve" smooth="yes"/>
      <point x="403" y="495"/>
      <point x="390" y="487" type="qcurve" smooth="yes"/>
      <point x="259" y="411" type="line"/>
      <point x="259" y="71" type="line"/>
      <point x="337" y="71" type="line" smooth="yes"/>
      <point x="352" y="71"/>
      <point x="363" y="60" type="qcurve" smooth="yes"/>
      <point x="373" y="50"/>
      <point x="373" y="36" type="qcurve" smooth="yes"/>
      <point x="373" y="23"/>
      <point x="363" y="10" type="qcurve"/>
      <point x="350" y="0"/>
      <point x="337" y="0" type="qcurve" smooth="yes"/>
      <point x="96" y="0" type="line" smooth="yes"/>
      <point x="81" y="0"/>
      <point x="71" y="10" type="qcurve" smooth="yes"/>
      <point x="60" y="21"/>
      <point x="60" y="36" type="qcurve" smooth="yes"/>
      <point x="60" y="52"/>
      <point x="71" y="60" type="qcurve"/>
      <point x="79" y="71"/>
      <point x="96" y="71" type="qcurve" smooth="yes"/>
      <point x="187" y="71" type="line"/>
    </contour>
  </outline>
</glyph>
<glyph name="napostrophe" format="2">
  <advance width="749"/>
  <unicode hex="0149"/>
  <outline>
    <contour>
      <point x="149" y="687" type="qcurve" smooth="yes"/>
      <point x="115" y="618" type="line" smooth="yes"/>
      <point x="108" y="606"/>
      <point x="95" y="605" type="qcurve" smooth="yes"/>
      <point x="81" y="605"/>
      <point x="75" y="617" type="qcurve" smooth="yes"/>
      <point x="35" y="691" type="line" smooth="yes"/>
      <point x="32" y="696"/>
      <point x="32" y="702" type="qcurve" smooth="yes"/>
      <point x="32" y="778" type="line" smooth="yes"/>
      <point x="32" y="786"/>
      <point x="38" y="794" type="qcurve" smooth="yes"/>
      <point x="45" y="801"/>
      <point x="55" y="801" type="qcurve" smooth="yes"/>
      <point x="132" y="801" type="line" smooth="yes"/>
      <point x="140" y="801"/>
      <point x="148" y="795" type="qcurve" smooth="yes"/>
      <point x="154" y="788"/>
      <point x="154" y="778" type="qcurve" smooth="yes"/>
      <point x="154" y="702" type="line" smooth="yes"/>
      <point x="154" y="695"/>
    </contour>
    <contour>
      <point x="109" y="709" type="line"/>
      <point x="109" y="756" type="line"/>
      <point x="77" y="756" type="line"/>
      <point x="77" y="708" type="line"/>
      <point x="93" y="677" type="line"/>
    </contour>
    <contour>
      <point x="228" y="36" type="line" smooth="yes"/>
      <point x="228" y="21"/>
      <point x="218" y="11" type="qcurve" smooth="yes"/>
      <point x="207" y="0"/>
      <point x="192" y="0" type="qcurve" smooth="yes"/>
      <point x="178" y="0"/>
      <point x="167" y="11" type="qcurve" smooth="yes"/>
      <point x="157" y="20"/>
      <point x="157" y="36" type="qcurve" smooth="yes"/>
      <point x="157" y="517" type="line" smooth="yes"/>
      <point x="157" y="532"/>
      <point x="177" y="552"/>
      <point x="192" y="552" type="qcurve" smooth="yes"/>
      <point x="551" y="552" type="line" smooth="yes"/>
      <point x="566" y="552"/>
      <point x="576" y="542" type="qcurve" smooth="yes"/>
      <point x="706" y="412" type="line" smooth="yes"/>
      <point x="716" y="402"/>
      <point x="716" y="387" type="qcurve" smooth="yes"/>
      <point x="716" y="36" type="line" smooth="yes"/>
      <point x="716" y="21"/>
      <point x="706" y="11" type="qcurve" smooth="yes"/>
      <point x="695" y="0"/>
      <point x="680" y="0" type="qcurve" smooth="yes"/>
      <point x="664" y="0"/>
      <point x="656" y="11" type="qcurve"/>
      <point x="645" y="19"/>
      <point x="645" y="36" type="qcurve" smooth="yes"/>
      <point x="645" y="372" type="line"/>
      <point x="536" y="481" type="line"/>
      <point x="228" y="481" type="line"/>
    </contour>
  </outline>
</glyph>
<glyph name="oe" format="2">
  <advance width="1107"/>
  <unicode hex="0153"/>
  <outline>
    <contour>
      <point x="526" y="113" type="line"/>
      <point x="419" y="11" type="line" smooth="yes"/>
      <point x="405" y="0"/>
      <point x="391" y="0" type="qcurve" smooth="yes"/>
      <point x="193" y="0" type="line" smooth="yes"/>
      <point x="177" y="0"/>
      <point x="166" y="11" type="qcurve" smooth="yes"/>
      <point x="32" y="131" type="line" smooth="yes"/>
      <point x="19" y="143"/>
      <point x="19" y="161" type="qcurve" smooth="yes"/>
      <point x="19" y="428" type="line" smooth="yes"/>
      <point x="19" y="446"/>
      <point x="31" y="456" type="qcurve" smooth="yes"/>
      <point x="165" y="590" type="line" smooth="yes"/>
      <point x="177" y="602"/>
      <point x="193" y="602" type="qcurve" smooth="yes"/>
      <point x="391" y="602" type="line" smooth="yes"/>
      <point x="408" y="602"/>
      <point x="420" y="590" type="qcurve" smooth="yes"/>
      <point x="517" y="488" type="line"/>
      <point x="618" y="589" type="line" smooth="yes"/>
      <point x="629" y="600"/>
      <point x="646" y="600" type="qcurve" smooth="yes"/>
      <point x="856" y="600" type="line" smooth="yes"/>
      <point x="872" y="600"/>
      <point x="883" y="589" type="qcurve" smooth="yes"/>
      <point x="1010" y="462" type="line" smooth="yes"/>
      <point x="1020" y="452"/>
      <point x="1022" y="435" type="qcurve" smooth="yes"/>
      <point x="1022" y="304" type="line" smooth="yes"/>
      <point x="1022" y="288"/>
      <point x="1010" y="276" type="qcurve" smooth="yes"/>
      <point x="999" y="265"/>
      <point x="983" y="265" type="qcurve" smooth="yes"/>
      <point x="558" y="265" type="line"/>
      <point x="558" y="188" type="line"/>
      <point x="667" y="80" type="line"/>
      <point x="853" y="80" type="line" smooth="yes"/>
      <point x="870" y="80"/>
      <point x="880" y="68" type="qcurve" smooth="yes"/>
      <point x="891" y="57"/>
      <point x="891" y="42" type="qcurve" smooth="yes"/>
      <point x="891" y="28"/>
      <point x="880" y="14" type="qcurve"/>
      <point x="866" y="3"/>
      <point x="853" y="3" type="qcurve" smooth="yes"/>
      <point x="651" y="3" type="line" smooth="yes"/>
      <point x="635" y="3"/>
      <point x="624" y="14" type="qcurve" smooth="yes"/>
    </contour>
    <contour>
      <point x="558" y="342" type="line"/>
      <point x="945" y="342" type="line"/>
      <point x="945" y="419" type="line"/>
      <point x="840" y="524" type="line"/>
      <point x="661" y="524" type="line"/>
      <point x="558" y="420" type="line"/>
    </contour>
    <contour>
      <point x="210" y="522" type="line"/>
      <point x="99" y="411" type="line"/>
      <point x="99" y="179" type="line"/>
      <point x="208" y="80" type="line"/>
      <point x="375" y="80" type="line"/>
      <point x="478" y="178" type="line"/>
      <point x="478" y="412" type="line"/>
      <point x="374" y="522" type="line"/>
    </contour>
  </outline>
</glyph>
<glyph name="tcaron" format="2">
  <advance width="484"/>
  <unicode hex="0165"/>
  <outline>
    <contour>
      <point x="341" y="777" type="qcurve" smooth="yes"/>
      <point x="397" y="714" type="line" smooth="yes"/>
      <point x="405" y="703"/>
      <point x="405" y="694" type="qcurve" smooth="yes"/>
      <point x="405" y="684"/>
      <point x="397" y="673" type="qcurve" smooth="yes"/>
      <point x="341" y="610" type="line" smooth="yes"/>
      <point x="332" y="600"/>
      <point x="319" y="600" type="qcurve" smooth="yes"/>
      <point x="308" y="600"/>
      <point x="297" y="608" type="qcurve" smooth="yes"/>
      <point x="287" y="617"/>
      <point x="287" y="630" type="qcurve" smooth="yes"/>
      <point x="286" y="643"/>
      <point x="295" y="652" type="qcurve" smooth="yes"/>
      <point x="332" y="694" type="line"/>
      <point x="295" y="735" type="line" smooth="yes"/>
      <point x="286" y="746"/>
      <point x="287" y="758" type="qcurve" smooth="yes"/>
      <point x="287" y="771"/>
      <point x="297" y="778" type="qcurve" smooth="yes"/>
      <point x="306" y="787"/>
      <point x="332" y="787"/>
    </contour>
    <contour>
      <point x="172" y="481" type="line"/>
      <point x="72" y="481" type="line" smooth="yes"/>
      <point x="57" y="481"/>
      <point x="46" y="492" type="qcurve" smooth="yes"/>
      <point x="36" y="502"/>
      <point x="36" y="532"/>
      <point x="56" y="552"/>
      <point x="72" y="552" type="qcurve" smooth="yes"/>
      <point x="172" y="552" type="line"/>
      <point x="172" y="650" type="line" smooth="yes"/>
      <point x="172" y="665"/>
      <point x="192" y="685"/>
      <point x="208" y="685" type="qcurve" smooth="yes"/>
      <point x="223" y="685"/>
      <point x="233" y="675" type="qcurve" smooth="yes"/>
      <point x="244" y="663"/>
      <point x="243" y="650" type="qcurve" smooth="yes"/>
      <point x="243" y="552" type="line"/>
      <point x="399" y="552" type="line" smooth="yes"/>
      <point x="415" y="552"/>
      <point x="435" y="532"/>
      <point x="435" y="502"/>
      <point x="425" y="492" type="qcurve" smooth="yes"/>
      <point x="416" y="482"/>
      <point x="399" y="481" type="qcurve" smooth="yes"/>
      <point x="243" y="481" type="line"/>
      <point x="243" y="168" type="line"/>
      <point x="340" y="71" type="line"/>
      <point x="399" y="71" type="line" smooth="yes"/>
      <point x="415" y="71"/>
      <point x="435" y="51"/>
      <point x="435" y="35" type="qcurve" smooth="yes"/>
      <point x="435" y="20"/>
      <point x="415" y="0"/>
      <point x="399" y="0" type="qcurve" smooth="yes"/>
      <point x="326" y="0" type="line" smooth="yes"/>
      <point x="310" y="0"/>
      <point x="300" y="10" type="qcurve" smooth="yes"/>
      <point x="182" y="128" type="line" smooth="yes"/>
      <point x="172" y="138"/>
      <point x="172" y="153" type="qcurve" smooth="yes"/>
    </contour>
  </outline>
</glyph>
<glyph name="uni0237" format="2">
  <advance width="405"/>
  <unicode hex="0237"/>
  <outline>
    <contour>
      <point x="310.5" y="566" type="line" smooth="yes"/>
      <point x="310.5" y="581"/>
      <point x="320.5" y="592" type="qcurve" smooth="yes"/>
      <point x="334.5" y="603"/>
      <point x="346.5" y="603" type="qcurve" smooth="yes"/>
      <point x="362.5" y="603"/>
      <point x="384.5" y="581"/>
      <point x="384.5" y="566" type="qcurve" smooth="yes"/>
      <point x="384.5" y="-44" type="line" smooth="yes"/>
      <point x="384.5" y="-59"/>
      <point x="373.5" y="-70" type="qcurve" smooth="yes"/>
      <point x="218.5" y="-225" type="line" smooth="yes"/>
      <point x="207.5" y="-236"/>
      <point x="192.5" y="-235" type="qcurve" smooth="yes"/>
      <point x="57.5" y="-235" type="line" smooth="yes"/>
      <point x="42.5" y="-235"/>
      <point x="31.5" y="-224" type="qcurve" smooth="yes"/>
      <point x="20.5" y="-215"/>
      <point x="20.5" y="-198" type="qcurve" smooth="yes"/>
      <point x="20.5" y="-183"/>
      <point x="42.5" y="-161"/>
      <point x="57.5" y="-161" type="qcurve" smooth="yes"/>
      <point x="177.5" y="-161" type="line"/>
      <point x="310.5" y="-28" type="line"/>
    </contour>
  </outline>
</glyph>
<glyph name="caron" format="2">
  <advance width="300"/>
  <unicode hex="02C7"/>
  <outline>
    <contour>
      <point x="150.857" y="940.736" type="line"/>
      <point x="266.154" y="1056.03" type="line" smooth="yes"/>
      <point x="276.65" y="1066.53"/>
      <point x="306.369" y="1066.53"/>
      <point x="327.361" y="1045.54"/>
      <point x="327.361" y="1015.82"/>
      <point x="316.865" y="1005.32" type="qcurve" smooth="yes"/>
      <point x="176.667" y="865.124" type="line" smooth="yes"/>
      <point x="165.981" y="854.438"/>
      <point x="150.858" y="854.632" type="qcurve" smooth="yes"/>
      <point x="135.733" y="854.438"/>
      <point x="125.048" y="865.123" type="qcurve" smooth="yes"/>
      <point x="-15.1514" y="1005.32" type="line" smooth="yes"/>
      <point x="-25.6465" y="1015.82"/>
      <point x="-25.6484" y="1045.54"/>
      <point x="-4.65723" y="1066.53"/>
      <point x="25.0654" y="1066.53"/>
      <point x="35.5596" y="1056.03" type="qcurve" smooth="yes"/>
    </contour>
  </outline>
</glyph>
<glyph name="dotaccent" format="2">
  <advance width="100"/>
  <unicode hex="02D9"/>
  <outline>
    <contour>
      <point x="87.3867" y="857.722" type="line" smooth="yes"/>
      <point x="87.3867" y="852"/>
      <point x="79.2461" y="843.896"/>
      <point x="73.5215" y="843.896" type="qcurve" smooth="yes"/>
      <point x="26.4785" y="843.896" type="line" smooth="yes"/>
      <point x="20.7539" y="843.896"/>
      <point x="12.6133" y="852"/>
      <point x="12.6133" y="857.722" type="qcurve" smooth="yes"/>
      <point x="12.6133" y="904.299" type="line" smooth="yes"/>
      <point x="12.6133" y="910.021"/>
      <point x="20.7539" y="918.124"/>
      <point x="26.4785" y="918.124" type="qcurve" smooth="yes"/>
      <point x="73.5215" y="918.124" type="line" smooth="yes"/>
      <point x="79.2461" y="918.124"/>
      <point x="87.3867" y="910.021"/>
      <point x="87.3867" y="904.299" type="qcurve" smooth="yes"/>
    </contour>
  </outline>
</glyph>
<glyph name="ring" format="2">
  <advance width="260"/>
  <unicode hex="02DA"/>
  <outline>
    <contour>
      <point x="250.171" y="825.355" type="qcurve" smooth="yes"/>
      <point x="253.495" y="806.867"/>
      <point x="240.244" y="793.616" type="qcurve" smooth="yes"/>
      <point x="155.752" y="709.124" type="line" smooth="yes"/>
      <point x="145.066" y="698.438"/>
      <point x="129.943" y="698.632" type="qcurve" smooth="yes"/>
      <point x="114.818" y="698.438"/>
      <point x="104.133" y="709.123" type="qcurve" smooth="yes"/>
      <point x="19.6582" y="793.598" type="line" smooth="yes"/>
      <point x="9.61133" y="803.646"/>
      <point x="8.75098" y="832.076"/>
      <point x="18.0605" y="842.605" type="qcurve" smooth="yes"/>
      <point x="19.6924" y="844.846"/>
      <point x="21.707" y="846.86" type="qcurve" smooth="yes"/>
      <point x="104.133" y="929.286" type="line" smooth="yes"/>
      <point x="114.819" y="939.973"/>
      <point x="129.938" y="939.781" type="qcurve" smooth="yes"/>
      <point x="145.066" y="939.973"/>
      <point x="155.749" y="929.29" type="qcurve" smooth="yes"/>
      <point x="240.147" y="844.892" type="line" smooth="yes"/>
      <point x="248.312" y="836.728"/>
    </contour>
    <contour>
      <point x="95.4736" y="819.205" type="line"/>
      <point x="129.942" y="784.736" type="line"/>
      <point x="164.411" y="819.205" type="line"/>
      <point x="129.942" y="853.674" type="line"/>
    </contour>
  </outline>
</glyph>
<glyph name="gravecomb" format="2">
  <advance width="236"/>
  <unicode hex="0300"/>
  <outline>
    <contour>
      <point x="153.293" y="713.814" type="qcurve" smooth="yes"/>
      <point x="31.5928" y="883.471" type="line" smooth="yes"/>
      <point x="23.0361" y="895.597"/>
      <point x="28.0898" y="924.883"/>
      <point x="52.3438" y="942.001"/>
      <point x="81.6279" y="936.949"/>
      <point x="90.1885" y="924.821" type="qcurve" smooth="yes"/>
      <point x="211.888" y="755.166" type="line" smooth="yes"/>
      <point x="220.445" y="743.039"/>
      <point x="215.393" y="713.752"/>
      <point x="191.139" y="696.636"/>
      <point x="161.853" y="701.688"/>
    </contour>
  </outline>
</glyph>
<glyph name="acutecomb" format="2">
  <advance width="245"/>
  <unicode hex="0301"/>
  <outline>
    <contour>
      <point x="94.1885" y="713.814" type="line" smooth="yes"/>
      <point x="85.6289" y="701.688"/>
      <point x="56.3428" y="696.636"/>
      <point x="32.0879" y="713.752"/>
      <point x="27.0352" y="743.039"/>
      <point x="35.5938" y="755.166" type="qcurve" smooth="yes"/>
      <point x="157.293" y="924.821" type="line" smooth="yes"/>
      <point x="165.854" y="936.949"/>
      <point x="195.138" y="942.001"/>
      <point x="219.392" y="924.883"/>
      <point x="224.445" y="895.597"/>
      <point x="215.889" y="883.471" type="qcurve" smooth="yes"/>
    </contour>
  </outline>
</glyph>
<glyph name="uni0302" format="2">
  <advance width="276"/>
  <unicode hex="0302"/>
  <outline>
    <contour>
      <point x="134.858" y="942.429" type="line"/>
      <point x="19.5605" y="827.131" type="line" smooth="yes"/>
      <point x="9.06445" y="816.635"/>
      <point x="-20.6543" y="816.635"/>
      <point x="-41.6455" y="837.627"/>
      <point x="-41.6455" y="867.347"/>
      <point x="-31.1504" y="877.843" type="qcurve" smooth="yes"/>
      <point x="109.048" y="1018.04" type="line" smooth="yes"/>
      <point x="119.734" y="1028.73"/>
      <point x="134.856" y="1028.53" type="qcurve" smooth="yes"/>
      <point x="149.981" y="1028.73"/>
      <point x="160.667" y="1018.04" type="qcurve" smooth="yes"/>
      <point x="300.867" y="877.842" type="line" smooth="yes"/>
      <point x="311.362" y="867.347"/>
      <point x="311.363" y="837.629"/>
      <point x="290.373" y="816.637"/>
      <point x="260.65" y="816.637"/>
      <point x="250.156" y="827.131" type="qcurve" smooth="yes"/>
    </contour>
  </outline>
</glyph>
<glyph name="tildecomb" format="2">
  <advance width="392"/>
  <unicode hex="0303"/>
  <outline>
    <contour>
      <point x="248.811" y="857.229" type="qcurve" smooth="yes"/>
      <point x="243.661" y="859.808"/>
      <point x="239.536" y="863.932" type="qcurve" smooth="yes"/>
      <point x="124.238" y="979.229" type="line"/>
      <point x="8.94141" y="863.933" type="line" smooth="yes"/>
      <point x="-1.55469" y="853.438"/>
      <point x="-31.2734" y="853.438"/>
      <point x="-52.2656" y="874.428"/>
      <point x="-52.2656" y="904.148"/>
      <point x="-41.7695" y="914.644" type="qcurve" smooth="yes"/>
      <point x="98.4287" y="1054.84" type="line" smooth="yes"/>
      <point x="109.112" y="1065.53"/>
      <point x="124.237" y="1065.33" type="qcurve" smooth="yes"/>
      <point x="139.362" y="1065.53"/>
      <point x="150.048" y="1054.84" type="qcurve" smooth="yes"/>
      <point x="265.347" y="939.544" type="line"/>
      <point x="380.27" y="1055" type="line" smooth="yes"/>
      <point x="390.657" y="1065.44"/>
      <point x="420.143" y="1065.51"/>
      <point x="441.012" y="1044.74"/>
      <point x="441.081" y="1015.25"/>
      <point x="430.693" y="1004.82" type="qcurve" smooth="yes"/>
      <point x="290.305" y="863.77" type="line" smooth="yes"/>
      <point x="271.94" y="845.326"/>
    </contour>
  </outline>
</glyph>
<glyph name="uni0304" format="2">
  <advance width="258"/>
  <unicode hex="0304"/>
  <outline>
    <contour>
      <point x="59" y="858" type="line" smooth="yes"/>
      <point x="46" y="858"/>
      <point x="28" y="876"/>
      <point x="28" y="888" type="qcurve" smooth="yes"/>
      <point x="28" y="901"/>
      <point x="37" y="910" type="qcurve" smooth="yes"/>
      <point x="46" y="920"/>
      <point x="59" y="920" type="qcurve" smooth="yes"/>
      <point x="209" y="920" type="line" smooth="yes"/>
      <point x="222" y="920"/>
      <point x="231" y="910" type="qcurve" smooth="yes"/>
      <point x="240" y="901"/>
      <point x="240" y="888" type="qcurve" smooth="yes"/>
      <point x="240" y="876"/>
      <point x="222" y="858"/>
      <point x="209" y="858" type="qcurve" smooth="yes"/>
    </contour>
  </outline>
</glyph>
<glyph name="uni0306" format="2">
  <advance width="245"/>
  <unicode hex="0306"/>
  <outline>
    <contour>
      <point x="-26.7354" y="951.116" type="line" smooth="yes"/>
      <point x="-38.25" y="962.631"/>
      <point x="-38.25" y="995.236"/>
      <point x="-15.2207" y="1018.27"/>
      <point x="17.3838" y="1018.27"/>
      <point x="28.8984" y="1006.75" type="qcurve" smooth="yes"/>
      <point x="94.3408" y="941.308" type="line"/>
      <point x="148.834" y="941.308" type="line"/>
      <point x="214.836" y="1007.31" type="line" smooth="yes"/>
      <point x="226.35" y="1018.82"/>
      <point x="258.957" y="1018.82"/>
      <point x="281.984" y="995.793"/>
      <point x="281.984" y="963.189"/>
      <point x="270.471" y="951.674" type="qcurve" smooth="yes"/>
      <point x="192.944" y="874.151" type="line" smooth="yes"/>
      <point x="181.422" y="862.629"/>
      <point x="165.13" y="862.629" type="qcurve" smooth="yes"/>
      <point x="78.0459" y="862.629" type="line" smooth="yes"/>
      <point x="61.7529" y="862.629"/>
      <point x="50.2285" y="874.151" type="qcurve" smooth="yes"/>
    </contour>
  </outline>
</glyph>
<glyph name="uni0307" format="2">
  <advance width="100"/>
  <unicode hex="0307"/>
  <outline>
    <contour>
      <point x="87.5" y="857" type="line" smooth="yes"/>
      <point x="87.5" y="850"/>
      <point x="82.5" y="848" type="qcurve" smooth="yes"/>
      <point x="79.5" y="844"/>
      <point x="73.5" y="844" type="qcurve" smooth="yes"/>
      <point x="26.5" y="844" type="line" smooth="yes"/>
      <point x="20.5" y="844"/>
      <point x="12.5" y="852"/>
      <point x="12.5" y="857" type="qcurve" smooth="yes"/>
      <point x="12.5" y="904" type="line" smooth="yes"/>
      <point x="12.5" y="910"/>
      <point x="20.5" y="918"/>
      <point x="26.5" y="918" type="qcurve" smooth="yes"/>
      <point x="73.5" y="918" type="line" smooth="yes"/>
      <point x="79.5" y="918"/>
      <point x="87.5" y="910"/>
      <point x="87.5" y="904" type="qcurve" smooth="yes"/>
    </contour>
  </outline>
</glyph>
<glyph name="uni0308" format="2">
  <advance width="447"/>
  <unicode hex="0308"/>
  <outline>
    <contour>
      <point x="138.841" y="879.162" type="line" smooth="yes"/>
      <point x="138.841" y="864.442"/>
      <point x="118.163" y="843.651"/>
      <point x="88.7793" y="843.651"/>
      <point x="67.8711" y="864.467"/>
      <point x="67.8711" y="879.162" type="qcurve" smooth="yes"/>
      <point x="67.8711" y="939.372" type="line" smooth="yes"/>
      <point x="67.8711" y="954.067"/>
      <point x="88.7793" y="974.882"/>
      <point x="118.163" y="974.882"/>
      <point x="138.841" y="954.092"/>
      <point x="138.841" y="939.372" type="qcurve" smooth="yes"/>
    </contour>
    <contour>
      <point x="375.218" y="879.162" type="line" smooth="yes"/>
      <point x="375.218" y="864.442"/>
      <point x="354.54" y="843.651"/>
      <point x="325.156" y="843.651"/>
      <point x="304.248" y="864.467"/>
      <point x="304.248" y="879.162" type="qcurve" smooth="yes"/>
      <point x="304.248" y="939.372" type="line" smooth="yes"/>
      <point x="304.248" y="954.067"/>
      <point x="325.156" y="974.882"/>
      <point x="354.54" y="974.882"/>
      <point x="375.218" y="954.092"/>
      <point x="375.218" y="939.372" type="qcurve" smooth="yes"/>
    </contour>
  </outline>
</glyph>
<glyph name="uni030A" format="2">
  <advance width="208"/>
  <unicode hex="030A"/>
  <outline>
    <contour>
      <point x="223.829" y="825.355" type="qcurve" smooth="yes"/>
      <point x="227.153" y="806.867"/>
      <point x="213.902" y="793.616" type="qcurve" smooth="yes"/>
      <point x="129.41" y="709.124" type="line" smooth="yes"/>
      <point x="118.725" y="698.438"/>
      <point x="103.602" y="698.632" type="qcurve" smooth="yes"/>
      <point x="88.4766" y="698.438"/>
      <point x="77.791" y="709.123" type="qcurve" smooth="yes"/>
      <point x="-6.68359" y="793.598" type="line" smooth="yes"/>
      <point x="-16.7305" y="803.646"/>
      <point x="-17.5908" y="832.076"/>
      <point x="-8.28125" y="842.605" type="qcurve" smooth="yes"/>
      <point x="-6.64941" y="844.846"/>
      <point x="-4.63477" y="846.86" type="qcurve" smooth="yes"/>
      <point x="77.791" y="929.286" type="line" smooth="yes"/>
      <point x="88.4775" y="939.973"/>
      <point x="103.597" y="939.781" type="qcurve" smooth="yes"/>
      <point x="118.725" y="939.973"/>
      <point x="129.407" y="929.29" type="qcurve" smooth="yes"/>
      <point x="213.806" y="844.892" type="line" smooth="yes"/>
      <point x="221.97" y="836.728"/>
    </contour>
    <contour>
      <point x="69.1318" y="819.205" type="line"/>
      <point x="103.601" y="784.736" type="line"/>
      <point x="138.069" y="819.205" type="line"/>
      <point x="103.601" y="853.674" type="line"/>
    </contour>
  </outline>
</glyph>
<glyph name="uni030C" format="2">
  <advance width="224"/>
  <unicode hex="030C"/>
  <outline>
    <contour>
      <point x="112.001" y="940.736" type="line"/>
      <point x="227.298" y="1056.03" type="line" smooth="yes"/>
      <point x="237.794" y="1066.53"/>
      <point x="267.513" y="1066.53"/>
      <point x="288.505" y="1045.54"/>
      <point x="288.505" y="1015.82"/>
      <point x="278.009" y="1005.32" type="qcurve" smooth="yes"/>
      <point x="137.811" y="865.124" type="line" smooth="yes"/>
      <point x="127.125" y="854.438"/>
      <point x="112.002" y="854.632" type="qcurve" smooth="yes"/>
      <point x="96.877" y="854.438"/>
      <point x="86.1914" y="865.123" type="qcurve" smooth="yes"/>
      <point x="-54.0078" y="1005.32" type="line" smooth="yes"/>
      <point x="-64.5029" y="1015.82"/>
      <point x="-64.5049" y="1045.54"/>
      <point x="-43.5137" y="1066.53"/>
      <point x="-13.791" y="1066.53"/>
      <point x="-3.29688" y="1056.03" type="qcurve" smooth="yes"/>
    </contour>
  </outline>
</glyph>
<glyph name="uni0326" format="2">
  <advance width="186"/>
  <unicode hex="0326"/>
  <outline>
    <contour>
      <point x="88.6924" y="48.3428" type="qcurve" smooth="yes"/>
      <point x="88.6924" y="-2.73047" type="line"/>
      <point x="155.87" y="-49.0361" type="line" smooth="yes"/>
      <point x="171.378" y="-59.7217"/>
      <point x="171.378" y="-78.5605" type="qcurve" smooth="yes"/>
      <point x="171.378" y="-135.549" type="line" smooth="yes"/>
      <point x="171.378" y="-154.388"/>
      <point x="155.87" y="-165.073" type="qcurve" smooth="yes"/>
      <point x="73.1836" y="-222.067" type="line" smooth="yes"/>
      <point x="60.9629" y="-230.492"/>
      <point x="31.7354" y="-225.114"/>
      <point x="14.8848" y="-200.673"/>
      <point x="20.2627" y="-171.445"/>
      <point x="32.4834" y="-163.02" type="qcurve" smooth="yes"/>
      <point x="99.6621" y="-116.714" type="line"/>
      <point x="99.6621" y="-97.3965" type="line"/>
      <point x="32.4834" y="-51.0898" type="line" smooth="yes"/>
      <point x="16.9756" y="-40.3936"/>
      <point x="16.9756" y="-21.5664" type="qcurve" smooth="yes"/>
      <point x="16.9756" y="48.3428" type="line" smooth="yes"/>
      <point x="16.9756" y="63.1875"/>
      <point x="37.9922" y="84.2012"/>
      <point x="67.6797" y="84.2012"/>
      <point x="88.6924" y="63.1885"/>
    </contour>
  </outline>
</glyph>
<glyph name="uni0327" format="2">
  <advance width="244"/>
  <unicode hex="0327"/>
  <outline>
    <contour>
      <point x="123.692" y="48.3428" type="qcurve" smooth="yes"/>
      <point x="123.692" y="-2.73047" type="line"/>
      <point x="190.87" y="-49.0361" type="line" smooth="yes"/>
      <point x="206.378" y="-59.7217"/>
      <point x="206.378" y="-78.5605" type="qcurve" smooth="yes"/>
      <point x="206.378" y="-135.549" type="line" smooth="yes"/>
      <point x="206.378" y="-154.388"/>
      <point x="190.87" y="-165.073" type="qcurve" smooth="yes"/>
      <point x="108.184" y="-222.067" type="line" smooth="yes"/>
      <point x="95.9629" y="-230.492"/>
      <point x="66.7354" y="-225.114"/>
      <point x="49.8848" y="-200.673"/>
      <point x="55.2627" y="-171.445"/>
      <point x="67.4834" y="-163.02" type="qcurve" smooth="yes"/>
      <point x="134.662" y="-116.714" type="line"/>
      <point x="134.662" y="-97.3965" type="line"/>
      <point x="67.4834" y="-51.0898" type="line" smooth="yes"/>
      <point x="51.9756" y="-40.3936"/>
      <point x="51.9756" y="-21.5664" type="qcurve" smooth="yes"/>
      <point x="51.9756" y="48.3428" type="line" smooth="yes"/>
      <point x="51.9756" y="63.1875"/>
      <point x="72.9922" y="84.2012"/>
      <point x="102.68" y="84.2012"/>
      <point x="123.692" y="63.1885"/>
    </contour>
  </outline>
</glyph>
<glyph name="uni0328" format="2">
  <advance width="186"/>
  <unicode hex="0328"/>
  <outline>
    <contour>
      <point x="113.16" y="103.787" type="line" smooth="yes"/>
      <point x="123.66" y="114.282"/>
      <point x="153.377" y="114.287"/>
      <point x="174.371" y="93.2939"/>
      <point x="174.373" y="63.5752"/>
      <point x="163.878" y="53.0811" type="qcurve" smooth="yes"/>
      <point x="91.6914" y="-19.1113" type="line"/>
      <point x="91.6914" y="-56.6855" type="line"/>
      <point x="138.52" y="-56.6855" type="line" smooth="yes"/>
      <point x="153.361" y="-56.6855"/>
      <point x="174.378" y="-77.6992"/>
      <point x="174.378" y="-107.385"/>
      <point x="153.36" y="-128.401"/>
      <point x="138.52" y="-128.401" type="qcurve" smooth="yes"/>
      <point x="55.833" y="-128.401" type="line" smooth="yes"/>
      <point x="40.9795" y="-128.401"/>
      <point x="19.9756" y="-107.397"/>
      <point x="19.9756" y="-92.5439" type="qcurve" smooth="yes"/>
      <point x="19.9756" y="-4.25781" type="line" smooth="yes"/>
      <point x="19.9756" y="10.5967"/>
      <point x="30.4746" y="21.0957" type="qcurve" smooth="yes"/>
    </contour>
  </outline>
</glyph>
<glyph name="endash" format="2">
  <advance width="1175"/>
  <unicode hex="2013"/>
  <outline>
    <contour>
      <point x="795.071" y="415.231" type="qcurve" smooth="yes"/>
      <point x="380.926" y="415.231" type="line" smooth="yes"/>
      <point x="366" y="415"/>
      <point x="356.102" y="425.497" type="qcurve" smooth="yes"/>
      <point x="346" y="436"/>
      <point x="345.785" y="450.246" type="qcurve" smooth="yes"/>
      <point x="346" y="465"/>
      <point x="356.101" y="475.017" type="qcurve" smooth="yes"/>
      <point x="366.284" y="485.286"/>
      <point x="380.926" y="485.286" type="qcurve" smooth="yes"/>
      <point x="795.071" y="485.286" type="line" smooth="yes"/>
      <point x="810" y="485"/>
      <point x="819.896" y="475.017" type="qcurve" smooth="yes"/>
      <point x="830" y="465"/>
      <point x="830.212" y="450.246" type="qcurve" smooth="yes"/>
      <point x="830" y="436"/>
      <point x="819.896" y="425.497" type="qcurve" smooth="yes"/>
      <point x="810" y="415"/>
    </contour>
  </outline>
</glyph>
<glyph name="quotereversed" format="2">
  <advance width="240"/>
  <unicode hex="201B"/>
  <outline>
    <contour>
      <point x="94.3633" y="804.02" type="line"/>
      <point x="119.322" y="804.02" type="line" smooth="yes"/>
      <point x="129.775" y="804.02"/>
      <point x="144.641" y="818.818"/>
      <point x="144.641" y="829.266" type="qcurve" smooth="yes"/>
      <point x="144.641" y="914.32" type="line" smooth="yes"/>
      <point x="144.641" y="924.768"/>
      <point x="129.775" y="939.567"/>
      <point x="119.322" y="939.567" type="qcurve" smooth="yes"/>
      <point x="33.418" y="939.567" type="line" smooth="yes"/>
      <point x="22.9629" y="939.567"/>
      <point x="8.09766" y="924.768"/>
      <point x="8.09766" y="914.32" type="qcurve" smooth="yes"/>
      <point x="8.09766" y="829.266" type="line" smooth="yes"/>
      <point x="8.09766" y="818.888"/>
      <point x="15.5137" y="811.416" type="qcurve" smooth="yes"/>
      <point x="188.768" y="638.07" type="line" smooth="yes"/>
      <point x="196.229" y="630.678"/>
      <point x="217.117" y="630.678"/>
      <point x="231.902" y="645.463"/>
      <point x="231.902" y="666.378"/>
      <point x="224.576" y="673.771" type="qcurve" smooth="yes"/>
    </contour>
    <contour>
      <point x="58.5547" y="854.513" type="line"/>
      <point x="58.5547" y="889.073" type="line"/>
      <point x="94.1836" y="889.073" type="line"/>
      <point x="94.1836" y="854.513" type="line"/>
    </contour>
  </outline>
</glyph>
<glyph name="quotedblleft" format="2">
  <advance width="430"/>
  <unicode hex="201C"/>
  <outline>
    <contour>
      <point x="88.3623" y="766.98" type="line"/>
      <point x="113.32" y="766.98" type="line" smooth="yes"/>
      <point x="124.067" y="767"/>
      <point x="131.206" y="759.581" type="qcurve" smooth="yes"/>
      <point x="138.639" y="752.413"/>
      <point x="138.639" y="741.734" type="qcurve" smooth="yes"/>
      <point x="138.639" y="656.68" type="line" smooth="yes"/>
      <point x="139.067" y="646"/>
      <point x="131.206" y="638.832" type="qcurve" smooth="yes"/>
      <point x="124.462" y="631.433"/>
      <point x="113.32" y="631.433" type="qcurve" smooth="yes"/>
      <point x="27.416" y="631.433" type="line" smooth="yes"/>
      <point x="17.0674" y="631"/>
      <point x="9.5293" y="638.832" type="qcurve" smooth="yes"/>
      <point x="2.09668" y="645.972"/>
      <point x="2.09668" y="656.68" type="qcurve" smooth="yes"/>
      <point x="2.09668" y="741.734" type="line" smooth="yes"/>
      <point x="2.06738" y="752.136"/>
      <point x="9.51172" y="759.584" type="qcurve" smooth="yes"/>
      <point x="182.767" y="932.93" type="line" smooth="yes"/>
      <point x="190.067" y="940"/>
      <point x="200.671" y="940.322" type="qcurve" smooth="yes"/>
      <point x="211.067" y="940"/>
      <point x="226.067" y="926"/>
      <point x="225.9" y="915.079" type="qcurve" smooth="yes"/>
      <point x="226.072" y="904.729"/>
      <point x="218.575" y="897.229" type="qcurve" smooth="yes"/>
    </contour>
    <contour>
      <point x="52.5537" y="716.487" type="line"/>
      <point x="52.5537" y="681.927" type="line"/>
      <point x="88.1816" y="681.927" type="line"/>
      <point x="88.1816" y="716.487" type="line"/>
    </contour>
    <contour>
      <point x="290.362" y="766.98" type="line"/>
      <point x="315.32" y="766.98" type="line" smooth="yes"/>
      <point x="326.067" y="767"/>
      <point x="333.206" y="759.581" type="qcurve" smooth="yes"/>
      <point x="340.639" y="752.413"/>
      <point x="340.639" y="741.734" type="qcurve" smooth="yes"/>
      <point x="340.639" y="656.68" type="line" smooth="yes"/>
      <point x="341.067" y="646"/>
      <point x="333.206" y="638.832" type="qcurve" smooth="yes"/>
      <point x="326.462" y="631.433"/>
      <point x="315.32" y="631.433" type="qcurve" smooth="yes"/>
      <point x="229.416" y="631.433" type="line" smooth="yes"/>
      <point x="219.067" y="631"/>
      <point x="211.529" y="638.832" type="qcurve" smooth="yes"/>
      <point x="204.097" y="645.972"/>
      <point x="204.097" y="656.68" type="qcurve" smooth="yes"/>
      <point x="204.097" y="741.734" type="line" smooth="yes"/>
      <point x="204.067" y="752.136"/>
      <point x="211.512" y="759.584" type="qcurve" smooth="yes"/>
      <point x="384.767" y="932.93" type="line" smooth="yes"/>
      <point x="392.067" y="940"/>
      <point x="402.671" y="940.322" type="qcurve" smooth="yes"/>
      <point x="413.067" y="940"/>
      <point x="428.067" y="926"/>
      <point x="427.9" y="915.079" type="qcurve" smooth="yes"/>
      <point x="428.072" y="904.729"/>
      <point x="420.575" y="897.229" type="qcurve" smooth="yes"/>
    </contour>
    <contour>
      <point x="254.554" y="716.487" type="line"/>
      <point x="254.554" y="681.927" type="line"/>
      <point x="290.182" y="681.927" type="line"/>
      <point x="290.182" y="716.487" type="line"/>
    </contour>
  </outline>
</glyph>
<glyph name="quotedblbase" format="2">
  <advance width="430"/>
  <unicode hex="201E"/>
  <outline>
    <contour>
      <point x="342.638" y="0.0195312" type="line"/>
      <point x="317.68" y="0.0195312" type="line" smooth="yes"/>
      <point x="306.933" y="0"/>
      <point x="299.794" y="7.41895" type="qcurve" smooth="yes"/>
      <point x="292.361" y="14.5869"/>
      <point x="292.361" y="25.2656" type="qcurve" smooth="yes"/>
      <point x="292.361" y="110.32" type="line" smooth="yes"/>
      <point x="291.933" y="121"/>
      <point x="299.794" y="128.168" type="qcurve" smooth="yes"/>
      <point x="306.538" y="135.567"/>
      <point x="317.68" y="135.567" type="qcurve" smooth="yes"/>
      <point x="403.584" y="135.567" type="line" smooth="yes"/>
      <point x="413.933" y="136"/>
      <point x="421.471" y="128.168" type="qcurve" smooth="yes"/>
      <point x="428.903" y="121.028"/>
      <point x="428.903" y="110.32" type="qcurve" smooth="yes"/>
      <point x="428.903" y="25.2656" type="line" smooth="yes"/>
      <point x="428.933" y="14.8643"/>
      <point x="421.488" y="7.41602" type="qcurve" smooth="yes"/>
      <point x="248.233" y="-165.93" type="line" smooth="yes"/>
      <point x="240.933" y="-173"/>
      <point x="230.329" y="-173.322" type="qcurve" smooth="yes"/>
      <point x="219.933" y="-173"/>
      <point x="204.933" y="-159"/>
      <point x="205.1" y="-148.079" type="qcurve" smooth="yes"/>
      <point x="204.928" y="-137.729"/>
      <point x="212.425" y="-130.229" type="qcurve" smooth="yes"/>
    </contour>
    <contour>
      <point x="378.446" y="50.5127" type="line"/>
      <point x="378.446" y="85.0732" type="line"/>
      <point x="342.818" y="85.0732" type="line"/>
      <point x="342.818" y="50.5127" type="line"/>
    </contour>
    <contour>
      <point x="140.638" y="0.0195312" type="line"/>
      <point x="115.68" y="0.0195312" type="line" smooth="yes"/>
      <point x="104.933" y="0"/>
      <point x="97.7939" y="7.41895" type="qcurve" smooth="yes"/>
      <point x="90.3613" y="14.5869"/>
      <point x="90.3613" y="25.2656" type="qcurve" smooth="yes"/>
      <point x="90.3613" y="110.32" type="line" smooth="yes"/>
      <point x="89.9326" y="121"/>
      <point x="97.7939" y="128.168" type="qcurve" smooth="yes"/>
      <point x="104.538" y="135.567"/>
      <point x="115.68" y="135.567" type="qcurve" smooth="yes"/>
      <point x="201.584" y="135.567" type="line" smooth="yes"/>
      <point x="211.933" y="136"/>
      <point x="219.471" y="128.168" type="qcurve" smooth="yes"/>
      <point x="226.903" y="121.028"/>
      <point x="226.903" y="110.32" type="qcurve" smooth="yes"/>
      <point x="226.903" y="25.2656" type="line" smooth="yes"/>
      <point x="226.933" y="14.8643"/>
      <point x="219.488" y="7.41602" type="qcurve" smooth="yes"/>
      <point x="46.2334" y="-165.93" type="line" smooth="yes"/>
      <point x="38.9326" y="-173"/>
      <point x="28.3291" y="-173.322" type="qcurve" smooth="yes"/>
      <point x="17.9326" y="-173"/>
      <point x="2.93262" y="-159"/>
      <point x="3.09961" y="-148.079" type="qcurve" smooth="yes"/>
      <point x="2.92773" y="-137.729"/>
      <point x="10.4248" y="-130.229" type="qcurve" smooth="yes"/>
    </contour>
    <contour>
      <point x="176.446" y="50.5127" type="line"/>
      <point x="176.446" y="85.0732" type="line"/>
      <point x="140.818" y="85.0732" type="line"/>
      <point x="140.818" y="50.5127" type="line"/>
    </contour>
  </outline>
</glyph>
<glyph name="guilsinglleft" format="2">
  <advance width="600"/>
  <unicode hex="2039"/>
  <outline>
    <contour>
      <point x="504.622" y="783.989" type="line" smooth="yes"/>
      <point x="516.429" y="793.128"/>
      <point x="546.112" y="789.376"/>
      <point x="564.317" y="765.808"/>
      <point x="560.556" y="736.182"/>
      <point x="548.758" y="727.053" type="qcurve" smooth="yes"/>
      <point x="121.084" y="395.676" type="line"/>
      <point x="548.758" y="64.2998" type="line" smooth="yes"/>
      <point x="560.556" y="55.1699"/>
      <point x="564.317" y="25.5449"/>
      <point x="546.11" y="1.97461"/>
      <point x="516.431" y="-1.79883"/>
      <point x="504.622" y="7.33691" type="qcurve" smooth="yes"/>
      <point x="40.2979" y="367.182" type="line" smooth="yes"/>
      <point x="26.3604" y="378.045"/>
      <point x="26.3604" y="413.323"/>
      <point x="40.2979" y="424.145" type="qcurve" smooth="yes"/>
    </contour>
  </outline>
</glyph>
<glyph name="minus" format="2">
  <advance width="1175"/>
  <unicode hex="2212"/>
  <outline>
    <contour>
      <point x="825.071" y="415.231" type="qcurve" smooth="yes"/>
      <point x="350.926" y="415.231" type="line" smooth="yes"/>
      <point x="336.418" y="415.231"/>
      <point x="315.785" y="435.763"/>
      <point x="315.785" y="464.747"/>
      <point x="336.416" y="485.286"/>
      <point x="350.926" y="485.286" type="qcurve" smooth="yes"/>
      <point x="825.071" y="485.286" type="line" smooth="yes"/>
      <point x="839.581" y="485.286"/>
      <point x="860.212" y="464.747"/>
      <point x="860.212" y="435.763"/>
      <point x="839.579" y="415.231"/>
    </contour>
  </outline>
</glyph>
